<?xml version="1.0" encoding="UTF-8" standalone="no"?>
<svg
   xmlns:dc="http://purl.org/dc/elements/1.1/"
   xmlns:cc="http://creativecommons.org/ns#"
   xmlns:rdf="http://www.w3.org/1999/02/22-rdf-syntax-ns#"
   xmlns:svg="http://www.w3.org/2000/svg"
   xmlns="http://www.w3.org/2000/svg"
   xmlns:sodipodi="http://sodipodi.sourceforge.net/DTD/sodipodi-0.dtd"
   xmlns:inkscape="http://www.inkscape.org/namespaces/inkscape"
   version="1.1"
   width="246.33398"
   height="305.09903"
   viewbox="348 46 133 324"
   id="svg2"
   inkscape:version="0.48.4 r9939"
   sodipodi:docname="autogen2_t1.svg">
  <metadata
     id="metadata160">
    <rdf:RDF>
      <cc:Work
         rdf:about="">
        <dc:format>image/svg+xml</dc:format>
        <dc:type
           rdf:resource="http://purl.org/dc/dcmitype/StillImage" />
      </cc:Work>
    </rdf:RDF>
  </metadata>
  <defs
     id="defs158" />
  <sodipodi:namedview
     pagecolor="#ffffff"
     bordercolor="#666666"
     borderopacity="1"
     objecttolerance="10"
     gridtolerance="10"
     guidetolerance="10"
     inkscape:pageopacity="0"
     inkscape:pageshadow="2"
     inkscape:window-width="2048"
     inkscape:window-height="1086"
     id="namedview156"
     showgrid="false"
     fit-margin-top="0"
     fit-margin-left="0"
     fit-margin-right="0"
     fit-margin-bottom="0"
     inkscape:zoom="0.89086634"
     inkscape:cx="-290.68141"
     inkscape:cy="268.80033"
     inkscape:window-x="0"
     inkscape:window-y="27"
     inkscape:window-maximized="1"
     inkscape:current-layer="svg2" />
  <line
     x1="91.5"
     y1="245.59904"
     x2="91.5"
     y2="279.59903"
     id="line4"
     style="fill:none;stroke:#000000;stroke-width:1" />
  <polygon
     points="414,340 409,331 418,331 "
     id="polygon6"
     style="fill:#000000"
     transform="translate(-322.5,-60.400961)" />
  <polygon
     points="414,340 409,331 418,331 "
     id="polygon8"
     style="fill:none;stroke:#000000;stroke-width:1"
     transform="translate(-322.5,-60.400961)" />
  <line
     x1="91.5"
     y1="10.599039"
     x2="91.5"
     y2="58.599037"
     id="line10"
     style="fill:none;stroke:#000000;stroke-width:1" />
  <polygon
     points="414,119 409,110 418,110 "
     id="polygon12"
     style="fill:#000000"
     transform="translate(-322.5,-60.400961)" />
  <polygon
     points="414,119 409,110 418,110 "
     id="polygon14"
     style="fill:none;stroke:#000000;stroke-width:1"
     transform="translate(-322.5,-60.400961)" />
  <ellipse
     cx="414"
     cy="58"
     rx="7"
     ry="7"
     id="ellipse16"
     sodipodi:cx="414"
     sodipodi:cy="58"
     sodipodi:rx="7"
     sodipodi:ry="7"
     transform="translate(-322.07906,-51)"
     style="fill:#000000" />
  <line
     x1="91.5"
     y1="5.5990386"
     x2="91.5"
     y2="10.599039"
     id="line18"
     style="fill:none;stroke:#000000;stroke-width:1" />
  <polygon
     points="437,301 382,301 382,281 437,281 447,291 "
     id="polygon20"
     style="fill:#68e5ff"
     transform="translate(-322.5,-60.400961)" />
  <line
     x1="91.5"
     y1="220.59904"
     x2="91.5"
     y2="215.59904"
     id="line22"
     style="fill:none;stroke:#000000;stroke-width:1" />
  <line
     x1="91.5"
     y1="240.59904"
     x2="91.5"
     y2="245.59904"
     id="line24"
     style="fill:none;stroke:#000000;stroke-width:1" />
  <line
     x1="60.5"
     y1="221.59904"
     x2="115.5"
     y2="221.59904"
     id="line26"
     style="fill:none;stroke:#68e5ff;stroke-width:1" />
  <line
     x1="60.5"
     y1="241.59904"
     x2="115.5"
     y2="241.59904"
     id="line28"
     style="fill:none;stroke:#68e5ff;stroke-width:1" />
  <line
     x1="60.5"
     y1="221.59904"
     x2="60.5"
     y2="241.59904"
     id="line30"
     style="fill:none;stroke:#68e5ff;stroke-width:1" />
  <line
     x1="115.5"
     y1="221.59904"
     x2="125.5"
     y2="231.59904"
     id="line32"
     style="fill:none;stroke:#68e5ff;stroke-width:1" />
  <line
     x1="115.5"
     y1="241.59904"
     x2="125.5"
     y2="231.59904"
     id="line34"
     style="fill:none;stroke:#68e5ff;stroke-width:1" />
  <line
     x1="59.5"
     y1="220.59904"
     x2="114.5"
     y2="220.59904"
     id="line36"
     style="fill:none;stroke:#000000;stroke-width:1" />
  <line
     x1="59.5"
     y1="240.59904"
     x2="114.5"
     y2="240.59904"
     id="line38"
     style="fill:none;stroke:#000000;stroke-width:1" />
  <line
     x1="59.5"
     y1="220.59904"
     x2="59.5"
     y2="240.59904"
     id="line40"
     style="fill:none;stroke:#000000;stroke-width:1" />
  <line
     x1="114.5"
     y1="220.59904"
     x2="124.5"
     y2="230.59904"
     id="line42"
     style="fill:none;stroke:#000000;stroke-width:1" />
  <line
     x1="114.5"
     y1="240.59904"
     x2="124.5"
     y2="230.59904"
     id="line44"
     style="fill:none;stroke:#000000;stroke-width:1" />
  <text
     x="58.745453"
     y="218.86275"
     style="font-size:12px;font-family:SansSerif"
     id="text46">chl</text>
  <text
     x="64.5"
     y="235.59904"
     style="font-size:12px;font-family:SansSerif"
     id="text48">comm(1)</text>
  <text
     x="99.165833"
     y="254.60689"
     style="font-size:12px;font-family:SansSerif"
     id="text50">sec:autoEncrypt_comm</text>
  <line
     x1="29.5"
     y1="217.59904"
     x2="44.5"
     y2="217.59904"
     id="line52"
     style="fill:none;stroke:#000000;stroke-width:1" />
  <polygon
     points="367,278 358,282 358,273 "
     id="polygon54"
     style="fill:#000000"
     transform="translate(-322.5,-60.400961)" />
  <polygon
     points="367,278 358,282 358,273 "
     id="polygon56"
     style="fill:none;stroke:#000000;stroke-width:1"
     transform="translate(-322.5,-60.400961)" />
  <ellipse
     cx="374"
     cy="275"
     rx="3"
     ry="4"
     id="ellipse58"
     sodipodi:cx="374"
     sodipodi:cy="275"
     sodipodi:rx="3"
     sodipodi:ry="4"
     style="fill:none;stroke:#000000;stroke-width:1"
     transform="translate(-322.5,-60.400961)" />
  <rect
     x="47.5"
     y="213.59904"
     width="9.240202"
     height="7.5378509"
     id="rect60"
     style="fill:#00ff00" />
  <rect
     x="47.5"
     y="213.59904"
     width="9"
     height="7"
     id="rect62"
     style="fill:none;stroke:#000000;stroke-width:1" />
  <ellipse
     cx="414"
     cy="355"
     rx="8"
     ry="8"
     id="ellipse64"
     sodipodi:cx="414"
     sodipodi:cy="355"
     sodipodi:rx="8"
     sodipodi:ry="8"
     style="fill:#000000"
     transform="translate(-322.5,-60.400961)" />
  <ellipse
     cx="414"
     cy="355"
     rx="10"
     ry="10"
     id="ellipse66"
     sodipodi:cx="414"
     sodipodi:cy="355"
     sodipodi:rx="10"
     sodipodi:ry="10"
     style="fill:none;stroke:#000000;stroke-width:1"
     transform="translate(-322.5,-60.400961)" />
  <line
     x1="91.5"
     y1="284.59903"
     x2="91.5"
     y2="279.59903"
     id="line68"
     style="fill:none;stroke:#000000;stroke-width:1" />
  <polygon
     points="353,144 363,134 353,124 476,124 476,144 "
     id="polygon70"
     style="fill:#68e5ff"
     transform="translate(-322.5,-60.400961)" />
  <line
     x1="91.5"
     y1="63.599037"
     x2="91.5"
     y2="58.599037"
     id="line72"
     style="fill:none;stroke:#000000;stroke-width:1" />
  <line
     x1="91.5"
     y1="83.599037"
     x2="91.5"
     y2="88.599037"
     id="line74"
     style="fill:none;stroke:#000000;stroke-width:1" />
  <line
     x1="31.5"
     y1="64.599037"
     x2="154.5"
     y2="64.599037"
     id="line76"
     style="fill:none;stroke:#68e5ff;stroke-width:1" />
  <line
     x1="154.5"
     y1="64.599037"
     x2="154.5"
     y2="84.599037"
     id="line78"
     style="fill:none;stroke:#68e5ff;stroke-width:1" />
  <line
     x1="31.5"
     y1="84.599037"
     x2="154.5"
     y2="84.599037"
     id="line80"
     style="fill:none;stroke:#68e5ff;stroke-width:1" />
  <line
     x1="31.5"
     y1="64.599037"
     x2="41.5"
     y2="74.599037"
     id="line82"
     style="fill:none;stroke:#68e5ff;stroke-width:1" />
  <line
     x1="31.5"
     y1="84.599037"
     x2="41.5"
     y2="74.599037"
     id="line84"
     style="fill:none;stroke:#68e5ff;stroke-width:1" />
  <line
     x1="30.5"
     y1="63.599037"
     x2="153.5"
     y2="63.599037"
     id="line86"
     style="fill:none;stroke:#000000;stroke-width:1" />
  <line
     x1="153.5"
     y1="63.599037"
     x2="153.5"
     y2="83.599037"
     id="line88"
     style="fill:none;stroke:#000000;stroke-width:1" />
  <line
     x1="30.5"
     y1="83.599037"
     x2="153.5"
     y2="83.599037"
     id="line90"
     style="fill:none;stroke:#000000;stroke-width:1" />
  <line
     x1="30.5"
     y1="63.599037"
     x2="40.5"
     y2="73.599037"
     id="line92"
     style="fill:none;stroke:#000000;stroke-width:1" />
  <line
     x1="30.5"
     y1="83.599037"
     x2="40.5"
     y2="73.599037"
     id="line94"
     style="fill:none;stroke:#000000;stroke-width:1" />
  <text
     x="35.5"
     y="63.599037"
     style="font-size:12px;font-family:SansSerif"
     id="text96">chl</text>
  <text
     x="42.5"
     y="78.599037"
     style="font-size:12px;font-family:SansSerif"
     id="text98">nonceChT2_T1(1)</text>
  <text
     x="122.5"
     y="98.599037"
     style="font-size:12px;font-family:SansSerif"
     id="text100">sec:nonce_T2_T1</text>
  <line
     x1="0.5"
     y1="60.599037"
     x2="15.5"
     y2="60.599037"
     id="line102"
     style="fill:none;stroke:#000000;stroke-width:1" />
  <polygon
     points="338,121 329,125 329,116 "
     id="polygon104"
     style="fill:#000000"
     transform="translate(-322.5,-60.400961)" />
  <polygon
     points="338,121 329,125 329,116 "
     id="polygon106"
     style="fill:none;stroke:#000000;stroke-width:1"
     transform="translate(-322.5,-60.400961)" />
  <ellipse
     cx="345"
     cy="118"
     rx="3"
     ry="4"
     id="ellipse108"
     sodipodi:cx="345"
     sodipodi:cy="118"
     sodipodi:rx="3"
     sodipodi:ry="4"
     style="fill:none;stroke:#000000;stroke-width:1"
     transform="translate(-322.5,-60.400961)" />
  <rect
     x="18.78064"
     y="56.879654"
     width="8.5612516"
     height="6.9821901"
     id="rect110"
     style="fill:#00ff00" />
  <rect
     x="18.5"
     y="56.599037"
     width="9"
     height="7"
     id="rect112"
     style="fill:none;stroke:#000000;stroke-width:1" />
  <line
     x1="91.5"
     y1="88.599037"
     x2="91.5"
     y2="139.59904"
     id="line114"
     style="fill:none;stroke:#000000;stroke-width:1" />
  <polygon
     points="414,200 409,191 418,191 "
     id="polygon116"
     style="fill:#000000"
     transform="translate(-322.5,-60.400961)" />
  <polygon
     points="414,200 409,191 418,191 "
     id="polygon118"
     style="fill:none;stroke:#000000;stroke-width:1"
     transform="translate(-322.5,-60.400961)" />
  <rect
     x="84.5"
     y="144.59904"
     width="14.892945"
     height="35.140987"
     id="rect120"
     style="fill:#c7f369" />
  <polygon
     points="407,240 422,240 414,245 "
     id="polygon122"
     style="fill:#c7f369"
     transform="translate(-322.5,-60.400961)" />
  <line
     x1="84.5"
     y1="144.59904"
     x2="99.5"
     y2="144.59904"
     id="line124"
     style="fill:none;stroke:#000000;stroke-width:1" />
  <line
     x1="84.5"
     y1="144.59904"
     x2="84.5"
     y2="179.59904"
     id="line126"
     style="fill:none;stroke:#000000;stroke-width:1" />
  <line
     x1="99.5"
     y1="144.59904"
     x2="99.5"
     y2="179.59904"
     id="line128"
     style="fill:none;stroke:#000000;stroke-width:1" />
  <line
     x1="84.5"
     y1="179.59904"
     x2="91.5"
     y2="184.59904"
     id="line130"
     style="fill:none;stroke:#000000;stroke-width:1" />
  <line
     x1="91.5"
     y1="184.59904"
     x2="99.5"
     y2="179.59904"
     id="line132"
     style="fill:none;stroke:#000000;stroke-width:1" />
  <line
     x1="91.5"
     y1="144.59904"
     x2="91.5"
     y2="139.59904"
     id="line134"
     style="fill:none;stroke:#000000;stroke-width:1" />
  <line
     x1="91.5"
     y1="184.59904"
     x2="91.5"
     y2="189.59904"
     id="line136"
     style="fill:none;stroke:#000000;stroke-width:1" />
  <line
     x1="87.5"
     y1="155.59904"
     x2="87.5"
     y2="167.59904"
     id="line138"
     style="fill:none;stroke:#000000;stroke-width:1" />
  <line
     x1="96.5"
     y1="155.59904"
     x2="96.5"
     y2="167.59904"
     id="line140"
     style="fill:none;stroke:#000000;stroke-width:1" />
  <line
     x1="87.5"
     y1="155.59904"
     x2="91.5"
     y2="167.59904"
     id="line142"
     style="fill:none;stroke:#000000;stroke-width:1" />
  <line
     x1="96.5"
     y1="155.59904"
     x2="91.5"
     y2="167.59904"
     id="line144"
     style="fill:none;stroke:#000000;stroke-width:1" />
  <text
     x="106.5"
     y="161.59904"
     style="font-size:12px;font-family:SansSerif"
     id="text146">sec:autoEncrypt_comm</text>
  <text
     x="106.5"
     y="169.59904"
     style="font-size:12px;font-family:SansSerif"
     id="text148">nonce:nonce_T2_T1</text>
  <line
     x1="91.5"
     y1="189.59904"
     x2="91.5"
     y2="215.59904"
     id="line150"
     style="fill:none;stroke:#000000;stroke-width:1" />
  <polygon
     points="414,276 409,267 418,267 "
     id="polygon152"
     style="fill:#000000"
     transform="translate(-322.5,-60.400961)" />
  <polygon
     points="414,276 409,267 418,267 "
     id="polygon154"
     style="fill:none;stroke:#000000;stroke-width:1"
     transform="translate(-322.5,-60.400961)" />
</svg>
