<?xml version="1.0" encoding="UTF-8" standalone="no"?>
<svg
   xmlns:dc="http://purl.org/dc/elements/1.1/"
   xmlns:cc="http://creativecommons.org/ns#"
   xmlns:rdf="http://www.w3.org/1999/02/22-rdf-syntax-ns#"
   xmlns:svg="http://www.w3.org/2000/svg"
   xmlns="http://www.w3.org/2000/svg"
   xmlns:sodipodi="http://sodipodi.sourceforge.net/DTD/sodipodi-0.dtd"
   xmlns:inkscape="http://www.inkscape.org/namespaces/inkscape"
   version="1.1"
   width="246.33398"
   height="405.09109"
   viewbox="350 63 129 421"
   id="svg2"
   inkscape:version="0.48.4 r9939"
   sodipodi:docname="autogen2_t2.svg">
  <metadata
     id="metadata184">
    <rdf:RDF>
      <cc:Work
         rdf:about="">
        <dc:format>image/svg+xml</dc:format>
        <dc:type
           rdf:resource="http://purl.org/dc/dcmitype/StillImage" />
      </cc:Work>
    </rdf:RDF>
  </metadata>
  <defs
     id="defs182" />
  <sodipodi:namedview
     pagecolor="#ffffff"
     bordercolor="#666666"
     borderopacity="1"
     objecttolerance="10"
     gridtolerance="10"
     guidetolerance="10"
     inkscape:pageopacity="0"
     inkscape:pageshadow="2"
     inkscape:window-width="2048"
     inkscape:window-height="1086"
     id="namedview180"
     showgrid="false"
     fit-margin-top="0"
     fit-margin-left="0"
     fit-margin-right="0"
     fit-margin-bottom="0"
     inkscape:zoom="0.97520661"
     inkscape:cx="-135.77847"
     inkscape:cy="94.251186"
     inkscape:window-x="0"
     inkscape:window-y="27"
     inkscape:window-maximized="1"
     inkscape:current-layer="svg2" />
  <line
     x1="89.5"
     y1="228.59109"
     x2="89.5"
     y2="271.59109"
     id="line4"
     style="fill:none;stroke:#000000;stroke-width:1" />
  <polygon
     points="414,346 409,337 418,337 "
     id="polygon6"
     style="fill:#000000"
     transform="translate(-324.5,-74.408898)" />
  <polygon
     points="414,346 409,337 418,337 "
     id="polygon8"
     style="fill:none;stroke:#000000;stroke-width:1"
     transform="translate(-324.5,-74.408898)" />
  <line
     x1="89.5"
     y1="13.591102"
     x2="89.5"
     y2="40.591103"
     id="line10"
     style="fill:none;stroke:#000000;stroke-width:1" />
  <polygon
     points="414,115 409,106 418,106 "
     id="polygon12"
     style="fill:#000000"
     transform="translate(-324.5,-74.408898)" />
  <polygon
     points="414,115 409,106 418,106 "
     id="polygon14"
     style="fill:none;stroke:#000000;stroke-width:1"
     transform="translate(-324.5,-74.408898)" />
  <ellipse
     cx="414"
     cy="75"
     rx="7"
     ry="7"
     id="ellipse16"
     sodipodi:cx="414"
     sodipodi:cy="75"
     sodipodi:rx="7"
     sodipodi:ry="7"
     transform="translate(-325.14089,-68)"
     style="fill:#000000" />
  <line
     x1="89.5"
     y1="8.5911016"
     x2="89.5"
     y2="13.591102"
     id="line18"
     style="fill:none;stroke:#000000;stroke-width:1" />
  <polygon
     points="380,298 390,288 380,278 449,278 449,298 "
     id="polygon20"
     style="fill:#68e5ff"
     transform="translate(-324.5,-74.408898)" />
  <line
     x1="89.5"
     y1="203.59109"
     x2="89.5"
     y2="198.59109"
     id="line22"
     style="fill:none;stroke:#000000;stroke-width:1" />
  <line
     x1="89.5"
     y1="223.59109"
     x2="89.5"
     y2="228.59109"
     id="line24"
     style="fill:none;stroke:#000000;stroke-width:1" />
  <line
     x1="56.5"
     y1="204.59109"
     x2="125.5"
     y2="204.59109"
     id="line26"
     style="fill:none;stroke:#68e5ff;stroke-width:1" />
  <line
     x1="125.5"
     y1="204.59109"
     x2="125.5"
     y2="224.59109"
     id="line28"
     style="fill:none;stroke:#68e5ff;stroke-width:1" />
  <line
     x1="56.5"
     y1="224.59109"
     x2="125.5"
     y2="224.59109"
     id="line30"
     style="fill:none;stroke:#68e5ff;stroke-width:1" />
  <line
     x1="56.5"
     y1="204.59109"
     x2="66.5"
     y2="214.59109"
     id="line32"
     style="fill:none;stroke:#68e5ff;stroke-width:1" />
  <line
     x1="56.5"
     y1="224.59109"
     x2="66.5"
     y2="214.59109"
     id="line34"
     style="fill:none;stroke:#68e5ff;stroke-width:1" />
  <line
     x1="55.5"
     y1="203.59109"
     x2="124.5"
     y2="203.59109"
     id="line36"
     style="fill:none;stroke:#000000;stroke-width:1" />
  <line
     x1="124.5"
     y1="203.59109"
     x2="124.5"
     y2="223.59109"
     id="line38"
     style="fill:none;stroke:#000000;stroke-width:1" />
  <line
     x1="55.5"
     y1="223.59109"
     x2="124.5"
     y2="223.59109"
     id="line40"
     style="fill:none;stroke:#000000;stroke-width:1" />
  <line
     x1="55.5"
     y1="203.59109"
     x2="65.5"
     y2="213.59109"
     id="line42"
     style="fill:none;stroke:#000000;stroke-width:1" />
  <line
     x1="55.5"
     y1="223.59109"
     x2="65.5"
     y2="213.59109"
     id="line44"
     style="fill:none;stroke:#000000;stroke-width:1" />
  <text
     x="60.5"
     y="203.59109"
     style="font-size:12px;font-family:SansSerif"
     id="text46">chl</text>
  <text
     x="67.5"
     y="218.59109"
     style="font-size:12px;font-family:SansSerif"
     id="text48">comm(1)</text>
  <text
     x="106.5"
     y="238.59109"
     style="font-size:12px;font-family:SansSerif"
     id="text50">sec:autoEncrypt_comm</text>
  <line
     x1="25.5"
     y1="200.59109"
     x2="40.5"
     y2="200.59109"
     id="line52"
     style="fill:none;stroke:#000000;stroke-width:1" />
  <polygon
     points="365,275 356,279 356,270 "
     id="polygon54"
     style="fill:#000000"
     transform="translate(-324.5,-74.408898)" />
  <polygon
     points="365,275 356,279 356,270 "
     id="polygon56"
     style="fill:none;stroke:#000000;stroke-width:1"
     transform="translate(-324.5,-74.408898)" />
  <ellipse
     cx="372"
     cy="272"
     rx="3"
     ry="4"
     id="ellipse58"
     sodipodi:cx="372"
     sodipodi:cy="272"
     sodipodi:rx="3"
     sodipodi:ry="4"
     style="fill:none;stroke:#000000;stroke-width:1"
     transform="translate(-324.5,-74.408898)" />
  <rect
     x="43.5"
     y="196.59109"
     width="9.2817793"
     height="6.9613347"
     id="rect60"
     style="fill:#00ff00" />
  <rect
     x="43.5"
     y="196.59109"
     width="9"
     height="7"
     id="rect62"
     style="fill:none;stroke:#000000;stroke-width:1" />
  <ellipse
     cx="414"
     cy="469"
     rx="8"
     ry="8"
     id="ellipse64"
     sodipodi:cx="414"
     sodipodi:cy="469"
     sodipodi:rx="8"
     sodipodi:ry="8"
     style="fill:#000000"
     transform="translate(-324.5,-74.408898)" />
  <ellipse
     cx="414"
     cy="469"
     rx="10"
     ry="10"
     id="ellipse66"
     sodipodi:cx="414"
     sodipodi:cy="469"
     sodipodi:rx="10"
     sodipodi:ry="10"
     style="fill:none;stroke:#000000;stroke-width:1"
     transform="translate(-324.5,-74.408898)" />
  <line
     x1="89.5"
     y1="384.59109"
     x2="89.5"
     y2="379.59109"
     id="line68"
     style="fill:none;stroke:#000000;stroke-width:1" />
  <rect
     x="82.5"
     y="45.591103"
     width="15.345869"
     height="34.640892"
     id="rect70"
     style="fill:#c7f369" />
  <polygon
     points="422,155 414,160 407,155 "
     id="polygon72"
     transform="matrix(1,0,0,1.1025424,-324.5,-90.815678)"
     style="fill:#c7f369" />
  <line
     x1="82.5"
     y1="45.591103"
     x2="97.5"
     y2="45.591103"
     id="line74"
     style="fill:none;stroke:#000000;stroke-width:1" />
  <line
     x1="82.5"
     y1="45.591103"
     x2="82.5"
     y2="80.591103"
     id="line76"
     style="fill:none;stroke:#000000;stroke-width:1" />
  <line
     x1="97.5"
     y1="45.591103"
     x2="97.5"
     y2="80.591103"
     id="line78"
     style="fill:none;stroke:#000000;stroke-width:1" />
  <line
     x1="82.5"
     y1="80.591103"
     x2="89.5"
     y2="85.591103"
     id="line80"
     style="fill:none;stroke:#000000;stroke-width:1" />
  <line
     x1="89.5"
     y1="85.591103"
     x2="97.5"
     y2="80.591103"
     id="line82"
     style="fill:none;stroke:#000000;stroke-width:1" />
  <line
     x1="89.5"
     y1="45.591103"
     x2="89.5"
     y2="40.591103"
     id="line84"
     style="fill:none;stroke:#000000;stroke-width:1" />
  <line
     x1="89.5"
     y1="85.591103"
     x2="89.5"
     y2="90.591103"
     id="line86"
     style="fill:none;stroke:#000000;stroke-width:1" />
  <line
     x1="86.5"
     y1="56.591103"
     x2="86.5"
     y2="68.591103"
     id="line88"
     style="fill:none;stroke:#000000;stroke-width:1" />
  <line
     x1="92.5"
     y1="56.591103"
     x2="92.5"
     y2="68.591103"
     id="line90"
     style="fill:none;stroke:#000000;stroke-width:1" />
  <line
     x1="86.5"
     y1="56.591103"
     x2="92.5"
     y2="68.591103"
     id="line92"
     style="fill:none;stroke:#000000;stroke-width:1" />
  <text
     x="104.5"
     y="62.591103"
     style="font-size:12px;font-family:SansSerif"
     id="text94">sec:nonce_T2_T1</text>
  <polygon
     points="464,222 355,222 355,202 464,202 474,212 "
     id="polygon96"
     style="fill:#68e5ff"
     transform="translate(-324.5,-74.408898)" />
  <line
     x1="89.5"
     y1="127.5911"
     x2="89.5"
     y2="122.5911"
     id="line98"
     style="fill:none;stroke:#000000;stroke-width:1" />
  <line
     x1="89.5"
     y1="147.59109"
     x2="89.5"
     y2="152.59109"
     id="line100"
     style="fill:none;stroke:#000000;stroke-width:1" />
  <line
     x1="31.5"
     y1="128.59109"
     x2="140.5"
     y2="128.59109"
     id="line102"
     style="fill:none;stroke:#68e5ff;stroke-width:1" />
  <line
     x1="31.5"
     y1="148.59109"
     x2="140.5"
     y2="148.59109"
     id="line104"
     style="fill:none;stroke:#68e5ff;stroke-width:1" />
  <line
     x1="31.5"
     y1="128.59109"
     x2="31.5"
     y2="148.59109"
     id="line106"
     style="fill:none;stroke:#68e5ff;stroke-width:1" />
  <line
     x1="140.5"
     y1="128.59109"
     x2="150.5"
     y2="138.59109"
     id="line108"
     style="fill:none;stroke:#68e5ff;stroke-width:1" />
  <line
     x1="140.5"
     y1="148.59109"
     x2="150.5"
     y2="138.59109"
     id="line110"
     style="fill:none;stroke:#68e5ff;stroke-width:1" />
  <line
     x1="30.5"
     y1="127.5911"
     x2="139.5"
     y2="127.5911"
     id="line112"
     style="fill:none;stroke:#000000;stroke-width:1" />
  <line
     x1="30.5"
     y1="147.59109"
     x2="139.5"
     y2="147.59109"
     id="line114"
     style="fill:none;stroke:#000000;stroke-width:1" />
  <line
     x1="30.5"
     y1="127.5911"
     x2="30.5"
     y2="147.59109"
     id="line116"
     style="fill:none;stroke:#000000;stroke-width:1" />
  <line
     x1="139.5"
     y1="127.5911"
     x2="149.5"
     y2="137.59109"
     id="line118"
     style="fill:none;stroke:#000000;stroke-width:1" />
  <line
     x1="139.5"
     y1="147.59109"
     x2="149.5"
     y2="137.59109"
     id="line120"
     style="fill:none;stroke:#000000;stroke-width:1" />
  <text
     x="30.152496"
     y="125.77839"
     style="font-size:12px;font-family:SansSerif"
     id="text122">chl</text>
  <text
     x="35.5"
     y="142.59109"
     style="font-size:12px;font-family:SansSerif"
     id="text124">nonceChT2_T1(1)</text>
  <text
     x="119.5"
     y="162.59109"
     style="font-size:12px;font-family:SansSerif"
     id="text126">sec:nonce_T2_T1</text>
  <line
     x1="0.5"
     y1="124.5911"
     x2="15.5"
     y2="124.5911"
     id="line128"
     style="fill:none;stroke:#000000;stroke-width:1" />
  <polygon
     points="340,199 331,203 331,194 "
     id="polygon130"
     style="fill:#000000"
     transform="translate(-324.5,-74.408898)" />
  <polygon
     points="340,199 331,203 331,194 "
     id="polygon132"
     style="fill:none;stroke:#000000;stroke-width:1"
     transform="translate(-324.5,-74.408898)" />
  <ellipse
     cx="347"
     cy="196"
     rx="3"
     ry="4"
     id="ellipse134"
     sodipodi:cx="347"
     sodipodi:cy="196"
     sodipodi:rx="3"
     sodipodi:ry="4"
     style="fill:none;stroke:#000000;stroke-width:1"
     transform="translate(-324.5,-74.408898)" />
  <rect
     x="18.953186"
     y="120.95365"
     width="8.1812706"
     height="6.4531775"
     id="rect136"
     style="fill:#00ff00" />
  <rect
     x="18.5"
     y="120.5911"
     width="9"
     height="7"
     id="rect138"
     style="fill:none;stroke:#000000;stroke-width:1" />
  <line
     x1="89.5"
     y1="90.591103"
     x2="89.5"
     y2="122.5911"
     id="line140"
     style="fill:none;stroke:#000000;stroke-width:1" />
  <polygon
     points="414,197 409,188 418,188 "
     id="polygon142"
     style="fill:#000000"
     transform="translate(-324.5,-74.408898)" />
  <polygon
     points="414,197 409,188 418,188 "
     id="polygon144"
     style="fill:none;stroke:#000000;stroke-width:1"
     transform="translate(-324.5,-74.408898)" />
  <line
     x1="89.5"
     y1="152.59109"
     x2="89.5"
     y2="198.59109"
     id="line146"
     style="fill:none;stroke:#000000;stroke-width:1" />
  <polygon
     points="414,273 409,264 418,264 "
     id="polygon148"
     style="fill:#000000"
     transform="translate(-324.5,-74.408898)" />
  <polygon
     points="414,273 409,264 418,264 "
     id="polygon150"
     style="fill:none;stroke:#000000;stroke-width:1"
     transform="translate(-324.5,-74.408898)" />
  <rect
     x="82.5"
     y="276.59109"
     width="15.089513"
     height="34.76907"
     id="rect152"
     style="fill:#c7f369" />
  <polygon
     points="422,386 414,391 407,386 "
     id="polygon154"
     transform="matrix(1,0,0,1.1538136,-324.5,-134.55)"
     style="fill:#c7f369" />
  <line
     x1="82.5"
     y1="276.59109"
     x2="97.5"
     y2="276.59109"
     id="line156"
     style="fill:none;stroke:#000000;stroke-width:1" />
  <line
     x1="82.5"
     y1="276.59109"
     x2="82.5"
     y2="311.59109"
     id="line158"
     style="fill:none;stroke:#000000;stroke-width:1" />
  <line
     x1="97.5"
     y1="276.59109"
     x2="97.5"
     y2="311.59109"
     id="line160"
     style="fill:none;stroke:#000000;stroke-width:1" />
  <line
     x1="82.5"
     y1="311.59109"
     x2="89.5"
     y2="316.59109"
     id="line162"
     style="fill:none;stroke:#000000;stroke-width:1" />
  <line
     x1="89.5"
     y1="316.59109"
     x2="97.5"
     y2="311.59109"
     id="line164"
     style="fill:none;stroke:#000000;stroke-width:1" />
  <line
     x1="89.5"
     y1="276.59109"
     x2="89.5"
     y2="271.59109"
     id="line166"
     style="fill:none;stroke:#000000;stroke-width:1" />
  <line
     x1="89.5"
     y1="316.59109"
     x2="89.5"
     y2="321.59109"
     id="line168"
     style="fill:none;stroke:#000000;stroke-width:1" />
  <line
     x1="87.5"
     y1="283.59109"
     x2="87.5"
     y2="303.59109"
     id="line170"
     style="fill:none;stroke:#000000;stroke-width:1" />
  <text
     x="104.5"
     y="293.59109"
     style="font-size:12px;font-family:SansSerif"
     id="text172">sec:autoEncrypt_comm</text>
  <line
     x1="89.5"
     y1="321.59109"
     x2="89.5"
     y2="379.59109"
     id="line174"
     style="fill:none;stroke:#000000;stroke-width:1" />
  <polygon
     points="414,454 409,445 418,445 "
     id="polygon176"
     style="fill:#000000"
     transform="translate(-324.5,-74.408898)" />
  <polygon
     points="414,454 409,445 418,445 "
     id="polygon178"
     style="fill:none;stroke:#000000;stroke-width:1"
     transform="translate(-324.5,-74.408898)" />
  <path
     style="fill:none;stroke:#000000;stroke-width:1px;stroke-linecap:butt;stroke-linejoin:miter;stroke-opacity:1"
     d="m 86.3759,283.6321 c 9.46153,-1.13712 9.72864,19.92324 0.75368,19.73573"
     id="path3019"
     inkscape:connector-curvature="0"
     sodipodi:nodetypes="cc" />
</svg>
