<?xml version="1.0" encoding="UTF-8" standalone="no"?>
<svg
   xmlns:dc="http://purl.org/dc/elements/1.1/"
   xmlns:cc="http://creativecommons.org/ns#"
   xmlns:rdf="http://www.w3.org/1999/02/22-rdf-syntax-ns#"
   xmlns:svg="http://www.w3.org/2000/svg"
   xmlns="http://www.w3.org/2000/svg"
   xmlns:sodipodi="http://sodipodi.sourceforge.net/DTD/sodipodi-0.dtd"
   xmlns:inkscape="http://www.inkscape.org/namespaces/inkscape"
   version="1.1"
   width="221.33398"
   height="221.38107"
   viewbox="377 49 79 237"
   id="svg2"
   inkscape:version="0.48.4 r9939"
   sodipodi:docname="autogen_t2.svg">
  <metadata
     id="metadata102">
    <rdf:RDF>
      <cc:Work
         rdf:about="">
        <dc:format>image/svg+xml</dc:format>
        <dc:type
           rdf:resource="http://purl.org/dc/dcmitype/StillImage" />
      </cc:Work>
    </rdf:RDF>
  </metadata>
  <defs
     id="defs100" />
  <sodipodi:namedview
     pagecolor="#ffffff"
     bordercolor="#666666"
     borderopacity="1"
     objecttolerance="10"
     gridtolerance="10"
     guidetolerance="10"
     inkscape:pageopacity="0"
     inkscape:pageshadow="2"
     inkscape:window-width="2048"
     inkscape:window-height="1086"
     id="namedview98"
     showgrid="false"
     fit-margin-top="0"
     fit-margin-left="0"
     fit-margin-right="0"
     fit-margin-bottom="0"
     inkscape:zoom="1.8794154"
     inkscape:cx="-2.0295745"
     inkscape:cy="90.913221"
     inkscape:window-x="0"
     inkscape:window-y="27"
     inkscape:window-maximized="1"
     inkscape:current-layer="svg2" />
  <line
     x1="64.5"
     y1="82.881073"
     x2="64.5"
     y2="108.88107"
     id="line4"
     style="fill:none;stroke:#000000;stroke-width:1" />
  <polygon
     points="416,169 411,160 420,160 "
     id="polygon6"
     style="fill:#000000"
     transform="translate(-351.5,-60.118924)" />
  <polygon
     points="416,169 411,160 420,160 "
     id="polygon8"
     style="fill:none;stroke:#000000;stroke-width:1"
     transform="translate(-351.5,-60.118924)" />
  <line
     x1="64.5"
     y1="13.881076"
     x2="64.5"
     y2="52.881077"
     id="line10"
     style="fill:none;stroke:#000000;stroke-width:1" />
  <polygon
     points="416,113 411,104 420,104 "
     id="polygon12"
     style="fill:#000000"
     transform="translate(-351.5,-60.118924)" />
  <polygon
     points="416,113 411,104 420,104 "
     id="polygon14"
     style="fill:none;stroke:#000000;stroke-width:1"
     transform="translate(-351.5,-60.118924)" />
  <ellipse
     cx="416"
     cy="61"
     rx="7"
     ry="7"
     id="ellipse16"
     sodipodi:cx="416"
     sodipodi:cy="61"
     sodipodi:rx="7"
     sodipodi:ry="7"
     transform="translate(-351.5,-54)"
     style="fill:#000000" />
  <line
     x1="64.5"
     y1="8.8810759"
     x2="64.5"
     y2="13.881076"
     id="line18"
     style="fill:none;stroke:#000000;stroke-width:1" />
  <polygon
     points="382,138 392,128 382,118 451,118 451,138 "
     id="polygon20"
     style="fill:#68e5ff"
     transform="translate(-351.5,-60.118924)" />
  <line
     x1="64.5"
     y1="57.881077"
     x2="64.5"
     y2="52.881077"
     id="line22"
     style="fill:none;stroke:#000000;stroke-width:1" />
  <line
     x1="64.5"
     y1="77.881073"
     x2="64.5"
     y2="82.881073"
     id="line24"
     style="fill:none;stroke:#000000;stroke-width:1" />
  <line
     x1="31.5"
     y1="58.881077"
     x2="100.5"
     y2="58.881077"
     id="line26"
     style="fill:none;stroke:#68e5ff;stroke-width:1" />
  <line
     x1="100.5"
     y1="58.881077"
     x2="100.5"
     y2="78.881073"
     id="line28"
     style="fill:none;stroke:#68e5ff;stroke-width:1" />
  <line
     x1="31.5"
     y1="78.881073"
     x2="100.5"
     y2="78.881073"
     id="line30"
     style="fill:none;stroke:#68e5ff;stroke-width:1" />
  <line
     x1="31.5"
     y1="58.881077"
     x2="41.5"
     y2="68.881073"
     id="line32"
     style="fill:none;stroke:#68e5ff;stroke-width:1" />
  <line
     x1="31.5"
     y1="78.881073"
     x2="41.5"
     y2="68.881073"
     id="line34"
     style="fill:none;stroke:#68e5ff;stroke-width:1" />
  <line
     x1="30.5"
     y1="57.881077"
     x2="99.5"
     y2="57.881077"
     id="line36"
     style="fill:none;stroke:#000000;stroke-width:1" />
  <line
     x1="99.5"
     y1="57.881077"
     x2="99.5"
     y2="77.881073"
     id="line38"
     style="fill:none;stroke:#000000;stroke-width:1" />
  <line
     x1="30.5"
     y1="77.881073"
     x2="99.5"
     y2="77.881073"
     id="line40"
     style="fill:none;stroke:#000000;stroke-width:1" />
  <line
     x1="30.5"
     y1="57.881077"
     x2="40.5"
     y2="67.881073"
     id="line42"
     style="fill:none;stroke:#000000;stroke-width:1" />
  <line
     x1="30.5"
     y1="77.881073"
     x2="40.5"
     y2="67.881073"
     id="line44"
     style="fill:none;stroke:#000000;stroke-width:1" />
  <text
     x="30.044556"
     y="56.093945"
     style="font-size:12px;font-family:SansSerif"
     id="text46">chl</text>
  <text
     x="42.5"
     y="72.881073"
     style="font-size:12px;font-family:SansSerif"
     id="text48">comm(1)</text>
  <text
     x="81.5"
     y="92.881073"
     style="font-size:12px;font-family:SansSerif"
     id="text50">sec:autoEncrypt_comm</text>
  <line
     x1="0.5"
     y1="54.881077"
     x2="15.5"
     y2="54.881077"
     id="line52"
     style="fill:none;stroke:#000000;stroke-width:1" />
  <polygon
     points="367,115 358,119 358,110 "
     id="polygon54"
     style="fill:#000000"
     transform="translate(-351.5,-60.118924)" />
  <polygon
     points="367,115 358,119 358,110 "
     id="polygon56"
     style="fill:none;stroke:#000000;stroke-width:1"
     transform="translate(-351.5,-60.118924)" />
  <ellipse
     cx="374"
     cy="112"
     rx="3"
     ry="4"
     id="ellipse58"
     sodipodi:cx="374"
     sodipodi:cy="112"
     sodipodi:rx="3"
     sodipodi:ry="4"
     style="fill:none;stroke:#000000;stroke-width:1"
     transform="translate(-351.5,-60.118924)" />
  <rect
     x="18.5"
     y="50.881077"
     width="9.1287127"
     height="6.9405942"
     id="rect60"
     style="fill:#00ff00" />
  <rect
     x="18.5"
     y="50.881077"
     width="9"
     height="7"
     id="rect62"
     style="fill:none;stroke:#000000;stroke-width:1" />
  <ellipse
     cx="416"
     cy="271"
     rx="8"
     ry="8"
     id="ellipse64"
     sodipodi:cx="416"
     sodipodi:cy="271"
     sodipodi:rx="8"
     sodipodi:ry="8"
     style="fill:#000000"
     transform="translate(-351.5,-60.118924)" />
  <ellipse
     cx="416"
     cy="271"
     rx="10"
     ry="10"
     id="ellipse66"
     sodipodi:cx="416"
     sodipodi:cy="271"
     sodipodi:rx="10"
     sodipodi:ry="10"
     style="fill:none;stroke:#000000;stroke-width:1"
     transform="translate(-351.5,-60.118924)" />
  <line
     x1="64.5"
     y1="200.88107"
     x2="64.5"
     y2="195.88107"
     id="line68"
     style="fill:none;stroke:#000000;stroke-width:1" />
  <rect
     x="57.5"
     y="113.88107"
     width="14.997651"
     height="35.596241"
     id="rect70"
     style="fill:#c7f369" />
  <polygon
     points="409,209 424,209 416,214 "
     id="polygon72"
     style="fill:#c7f369"
     transform="translate(-351.5,-60.118924)" />
  <line
     x1="57.5"
     y1="113.88107"
     x2="72.5"
     y2="113.88107"
     id="line74"
     style="fill:none;stroke:#000000;stroke-width:1" />
  <line
     x1="57.5"
     y1="113.88107"
     x2="57.5"
     y2="148.88107"
     id="line76"
     style="fill:none;stroke:#000000;stroke-width:1" />
  <line
     x1="72.5"
     y1="113.88107"
     x2="72.5"
     y2="148.88107"
     id="line78"
     style="fill:none;stroke:#000000;stroke-width:1" />
  <line
     x1="57.5"
     y1="148.88107"
     x2="64.5"
     y2="153.88107"
     id="line80"
     style="fill:none;stroke:#000000;stroke-width:1" />
  <line
     x1="64.5"
     y1="153.88107"
     x2="72.5"
     y2="148.88107"
     id="line82"
     style="fill:none;stroke:#000000;stroke-width:1" />
  <line
     x1="64.5"
     y1="113.88107"
     x2="64.5"
     y2="108.88107"
     id="line84"
     style="fill:none;stroke:#000000;stroke-width:1" />
  <line
     x1="64.5"
     y1="153.88107"
     x2="64.5"
     y2="158.88107"
     id="line86"
     style="fill:none;stroke:#000000;stroke-width:1" />
  <line
     x1="62.5"
     y1="120.88107"
     x2="62.5"
     y2="140.88107"
     id="line88"
     style="fill:none;stroke:#000000;stroke-width:1" />
  <text
     x="79.5"
     y="130.88107"
     style="font-size:12px;font-family:SansSerif"
     id="text90">sec:autoEncrypt_comm</text>
  <line
     x1="64.5"
     y1="158.88107"
     x2="64.5"
     y2="195.88107"
     id="line92"
     style="fill:none;stroke:#000000;stroke-width:1" />
  <polygon
     points="416,256 411,247 420,247 "
     id="polygon94"
     style="fill:#000000"
     transform="translate(-351.5,-60.118924)" />
  <polygon
     points="416,256 411,247 420,247 "
     id="polygon96"
     style="fill:none;stroke:#000000;stroke-width:1"
     transform="translate(-351.5,-60.118924)" />
  <path
     style="fill:none;stroke:#000000;stroke-width:1px;stroke-linecap:butt;stroke-linejoin:miter;stroke-opacity:1"
     d="m 61.34714,120.47046 c 9.46153,-1.13712 9.72864,19.92324 0.75368,19.73573"
     id="path3019"
     inkscape:connector-curvature="0"
     sodipodi:nodetypes="cc" />
</svg>
