<?xml version="1.0" encoding="UTF-8" standalone="no"?>
<svg
   xmlns:dc="http://purl.org/dc/elements/1.1/"
   xmlns:cc="http://creativecommons.org/ns#"
   xmlns:rdf="http://www.w3.org/1999/02/22-rdf-syntax-ns#"
   xmlns:svg="http://www.w3.org/2000/svg"
   xmlns="http://www.w3.org/2000/svg"
   xmlns:sodipodi="http://sodipodi.sourceforge.net/DTD/sodipodi-0.dtd"
   xmlns:inkscape="http://www.inkscape.org/namespaces/inkscape"
   version="1.1"
   width="218.33398"
   height="247.32095"
   viewbox="377 46 75 264"
   id="svg2"
   inkscape:version="0.48.4 r9939"
   sodipodi:docname="autogen_t1.svg">
  <metadata
     id="metadata108">
    <rdf:RDF>
      <cc:Work
         rdf:about="">
        <dc:format>image/svg+xml</dc:format>
        <dc:type
           rdf:resource="http://purl.org/dc/dcmitype/StillImage" />
      </cc:Work>
    </rdf:RDF>
  </metadata>
  <defs
     id="defs106" />
  <sodipodi:namedview
     pagecolor="#ffffff"
     bordercolor="#666666"
     borderopacity="1"
     objecttolerance="10"
     gridtolerance="10"
     guidetolerance="10"
     inkscape:pageopacity="0"
     inkscape:pageshadow="2"
     inkscape:window-width="2048"
     inkscape:window-height="1086"
     id="namedview104"
     showgrid="false"
     fit-margin-top="0"
     fit-margin-left="0"
     fit-margin-right="0"
     fit-margin-bottom="0"
     inkscape:zoom="1.340708"
     inkscape:cx="-82.153241"
     inkscape:cy="-9.3739663"
     inkscape:window-x="0"
     inkscape:window-y="27"
     inkscape:window-maximized="1"
     inkscape:current-layer="svg2" />
  <line
     x1="62.5"
     y1="187.82095"
     x2="62.5"
     y2="221.82095"
     id="line4"
     style="fill:none;stroke:#000000;stroke-width:1" />
  <polygon
     points="414,280 409,271 418,271 "
     id="polygon6"
     style="fill:#000000"
     transform="translate(-351.5,-58.17904)" />
  <polygon
     points="414,280 409,271 418,271 "
     id="polygon8"
     style="fill:none;stroke:#000000;stroke-width:1"
     transform="translate(-351.5,-58.17904)" />
  <line
     x1="62.5"
     y1="12.82096"
     x2="62.5"
     y2="50.820961"
     id="line10"
     style="fill:none;stroke:#000000;stroke-width:1" />
  <polygon
     points="414,109 409,100 418,100 "
     id="polygon12"
     style="fill:#000000"
     transform="translate(-351.5,-58.17904)" />
  <polygon
     points="414,109 409,100 418,100 "
     id="polygon14"
     style="fill:none;stroke:#000000;stroke-width:1"
     transform="translate(-351.5,-58.17904)" />
  <ellipse
     cx="414"
     cy="58"
     rx="7"
     ry="7"
     id="ellipse16"
     sodipodi:cx="414"
     sodipodi:cy="58"
     sodipodi:rx="7"
     sodipodi:ry="7"
     transform="translate(-350.94059,-51)"
     style="fill:#000000" />
  <line
     x1="62.5"
     y1="7.82096"
     x2="62.5"
     y2="12.82096"
     id="line18"
     style="fill:none;stroke:#000000;stroke-width:1" />
  <polygon
     points="437,221 447,231 437,241 382,241 382,221 "
     id="polygon20"
     style="fill:#68e5ff"
     transform="translate(-351.5,-58.17904)" />
  <line
     x1="62.5"
     y1="162.82095"
     x2="62.5"
     y2="157.82095"
     id="line22"
     style="fill:none;stroke:#000000;stroke-width:1" />
  <line
     x1="62.5"
     y1="182.82095"
     x2="62.5"
     y2="187.82095"
     id="line24"
     style="fill:none;stroke:#000000;stroke-width:1" />
  <line
     x1="31.5"
     y1="163.82095"
     x2="86.5"
     y2="163.82095"
     id="line26"
     style="fill:none;stroke:#68e5ff;stroke-width:1" />
  <line
     x1="31.5"
     y1="183.82095"
     x2="86.5"
     y2="183.82095"
     id="line28"
     style="fill:none;stroke:#68e5ff;stroke-width:1" />
  <line
     x1="31.5"
     y1="163.82095"
     x2="31.5"
     y2="183.82095"
     id="line30"
     style="fill:none;stroke:#68e5ff;stroke-width:1" />
  <line
     x1="86.5"
     y1="163.82095"
     x2="96.5"
     y2="173.82095"
     id="line32"
     style="fill:none;stroke:#68e5ff;stroke-width:1" />
  <line
     x1="86.104431"
     y1="183.6891"
     x2="96.104431"
     y2="173.6891"
     id="line34"
     style="fill:none;stroke:#68e5ff;stroke-width:1" />
  <line
     x1="30.5"
     y1="162.82095"
     x2="85.5"
     y2="162.82095"
     id="line36"
     style="fill:none;stroke:#000000;stroke-width:1" />
  <line
     x1="30.5"
     y1="182.82095"
     x2="85.5"
     y2="182.82095"
     id="line38"
     style="fill:none;stroke:#000000;stroke-width:1" />
  <line
     x1="30.5"
     y1="162.82095"
     x2="30.5"
     y2="182.82095"
     id="line40"
     style="fill:none;stroke:#000000;stroke-width:1" />
  <line
     x1="85.5"
     y1="162.82095"
     x2="95.5"
     y2="172.82095"
     id="line42"
     style="fill:none;stroke:#000000;stroke-width:1" />
  <line
     x1="85.5"
     y1="182.82095"
     x2="95.5"
     y2="172.82095"
     id="line44"
     style="fill:none;stroke:#000000;stroke-width:1" />
  <text
     x="31.544403"
     y="161.63428"
     style="font-size:12px;font-family:SansSerif"
     id="text46">chl</text>
  <text
     x="35.5"
     y="177.82095"
     style="font-size:12px;font-family:SansSerif"
     id="text48">comm(1)</text>
  <text
     x="78.5"
     y="197.82095"
     style="font-size:12px;font-family:SansSerif"
     id="text50">sec:autoEncrypt_comm</text>
  <line
     x1="0.5"
     y1="159.82095"
     x2="15.5"
     y2="159.82095"
     id="line52"
     style="fill:none;stroke:#000000;stroke-width:1" />
  <polygon
     points="367,218 358,222 358,213 "
     id="polygon54"
     style="fill:#000000"
     transform="translate(-351.5,-58.17904)" />
  <polygon
     points="367,218 358,222 358,213 "
     id="polygon56"
     style="fill:none;stroke:#000000;stroke-width:1"
     transform="translate(-351.5,-58.17904)" />
  <ellipse
     cx="374"
     cy="215"
     rx="3"
     ry="4"
     id="ellipse58"
     sodipodi:cx="374"
     sodipodi:cy="215"
     sodipodi:rx="3"
     sodipodi:ry="4"
     style="fill:none;stroke:#000000;stroke-width:1"
     transform="translate(-351.5,-58.17904)" />
  <rect
     x="18.966187"
     y="156.28712"
     width="8"
     height="6"
     id="rect60"
     style="fill:#00ff00" />
  <rect
     x="18.5"
     y="155.82095"
     width="9"
     height="7"
     id="rect62"
     style="fill:none;stroke:#000000;stroke-width:1" />
  <ellipse
     cx="414"
     cy="295"
     rx="8"
     ry="8"
     id="ellipse64"
     sodipodi:cx="414"
     sodipodi:cy="295"
     sodipodi:rx="8"
     sodipodi:ry="8"
     style="fill:#000000"
     transform="translate(-351.5,-58.17904)" />
  <ellipse
     cx="414"
     cy="295"
     rx="10"
     ry="10"
     id="ellipse66"
     sodipodi:cx="414"
     sodipodi:cy="295"
     sodipodi:rx="10"
     sodipodi:ry="10"
     style="fill:none;stroke:#000000;stroke-width:1"
     transform="translate(-351.5,-58.17904)" />
  <line
     x1="62.5"
     y1="226.82095"
     x2="62.5"
     y2="221.82095"
     id="line68"
     style="fill:none;stroke:#000000;stroke-width:1" />
  <rect
     x="55.5"
     y="55.820961"
     width="14.419555"
     height="35.165428"
     id="rect70"
     style="fill:#c7f369" />
  <polygon
     points="422,149 414,154 407,149 "
     id="polygon72"
     transform="matrix(1.0155391,0,0,1.0932343,-358.05748,-72.53713)"
     style="fill:#c7f369" />
  <line
     x1="55.5"
     y1="55.820961"
     x2="70.5"
     y2="55.820961"
     id="line74"
     style="fill:none;stroke:#000000;stroke-width:1" />
  <line
     x1="55.5"
     y1="55.820961"
     x2="55.5"
     y2="90.820961"
     id="line76"
     style="fill:none;stroke:#000000;stroke-width:1" />
  <line
     x1="70.5"
     y1="55.820961"
     x2="70.5"
     y2="90.820961"
     id="line78"
     style="fill:none;stroke:#000000;stroke-width:1" />
  <line
     x1="55.5"
     y1="90.820961"
     x2="62.5"
     y2="95.820961"
     id="line80"
     style="fill:none;stroke:#000000;stroke-width:1" />
  <line
     x1="62.5"
     y1="95.820961"
     x2="70.5"
     y2="90.820961"
     id="line82"
     style="fill:none;stroke:#000000;stroke-width:1" />
  <line
     x1="62.5"
     y1="55.820961"
     x2="62.5"
     y2="50.820961"
     id="line84"
     style="fill:none;stroke:#000000;stroke-width:1" />
  <line
     x1="62.5"
     y1="95.820961"
     x2="62.5"
     y2="100.82096"
     id="line86"
     style="fill:none;stroke:#000000;stroke-width:1" />
  <line
     x1="58.5"
     y1="66.820961"
     x2="58.5"
     y2="78.820961"
     id="line88"
     style="fill:none;stroke:#000000;stroke-width:1" />
  <line
     x1="67.5"
     y1="66.820961"
     x2="67.5"
     y2="78.820961"
     id="line90"
     style="fill:none;stroke:#000000;stroke-width:1" />
  <line
     x1="58.5"
     y1="66.820961"
     x2="62.5"
     y2="78.820961"
     id="line92"
     style="fill:none;stroke:#000000;stroke-width:1" />
  <line
     x1="67.5"
     y1="66.820961"
     x2="62.5"
     y2="78.820961"
     id="line94"
     style="fill:none;stroke:#000000;stroke-width:1" />
  <text
     x="77.5"
     y="72.820961"
     style="font-size:12px;font-family:SansSerif"
     id="text96">sec:autoEncrypt_comm</text>
  <line
     x1="62.5"
     y1="100.82096"
     x2="62.5"
     y2="157.82095"
     id="line98"
     style="fill:none;stroke:#000000;stroke-width:1" />
  <polygon
     points="414,216 409,207 418,207 "
     id="polygon100"
     style="fill:#000000"
     transform="translate(-351.5,-58.17904)" />
  <polygon
     points="414,216 409,207 418,207 "
     id="polygon102"
     style="fill:none;stroke:#000000;stroke-width:1"
     transform="translate(-351.5,-58.17904)" />
</svg>
