<?xml version="1.0" encoding="UTF-8" standalone="no"?>
<svg
   xmlns:dc="http://purl.org/dc/elements/1.1/"
   xmlns:cc="http://creativecommons.org/ns#"
   xmlns:rdf="http://www.w3.org/1999/02/22-rdf-syntax-ns#"
   xmlns:svg="http://www.w3.org/2000/svg"
   xmlns="http://www.w3.org/2000/svg"
   xmlns:sodipodi="http://sodipodi.sourceforge.net/DTD/sodipodi-0.dtd"
   xmlns:inkscape="http://www.inkscape.org/namespaces/inkscape"
   version="1.1"
   width="219"
   height="435"
   viewbox="331 45 223 436"
   id="svg7731"
   inkscape:version="0.48.5 r10040"
   sodipodi:docname="design_t1.svg">
  <metadata
     id="metadata7831">
    <rdf:RDF>
      <cc:Work
         rdf:about="">
        <dc:format>image/svg+xml</dc:format>
        <dc:type
           rdf:resource="http://purl.org/dc/dcmitype/StillImage" />
      </cc:Work>
    </rdf:RDF>
  </metadata>
  <defs
     id="defs7829" />
  <sodipodi:namedview
     pagecolor="#ffffff"
     bordercolor="#666666"
     borderopacity="1"
     objecttolerance="10"
     gridtolerance="10"
     guidetolerance="10"
     inkscape:pageopacity="0"
     inkscape:pageshadow="2"
     inkscape:window-width="640"
     inkscape:window-height="480"
     id="namedview7827"
     showgrid="false"
     inkscape:zoom="0.49064449"
     inkscape:cx="277"
     inkscape:cy="240.5"
     inkscape:window-x="418"
     inkscape:window-y="463"
     inkscape:window-maximized="0"
     inkscape:current-layer="svg7731" />
  <ellipse
     cx="407"
     cy="57"
     rx="7"
     ry="7"
     id="ellipse7733"
     sodipodi:cx="407"
     sodipodi:cy="57"
     sodipodi:rx="7"
     sodipodi:ry="7"
     transform="translate(-330,-46)"
     style="fill:#000000" />
  <line
     x1="77"
     y1="19"
     x2="77"
     y2="24"
     id="line7735"
     style="fill:none;stroke:#000000;stroke-width:1" />
  <rect
     x="10"
     y="46"
     width="134"
     height="40"
     rx="5"
     ry="5"
     id="rect7737"
     style="fill:#c1daf1" />
  <rect
     x="10"
     y="46"
     width="134"
     height="40"
     rx="5"
     ry="5"
     id="rect7739"
     style="fill:none;stroke:#000000;stroke-width:1" />
  <text
     x="19"
     y="61"
     style="font-size:12px;font-family:SansSerif"
     id="text7741">makingMessage</text>
  <line
     x1="10"
     y1="63"
     x2="144"
     y2="63"
     id="line7743"
     style="fill:none;stroke:#000000;stroke-width:1" />
  <rect
     x="6"
     y="165"
     width="143"
     height="40"
     rx="5"
     ry="5"
     id="rect7745"
     style="fill:#c1daf1" />
  <rect
     x="6"
     y="165"
     width="143"
     height="40"
     rx="5"
     ry="5"
     id="rect7747"
     style="fill:none;stroke:#000000;stroke-width:1" />
  <text
     x="17"
     y="180"
     style="font-size:12px;font-family:SansSerif"
     id="text7749">sendingMessage</text>
  <line
     x1="6"
     y1="182"
     x2="149"
     y2="182"
     id="line7751"
     style="fill:none;stroke:#000000;stroke-width:1" />
  <ellipse
     cx="407"
     cy="466"
     rx="8"
     ry="8"
     id="ellipse7753"
     sodipodi:cx="407"
     sodipodi:cy="466"
     sodipodi:rx="8"
     sodipodi:ry="8"
     transform="translate(-330,-46)"
     style="fill:#000000" />
  <ellipse
     cx="407"
     cy="466"
     rx="10"
     ry="10"
     id="ellipse7755"
     sodipodi:cx="407"
     sodipodi:cy="466"
     sodipodi:rx="10"
     sodipodi:ry="10"
     transform="translate(-330,-46)"
     style="fill:none;stroke:#000000;stroke-width:1" />
  <line
     x1="77"
     y1="410"
     x2="77"
     y2="405"
     id="line7757"
     style="fill:none;stroke:#000000;stroke-width:1" />
  <line
     x1="77"
     y1="239"
     x2="77"
     y2="234"
     id="line7759"
     style="fill:none;stroke:#000000;stroke-width:1" />
  <line
     x1="77"
     y1="259"
     x2="77"
     y2="264"
     id="line7761"
     style="fill:none;stroke:#000000;stroke-width:1" />
  <line
     x1="41"
     y1="240"
     x2="106"
     y2="240"
     id="line7763"
     style="fill:none;stroke:#80b4cd;stroke-width:1" />
  <line
     x1="41"
     y1="260"
     x2="106"
     y2="260"
     id="line7765"
     style="fill:none;stroke:#80b4cd;stroke-width:1" />
  <line
     x1="41"
     y1="240"
     x2="41"
     y2="260"
     id="line7767"
     style="fill:none;stroke:#80b4cd;stroke-width:1" />
  <line
     x1="106"
     y1="240"
     x2="116"
     y2="250"
     id="line7769"
     style="fill:none;stroke:#80b4cd;stroke-width:1" />
  <line
     x1="106"
     y1="260"
     x2="116"
     y2="250"
     id="line7771"
     style="fill:none;stroke:#80b4cd;stroke-width:1" />
  <line
     x1="40"
     y1="239"
     x2="105"
     y2="239"
     id="line7773"
     style="fill:none;stroke:#000000;stroke-width:1" />
  <line
     x1="40"
     y1="259"
     x2="105"
     y2="259"
     id="line7775"
     style="fill:none;stroke:#000000;stroke-width:1" />
  <line
     x1="40"
     y1="239"
     x2="40"
     y2="259"
     id="line7777"
     style="fill:none;stroke:#000000;stroke-width:1" />
  <line
     x1="105"
     y1="239"
     x2="115"
     y2="249"
     id="line7779"
     style="fill:none;stroke:#000000;stroke-width:1" />
  <line
     x1="105"
     y1="259"
     x2="115"
     y2="249"
     id="line7781"
     style="fill:none;stroke:#000000;stroke-width:1" />
  <text
     x="45"
     y="254"
     style="font-size:12px;font-family:SansSerif"
     id="text7783">chout(m1)</text>
  <rect
     x="27"
     y="310"
     width="100"
     height="50"
     rx="5"
     ry="5"
     id="rect7785"
     style="fill:#c1daf1" />
  <rect
     x="27"
     y="310"
     width="100"
     height="50"
     rx="5"
     ry="5"
     id="rect7787"
     style="fill:none;stroke:#000000;stroke-width:1" />
  <text
     x="32"
     y="325"
     style="font-size:12px;font-family:SansSerif"
     id="text7789">beforeFinish</text>
  <line
     x1="27"
     y1="327"
     x2="127"
     y2="327"
     id="line7791"
     style="fill:none;stroke:#000000;stroke-width:1" />
  <line
     x1="77"
     y1="24"
     x2="77"
     y2="46"
     id="line7793"
     style="fill:none;stroke:#000000;stroke-width:1" />
  <polygon
     points="411,83 407,92 402,83 "
     id="polygon7795"
     transform="translate(-330,-46)"
     style="fill:#000000" />
  <polygon
     points="411,83 407,92 402,83 "
     id="polygon7797"
     transform="translate(-330,-46)"
     style="fill:none;stroke:#000000;stroke-width:1" />
  <line
     x1="77"
     y1="86"
     x2="77"
     y2="165"
     id="line7799"
     style="fill:none;stroke:#000000;stroke-width:1" />
  <polygon
     points="411,202 407,211 402,202 "
     id="polygon7801"
     transform="translate(-330,-46)"
     style="fill:#000000" />
  <polygon
     points="411,202 407,211 402,202 "
     id="polygon7803"
     transform="translate(-330,-46)"
     style="fill:none;stroke:#000000;stroke-width:1" />
  <text
     x="85"
     y="116"
     style="font-size:12px;font-family:SansSerif"
     id="text7805">m.data = secretData</text>
  <text
     x="85"
     y="131"
     style="font-size:12px;font-family:SansSerif"
     id="text7807">m1 = sencrypt(m, sk)</text>
  <line
     x1="77"
     y1="205"
     x2="77"
     y2="234"
     id="line7809"
     style="fill:none;stroke:#000000;stroke-width:1" />
  <polygon
     points="411,271 407,280 402,271 "
     id="polygon7811"
     transform="translate(-330,-46)"
     style="fill:#000000" />
  <polygon
     points="411,271 407,280 402,271 "
     id="polygon7813"
     transform="translate(-330,-46)"
     style="fill:none;stroke:#000000;stroke-width:1" />
  <line
     x1="77"
     y1="360"
     x2="77"
     y2="405"
     id="line7815"
     style="fill:none;stroke:#000000;stroke-width:1" />
  <polygon
     points="411,442 407,451 402,442 "
     id="polygon7817"
     transform="translate(-330,-46)"
     style="fill:#000000" />
  <polygon
     points="411,442 407,451 402,442 "
     id="polygon7819"
     transform="translate(-330,-46)"
     style="fill:none;stroke:#000000;stroke-width:1" />
  <line
     x1="77"
     y1="264"
     x2="77"
     y2="310"
     id="line7821"
     style="fill:none;stroke:#000000;stroke-width:1" />
  <polygon
     points="411,347 407,356 402,347 "
     id="polygon7823"
     transform="translate(-330,-46)"
     style="fill:#000000" />
  <polygon
     points="411,347 407,356 402,347 "
     id="polygon7825"
     transform="translate(-330,-46)"
     style="fill:none;stroke:#000000;stroke-width:1" />
</svg>
