<?xml version="1.0" encoding="UTF-8" standalone="no"?>
<svg
   xmlns:dc="http://purl.org/dc/elements/1.1/"
   xmlns:cc="http://creativecommons.org/ns#"
   xmlns:rdf="http://www.w3.org/1999/02/22-rdf-syntax-ns#"
   xmlns:svg="http://www.w3.org/2000/svg"
   xmlns="http://www.w3.org/2000/svg"
   xmlns:sodipodi="http://sodipodi.sourceforge.net/DTD/sodipodi-0.dtd"
   xmlns:inkscape="http://www.inkscape.org/namespaces/inkscape"
   style="font-size:12px;font-style:normal;font-weight:normal;fill:#000000;fill-opacity:1;stroke:#000000;stroke-width:1;stroke-linecap:square;stroke-linejoin:miter;stroke-miterlimit:10;stroke-opacity:1;stroke-dasharray:none;stroke-dashoffset:0;font-family:Dialog"
   id="svg2"
   version="1.1"
   inkscape:version="0.48.4 r9939"
   width="222.29492"
   height="242.82289"
   sodipodi:docname="hsmt1.svg">
  <metadata
     id="metadata191">
    <rdf:RDF>
      <cc:Work
         rdf:about="">
        <dc:format>image/svg+xml</dc:format>
        <dc:type
           rdf:resource="http://purl.org/dc/dcmitype/StillImage" />
      </cc:Work>
    </rdf:RDF>
  </metadata>
  <sodipodi:namedview
     pagecolor="#ffffff"
     bordercolor="#666666"
     borderopacity="1"
     objecttolerance="10"
     gridtolerance="10"
     guidetolerance="10"
     inkscape:pageopacity="0"
     inkscape:pageshadow="2"
     inkscape:window-width="2048"
     inkscape:window-height="1086"
     id="namedview189"
     showgrid="false"
     fit-margin-top="0"
     fit-margin-left="0"
     fit-margin-right="0"
     fit-margin-bottom="0"
     inkscape:zoom="1.7940591"
     inkscape:cx="272.56063"
     inkscape:cy="191.07921"
     inkscape:window-x="0"
     inkscape:window-y="27"
     inkscape:window-maximized="1"
     inkscape:current-layer="g5" />
  <!--Generated by the Batik Graphics2D SVG Generator-->
  <defs
     id="genericDefs">
    <clipPath
       clipPathUnits="userSpaceOnUse"
       id="clipPath1-5">
      <path
         inkscape:connector-curvature="0"
         d="m 0,0 2510,0 0,1770 L 0,1770 0,0 z"
         id="path9-4" />
    </clipPath>
    <clipPath
       clipPathUnits="userSpaceOnUse"
       id="clipPath3266">
      <path
         inkscape:connector-curvature="0"
         d="m 0,0 2510,0 0,1770 L 0,1770 0,0 z"
         id="path3268" />
    </clipPath>
    <clipPath
       clipPathUnits="userSpaceOnUse"
       id="clipPath3270">
      <path
         inkscape:connector-curvature="0"
         d="m 0,0 2510,0 0,1770 L 0,1770 0,0 z"
         id="path3272" />
    </clipPath>
    <clipPath
       clipPathUnits="userSpaceOnUse"
       id="clipPath1-9">
      <path
         inkscape:connector-curvature="0"
         d="m 0,0 2510,0 0,1770 L 0,1770 0,0 z"
         id="path9-5" />
    </clipPath>
    <clipPath
       clipPathUnits="userSpaceOnUse"
       id="clipPath3312">
      <path
         inkscape:connector-curvature="0"
         d="m 0,0 2510,0 0,1770 L 0,1770 0,0 z"
         id="path3314" />
    </clipPath>
  </defs>
  <g
     id="g5"
     transform="translate(-323.31759,-127.64184)">
    <defs
       id="defs1">
      <clipPath
         clipPathUnits="userSpaceOnUse"
         id="clipPath1">
        <path
           d="m 0,0 2510,0 0,1770 L 0,1770 0,0 z"
           id="path9"
           inkscape:connector-curvature="0" />
      </clipPath>
    </defs>
    <polygon
       clip-path="url(#clipPath1)"
       id="polygon19"
       points="418,421 414,430 409,421 "
       style="stroke:none;font-family:sans-serif"
       transform="translate(-19.567548,-82.055525)" />
    <polygon
       clip-path="url(#clipPath1)"
       id="polygon21"
       points="418,421 414,430 409,421 "
       style="fill:none;font-family:sans-serif"
       transform="translate(-19.567548,-82.055525)" />
    <line
       clip-path="url(#clipPath1)"
       id="line35"
       y2="206"
       style="fill:none;stroke-width:1.07584798;font-family:sans-serif"
       y1="186"
       x2="397"
       x1="397"
       transform="matrix(1,0,0,0.86396902,0,25.233746)" />
    <polygon
       clip-path="url(#clipPath1)"
       id="polygon37"
       points="401,197 397,206 392,197 "
       style="stroke:none;font-family:sans-serif" />
    <polygon
       clip-path="url(#clipPath1)"
       id="polygon39"
       points="401,197 397,206 392,197 "
       style="fill:none;font-family:sans-serif" />
    <polygon
       clip-path="url(#clipPath1)"
       id="polygon43"
       points="397,266 392,257 401,257 "
       style="stroke:none;font-family:sans-serif"
       transform="translate(0.19706897,-5.0252588)" />
    <polygon
       clip-path="url(#clipPath1)"
       id="polygon45"
       points="397,266 392,257 401,257 "
       style="fill:none;font-family:sans-serif"
       transform="translate(0.19706897,-5.0252588)" />
    <circle
       sodipodi:ry="7.5"
       sodipodi:rx="7.5"
       sodipodi:cy="58.5"
       sodipodi:cx="414.5"
       d="m 422,58.5 c 0,4.142136 -3.35786,7.5 -7.5,7.5 -4.14214,0 -7.5,-3.357864 -7.5,-7.5 0,-4.142136 3.35786,-7.5 7.5,-7.5 4.14214,0 7.5,3.357864 7.5,7.5 z"
       clip-path="url(#clipPath1)"
       id="circle53"
       cy="58.5"
       cx="414.5"
       r="7.5"
       style="stroke:none;font-family:sans-serif"
       transform="translate(-18.67274,76.641843)" />
    <polygon
       clip-path="url(#clipPath1)"
       id="polygon57"
       points="437,371 447,381 437,391 382,391 382,371 "
       style="fill:#68e5ff;stroke:none;font-family:sans-serif"
       transform="translate(-19.706897,-58.923623)" />
    <line
       clip-path="url(#clipPath1)"
       id="line61"
       y2="396"
       style="fill:none;stroke-width:0.79833925;font-family:sans-serif"
       y1="391"
       x2="414"
       x1="414"
       transform="matrix(1,0,0,1.5690076,-19.706897,-281.1211)" />
    <line
       clip-path="url(#clipPath1)"
       id="line63"
       y2="372"
       style="fill:none;stroke:#68e5ff;font-family:sans-serif"
       y1="372"
       x2="438"
       x1="383"
       transform="translate(-19.706897,-58.923623)" />
    <line
       clip-path="url(#clipPath1)"
       id="line65"
       y2="392"
       style="fill:none;stroke:#68e5ff;font-family:sans-serif"
       y1="392"
       x2="438"
       x1="383"
       transform="translate(-19.706897,-58.923623)" />
    <line
       clip-path="url(#clipPath1)"
       id="line67"
       y2="392"
       style="fill:none;stroke:#68e5ff;font-family:sans-serif"
       y1="372"
       x2="383"
       x1="383"
       transform="translate(-19.706897,-58.923623)" />
    <line
       clip-path="url(#clipPath1)"
       id="line69"
       y2="382"
       style="fill:none;stroke:#68e5ff;font-family:sans-serif"
       y1="372"
       x2="448"
       x1="438"
       transform="translate(-19.706897,-58.923623)" />
    <line
       clip-path="url(#clipPath1)"
       id="line71"
       y2="382"
       style="fill:none;stroke:#68e5ff;font-family:sans-serif"
       y1="392"
       x2="448"
       x1="438"
       transform="translate(-19.706897,-58.923623)" />
    <line
       clip-path="url(#clipPath1)"
       id="line73"
       y2="371"
       style="fill:none;font-family:sans-serif"
       y1="371"
       x2="437"
       x1="382"
       transform="translate(-19.706897,-58.923623)" />
    <line
       clip-path="url(#clipPath1)"
       id="line75"
       y2="391"
       style="fill:none;font-family:sans-serif"
       y1="391"
       x2="437"
       x1="382"
       transform="translate(-19.706897,-58.923623)" />
    <line
       clip-path="url(#clipPath1)"
       id="line77"
       y2="391"
       style="fill:none;font-family:sans-serif"
       y1="371"
       x2="382"
       x1="382"
       transform="translate(-19.706897,-58.923623)" />
    <line
       clip-path="url(#clipPath1)"
       id="line79"
       y2="381"
       style="fill:none;font-family:sans-serif"
       y1="371"
       x2="447"
       x1="437"
       transform="translate(-19.706897,-58.923623)" />
    <line
       clip-path="url(#clipPath1)"
       id="line81"
       y2="381"
       style="fill:none;font-family:sans-serif"
       y1="391"
       x2="447"
       x1="437"
       transform="translate(-19.706897,-58.923623)" />
    <text
       clip-path="url(#clipPath1)"
       id="text83"
       xml:space="preserve"
       style="stroke:none;font-family:sans-serif"
       y="371"
       x="387"
       transform="translate(-24.83069,-60.40164)">chl</text>
    <text
       clip-path="url(#clipPath1)"
       id="text85"
       xml:space="preserve"
       style="stroke:none;font-family:sans-serif"
       y="386"
       x="387"
       transform="translate(-19.706897,-58.923623)">comm(1)</text>
    <text
       clip-path="url(#clipPath1)"
       id="text87"
       xml:space="preserve"
       style="stroke:none;font-family:sans-serif"
       y="402"
       x="430"
       transform="translate(-19.706897,-58.923623)">sec:hsmSec_comm</text>
    <circle
       sodipodi:ry="8"
       sodipodi:rx="8"
       sodipodi:cy="445"
       sodipodi:cx="414"
       d="m 422,445 c 0,4.41828 -3.58172,8 -8,8 -4.41828,0 -8,-3.58172 -8,-8 0,-4.41828 3.58172,-8 8,-8 4.41828,0 8,3.58172 8,8 z"
       clip-path="url(#clipPath1)"
       id="circle89"
       cy="445"
       cx="414"
       r="8"
       style="stroke:none;font-family:sans-serif"
       transform="translate(-19.903966,-85.035262)" />
    <circle
       sodipodi:ry="10"
       sodipodi:rx="10"
       sodipodi:cy="445"
       sodipodi:cx="414"
       d="m 424,445 c 0,5.52285 -4.47715,10 -10,10 -5.52285,0 -10,-4.47715 -10,-10 0,-5.52285 4.47715,-10 10,-10 5.52285,0 10,4.47715 10,10 z"
       clip-path="url(#clipPath1)"
       id="circle91"
       cy="445"
       cx="414"
       r="10"
       style="fill:none;font-family:sans-serif"
       transform="translate(-19.903966,-85.035262)" />
    <polygon
       clip-path="url(#clipPath1)"
       id="polygon95"
       points="335,161 449,161 459,171 449,181 335,181 "
       style="fill:#c4a67a;stroke:none;font-family:sans-serif" />
    <line
       clip-path="url(#clipPath1)"
       id="line97"
       y2="162"
       style="fill:none;stroke:#c4a67a;font-family:sans-serif"
       y1="162"
       x2="450"
       x1="336" />
    <line
       clip-path="url(#clipPath1)"
       id="line99"
       y2="182"
       style="fill:none;stroke:#c4a67a;stroke-width:1.00365508;font-family:sans-serif"
       y1="182"
       x2="450"
       x1="336"
       transform="matrix(0.99272963,0,0,1,2.43921,0)" />
    <line
       clip-path="url(#clipPath1)"
       id="line101"
       y2="182"
       style="fill:none;stroke:#c4a67a;font-family:sans-serif"
       y1="162"
       x2="336"
       x1="336" />
    <line
       clip-path="url(#clipPath1)"
       id="line103"
       y2="172"
       style="fill:none;stroke:#c4a67a;stroke-width:1.03987527;font-family:sans-serif"
       y1="162"
       x2="460"
       x1="450"
       transform="matrix(0.96864652,0,0,0.95471164,14.109067,7.3367147)" />
    <line
       clip-path="url(#clipPath1)"
       id="line105"
       y2="172"
       style="fill:none;stroke:#c4a67a;font-family:sans-serif"
       y1="182"
       x2="460"
       x1="450"
       transform="translate(-0.24386041,-0.38320922)" />
    <line
       clip-path="url(#clipPath1)"
       id="line109"
       y2="186"
       style="fill:none;font-family:sans-serif"
       y1="181"
       x2="397"
       x1="397" />
    <line
       clip-path="url(#clipPath1)"
       id="line111"
       y2="161"
       style="fill:none;font-family:sans-serif"
       y1="161"
       x2="449"
       x1="335" />
    <line
       clip-path="url(#clipPath1)"
       id="line113"
       y2="181"
       style="fill:none;font-family:sans-serif"
       y1="181"
       x2="449"
       x1="335" />
    <line
       clip-path="url(#clipPath1)"
       id="line115"
       y2="181"
       style="fill:none;font-family:sans-serif"
       y1="161"
       x2="335"
       x1="335" />
    <line
       clip-path="url(#clipPath1)"
       id="line117"
       y2="171"
       style="fill:none;font-family:sans-serif"
       y1="161"
       x2="459"
       x1="449" />
    <line
       clip-path="url(#clipPath1)"
       id="line119"
       y2="171"
       style="fill:none;font-family:sans-serif"
       y1="181"
       x2="459"
       x1="449" />
    <text
       clip-path="url(#clipPath1)"
       id="text121"
       xml:space="preserve"
       style="stroke:none;font-family:sans-serif"
       y="161"
       x="340"
       transform="translate(-4.1384484,-1.9706897)">req</text>
    <text
       clip-path="url(#clipPath1)"
       id="text123"
       xml:space="preserve"
       style="stroke:none;font-family:sans-serif"
       y="176"
       x="340">startHSM_CPU1(0)</text>
    <polygon
       clip-path="url(#clipPath1)"
       id="polygon125"
       points="458,221 448,231 337,231 337,211 448,211 "
       style="fill:#68e5ff;stroke:none;font-family:sans-serif"
       transform="translate(-0.19911999,-3.6288701)" />
    <line
       clip-path="url(#clipPath1)"
       id="line129"
       y2="236"
       style="fill:none;stroke-width:0.46477187;font-family:sans-serif"
       y1="231"
       x2="397"
       x1="397"
       transform="matrix(1,0,0,4.6293536,-0.19911999,-840.19487)" />
    <line
       clip-path="url(#clipPath1)"
       id="line131"
       y2="212"
       style="fill:none;stroke:#68e5ff;font-family:sans-serif"
       y1="212"
       x2="449"
       x1="338"
       transform="translate(-0.19911999,-3.6288701)" />
    <line
       clip-path="url(#clipPath1)"
       id="line133"
       y2="232"
       style="fill:none;stroke:#68e5ff;font-family:sans-serif"
       y1="232"
       x2="449"
       x1="338"
       transform="translate(-0.19911999,-3.6288701)" />
    <line
       clip-path="url(#clipPath1)"
       id="line135"
       y2="232"
       style="fill:none;stroke:#68e5ff;font-family:sans-serif"
       y1="212"
       x2="338"
       x1="338"
       transform="translate(-0.19911999,-3.6288701)" />
    <line
       clip-path="url(#clipPath1)"
       id="line137"
       y2="222"
       style="fill:none;stroke:#68e5ff;font-family:sans-serif"
       y1="212"
       x2="459"
       x1="449"
       transform="translate(-0.19911999,-3.6288701)" />
    <line
       clip-path="url(#clipPath1)"
       id="line139"
       y2="222"
       style="fill:none;stroke:#68e5ff;font-family:sans-serif"
       y1="232"
       x2="459"
       x1="449"
       transform="translate(-0.19911999,-3.6288701)" />
    <line
       clip-path="url(#clipPath1)"
       id="line141"
       y2="211"
       style="fill:none;font-family:sans-serif"
       y1="211"
       x2="448"
       x1="337"
       transform="translate(-0.19911999,-3.6288701)" />
    <line
       clip-path="url(#clipPath1)"
       id="line143"
       y2="231"
       style="fill:none;font-family:sans-serif"
       y1="231"
       x2="448"
       x1="337"
       transform="translate(-0.19911999,-3.6288701)" />
    <line
       clip-path="url(#clipPath1)"
       id="line145"
       y2="231"
       style="fill:none;font-family:sans-serif"
       y1="211"
       x2="337"
       x1="337"
       transform="translate(-0.19911999,-3.6288701)" />
    <line
       clip-path="url(#clipPath1)"
       id="line147"
       y2="221"
       style="fill:none;font-family:sans-serif"
       y1="211"
       x2="458"
       x1="448"
       transform="translate(-0.19911999,-3.6288701)" />
    <line
       clip-path="url(#clipPath1)"
       id="line149"
       y2="221"
       style="fill:none;font-family:sans-serif"
       y1="231"
       x2="458"
       x1="448"
       transform="translate(-0.19911999,-3.6288701)" />
    <text
       clip-path="url(#clipPath1)"
       id="text151"
       xml:space="preserve"
       style="stroke:none;font-family:sans-serif"
       y="211"
       x="342"
       transform="translate(-6.3304675,-5.0223582)">chl</text>
    <text
       clip-path="url(#clipPath1)"
       id="text153"
       xml:space="preserve"
       style="stroke:none;font-family:sans-serif"
       y="226"
       x="342"
       transform="translate(-0.19911999,-3.6288701)">data_comm_T1(1)</text>
    <text
       clip-path="url(#clipPath1)"
       id="text155"
       xml:space="preserve"
       style="stroke:none;font-family:sans-serif"
       y="242"
       x="427"
       transform="translate(-0.19911999,-3.6288701)">sec:hsmSec_comm</text>
    <polygon
       clip-path="url(#clipPath1)"
       id="polygon157"
       points="469,271 469,291 325,291 335,281 325,271 "
       style="fill:#68e5ff;stroke:none;font-family:sans-serif"
       transform="translate(-1.1824138,-8.2768968)" />
    <line
       clip-path="url(#clipPath1)"
       id="line161"
       y2="296"
       style="fill:none;stroke-width:0.51465857;font-family:sans-serif"
       y1="291"
       x2="397"
       x1="397"
       transform="matrix(1,0,0,3.775388,-1.1824138,-814.52712)" />
    <line
       clip-path="url(#clipPath1)"
       id="line163"
       y2="272"
       style="fill:none;stroke:#68e5ff;font-family:sans-serif"
       y1="272"
       x2="470"
       x1="326"
       transform="translate(-1.1824138,-8.2768968)" />
    <line
       clip-path="url(#clipPath1)"
       id="line165"
       y2="292"
       style="fill:none;stroke:#68e5ff;font-family:sans-serif"
       y1="272"
       x2="470"
       x1="470"
       transform="translate(-1.1824138,-8.2768968)" />
    <line
       clip-path="url(#clipPath1)"
       id="line167"
       y2="292"
       style="fill:none;stroke:#68e5ff;font-family:sans-serif"
       y1="292"
       x2="470"
       x1="326"
       transform="translate(-1.1824138,-8.2768968)" />
    <line
       clip-path="url(#clipPath1)"
       id="line169"
       y2="282"
       style="fill:none;stroke:#68e5ff;font-family:sans-serif"
       y1="272"
       x2="336"
       x1="326"
       transform="translate(-1.1824138,-8.2768968)" />
    <line
       clip-path="url(#clipPath1)"
       id="line171"
       y2="282"
       style="fill:none;stroke:#68e5ff;font-family:sans-serif"
       y1="292"
       x2="336"
       x1="326"
       transform="translate(-1.1824138,-8.2768968)" />
    <line
       clip-path="url(#clipPath1)"
       id="line173"
       y2="271"
       style="fill:none;font-family:sans-serif"
       y1="271"
       x2="469"
       x1="325"
       transform="translate(-1.1824138,-8.2768968)" />
    <line
       clip-path="url(#clipPath1)"
       id="line175"
       y2="291"
       style="fill:none;font-family:sans-serif"
       y1="271"
       x2="469"
       x1="469"
       transform="translate(-1.1824138,-8.2768968)" />
    <line
       clip-path="url(#clipPath1)"
       id="line177"
       y2="291"
       style="fill:none;font-family:sans-serif"
       y1="291"
       x2="469"
       x1="325"
       transform="translate(-1.1824138,-8.2768968)" />
    <line
       clip-path="url(#clipPath1)"
       id="line179"
       y2="281"
       style="fill:none;font-family:sans-serif"
       y1="271"
       x2="335"
       x1="325"
       transform="translate(-1.1824138,-8.2768968)" />
    <line
       clip-path="url(#clipPath1)"
       id="line181"
       y2="281"
       style="fill:none;font-family:sans-serif"
       y1="291"
       x2="335"
       x1="325"
       transform="translate(-1.1824138,-8.2768968)" />
    <text
       clip-path="url(#clipPath1)"
       id="text183"
       xml:space="preserve"
       style="stroke:none;font-family:sans-serif"
       y="271"
       x="330"
       transform="translate(-4.3355173,-9.5578451)">chl</text>
    <text
       clip-path="url(#clipPath1)"
       id="text185"
       xml:space="preserve"
       style="stroke:none;font-family:sans-serif"
       y="286"
       x="337"
       transform="translate(-1.1824138,-8.2768968)">retData_comm_T1(1) </text>
    <text
       clip-path="url(#clipPath1)"
       id="text187"
       xml:space="preserve"
       style="stroke:none;font-family:sans-serif"
       y="302"
       x="433"
       transform="translate(-1.1824138,-8.2768968)">sec:hsmSec_comm</text>
    <line
       transform="matrix(1,0,0,0.75131773,-1.1796429,-0.18168117)"
       clip-path="url(#clipPath1-5)"
       id="line35-4"
       y2="206"
       style="font-size:12px;font-style:normal;font-weight:normal;fill:none;stroke:#000000;stroke-width:1.15368748;stroke-linecap:square;stroke-linejoin:miter;stroke-miterlimit:10;stroke-opacity:1;stroke-dasharray:none;stroke-dashoffset:0;font-family:sans-serif"
       y1="186"
       x2="397"
       x1="397" />
    <polygon
       transform="translate(-1.1796429,-46.312243)"
       clip-path="url(#clipPath1-5)"
       id="polygon37-3"
       points="397,206 392,197 401,197 "
       style="font-size:12px;font-style:normal;font-weight:normal;fill:#000000;fill-opacity:1;stroke:none;font-family:sans-serif" />
    <polygon
       transform="translate(-1.1796429,-46.312243)"
       clip-path="url(#clipPath1-5)"
       id="polygon39-7"
       points="397,206 392,197 401,197 "
       style="font-size:12px;font-style:normal;font-weight:normal;fill:none;stroke:#000000;stroke-width:1;stroke-linecap:square;stroke-linejoin:miter;stroke-miterlimit:10;stroke-opacity:1;stroke-dasharray:none;stroke-dashoffset:0;font-family:sans-serif" />
    <polygon
       clip-path="url(#clipPath1-9)"
       id="polygon43-9"
       points="392,257 401,257 397,266 "
       style="font-size:12px;font-style:normal;font-weight:normal;fill:#000000;fill-opacity:1;stroke:none;font-family:sans-serif"
       transform="translate(-1.2781769,44.561986)" />
    <polygon
       clip-path="url(#clipPath1-9)"
       id="polygon45-0"
       points="392,257 401,257 397,266 "
       style="font-size:12px;font-style:normal;font-weight:normal;fill:none;stroke:#000000;stroke-width:1;stroke-linecap:square;stroke-linejoin:miter;stroke-miterlimit:10;stroke-opacity:1;stroke-dasharray:none;stroke-dashoffset:0;font-family:sans-serif"
       transform="translate(-1.2781769,44.561986)" />
  </g>
</svg>
