<?xml version="1.0" encoding="UTF-8" standalone="no"?>
<!-- Created with Inkscape (http://www.inkscape.org/) -->
<svg
   xmlns:dc="http://purl.org/dc/elements/1.1/"
   xmlns:cc="http://creativecommons.org/ns#"
   xmlns:rdf="http://www.w3.org/1999/02/22-rdf-syntax-ns#"
   xmlns:svg="http://www.w3.org/2000/svg"
   xmlns="http://www.w3.org/2000/svg"
   xmlns:sodipodi="http://sodipodi.sourceforge.net/DTD/sodipodi-0.dtd"
   xmlns:inkscape="http://www.inkscape.org/namespaces/inkscape"
   width="269.41467"
   height="90.239998"
   id="svg2"
   sodipodi:version="0.32"
   inkscape:version="0.46"
   version="1.0"
   sodipodi:docname="logo.svg"
   inkscape:output_extension="org.inkscape.output.svg.inkscape">
  <defs
     id="defs4">
    <inkscape:perspective
       sodipodi:type="inkscape:persp3d"
       inkscape:vp_x="0 : 526.18109 : 1"
       inkscape:vp_y="0 : 1000 : 0"
       inkscape:vp_z="744.09448 : 526.18109 : 1"
       inkscape:persp3d-origin="372.04724 : 350.78739 : 1"
       id="perspective10" />
  </defs>
  <sodipodi:namedview
     id="base"
     pagecolor="#ffffff"
     bordercolor="#666666"
     borderopacity="1.0"
     gridtolerance="10000"
     guidetolerance="10"
     objecttolerance="10"
     inkscape:pageopacity="0.0"
     inkscape:pageshadow="2"
     inkscape:zoom="3.2912532"
     inkscape:cx="134.70734"
     inkscape:cy="57.61882"
     inkscape:document-units="px"
     inkscape:current-layer="layer1"
     showgrid="false"
     inkscape:window-width="1680"
     inkscape:window-height="990"
     inkscape:window-x="-5"
     inkscape:window-y="-3">
    <inkscape:grid
       type="xygrid"
       id="grid3167"
       visible="true"
       enabled="true" />
  </sodipodi:namedview>
  <metadata
     id="metadata7">
    <rdf:RDF>
      <cc:Work
         rdf:about="">
        <dc:format>image/svg+xml</dc:format>
        <dc:type
           rdf:resource="http://purl.org/dc/dcmitype/StillImage" />
      </cc:Work>
    </rdf:RDF>
  </metadata>
  <g
     inkscape:label="Layer 1"
     inkscape:groupmode="layer"
     id="layer1"
     transform="translate(-120,-147.36218)">
    <path
       transform="matrix(1.7191533,0,0,1.3841391,-4.3949069,-56.637856)"
       style="fill:#0038a6;fill-opacity:1;stroke:none;stroke-width:4;stroke-miterlimit:4;stroke-dasharray:16, 16;stroke-dashoffset:0;stroke-opacity:1"
       d="M 124.70959,179.89525 C 124.70959,197.84142 112.98288,212.40644 98.533913,212.40644 C 84.08494,212.40644 72.358238,197.84142 72.358238,179.89525 C 72.358238,161.94907 84.08494,147.38406 98.533913,147.38406 C 112.98288,147.38406 124.70959,161.94907 124.70959,179.89525 z"
       id="path2391" />
    <path
       transform="scale(1.0059454,0.9940898)"
       style="font-size:73.99445343px;font-style:italic;font-variant:normal;font-weight:bold;font-stretch:normal;fill:#0038a6;fill-opacity:1;stroke:none;stroke-width:1px;stroke-linecap:butt;stroke-linejoin:miter;stroke-opacity:1;font-family:URW Chancery L;-inkscape-font-specification:URW Chancery L Bold Italic"
       d="M 209.85595,196.45614 C 212.96372,194.90226 214.36961,194.3103 215.25755,194.3103 C 215.8495,194.3103 216.29347,194.90226 216.29347,195.7162 C 216.29347,196.67813 215.55352,199.85989 214.22162,204.89151 C 212.37176,211.77299 211.9278,213.84484 211.9278,215.99068 C 211.9278,218.06252 212.81573,219.61641 213.99964,219.61641 C 215.10956,219.61641 216.44146,218.95046 220.14118,216.50864 L 227.76261,211.55101 C 227.17065,213.91883 226.72669,216.58264 226.72669,217.91454 C 226.72669,218.87646 227.31864,219.61641 228.05859,219.61641 C 229.53847,219.61641 236.56795,215.47271 241.59957,211.699 L 242.11753,209.47917 C 236.34597,212.88291 234.42211,213.91883 233.60817,213.91883 C 233.09021,213.91883 232.79423,213.32688 232.79423,212.14297 C 232.79423,208.36925 235.53203,197.34407 238.71379,187.94678 C 237.75186,188.46474 237.08591,188.83472 236.78993,188.9827 C 235.902,189.42667 235.01406,189.87064 234.05214,190.3146 C 233.83015,190.3886 233.38619,190.61058 232.57225,191.05455 C 232.12828,192.75642 230.64839,198.67599 228.20658,208.88721 C 222.50901,212.80891 219.9192,214.28881 219.03126,214.28881 C 218.21733,214.28881 217.62537,213.25288 217.62537,211.84699 C 217.62537,210.14512 218.21733,207.18533 219.47523,202.44969 C 220.28917,199.48992 220.80713,197.41807 221.02911,196.38215 C 221.69506,193.64436 222.21303,191.7205 222.36101,191.20254 C 222.583,190.3886 222.73099,189.72265 222.73099,189.20469 C 222.73099,188.61273 222.36101,188.24276 221.84305,188.24276 C 221.10311,188.24276 215.70151,191.12855 210.37391,194.45829 L 209.85595,196.45614 M 264.75521,209.33118 C 259.13164,212.66093 256.76381,213.91883 255.72789,213.91883 C 254.76596,213.91883 253.58205,211.99498 253.58205,210.4411 C 253.58205,209.40517 254.83996,203.70759 256.76381,195.93818 C 257.79973,195.86419 258.53968,195.86419 258.90965,195.86419 L 261.86943,195.79019 C 262.16541,195.79019 262.90535,195.7162 264.08926,195.56821 L 266.90105,193.42237 L 257.42976,193.42237 L 260.38954,181.43527 C 258.98365,182.17521 258.39169,182.3972 257.28177,182.91516 C 256.76381,183.21114 256.17185,183.43312 255.5799,183.7291 C 255.28392,183.87709 254.91395,184.02508 254.54398,184.17306 L 252.47213,193.42237 C 251.80618,193.49637 251.36222,193.49637 251.14023,193.49637 L 249.36437,193.49637 C 249.21638,193.49637 248.8464,193.49637 248.25445,193.57036 C 247.44051,194.08832 247.36651,194.08832 246.10861,195.12424 C 245.88663,195.27223 245.51665,195.56821 244.99869,195.93818 L 246.77456,195.93818 L 250.1783,195.93818 L 251.80618,195.93818 C 247.88448,212.36494 247.88448,212.36495 247.88448,214.65878 C 247.88448,217.0266 249.43836,219.61641 250.84425,219.61641 C 252.47213,219.61641 257.50376,216.50864 264.60722,211.18104 L 264.75521,209.33118 M 289.71447,208.51724 C 284.16489,213.32687 280.61314,215.39872 277.80136,215.39872 C 275.9515,215.39872 274.39761,214.14082 273.87965,212.21696 C 273.58367,211.03305 273.50968,210.21911 273.50968,208.07327 C 276.83943,206.00143 279.05927,204.44754 283.42494,201.19179 C 287.42063,198.15802 288.97452,195.7162 288.97452,192.38645 C 288.97452,189.79665 287.34664,188.24276 284.75684,188.24276 C 283.12896,188.24276 281.94505,188.61273 280.24318,189.57466 C 277.43139,191.20254 274.91557,193.20039 273.36169,194.97625 C 270.5499,198.38 268.03409,206.5194 268.03409,212.51294 C 268.03409,216.87861 270.32792,219.61641 274.10164,219.61641 C 278.4673,219.61641 283.86891,216.50863 289.71447,210.66308 L 289.71447,208.51724 M 273.73166,205.40947 C 274.98957,197.49207 278.39332,191.35053 281.57508,191.35053 C 282.83298,191.35053 283.64692,192.60843 283.64692,194.3843 C 283.64692,198.08402 281.64906,200.30386 273.73166,205.40947 M 293.18064,219.46842 C 293.99458,219.17244 294.73453,218.87646 294.95651,218.80247 C 295.40048,218.65448 296.14042,218.4325 296.95436,218.13652 C 297.17634,218.06252 297.84229,217.84054 298.58224,217.61856 L 301.46802,204.44754 L 303.16989,203.41162 L 307.31358,213.0309 C 310.49534,220.57833 312.4192,223.61211 315.45297,225.97993 C 318.63473,228.42175 323.2224,229.97563 327.1441,229.97563 C 330.54784,229.97563 332.98966,229.23568 335.20949,227.38583 L 333.7296,222.05822 C 331.36178,226.05392 329.21594,227.60781 326.10818,227.60781 C 322.92642,227.60781 319.74465,225.09199 317.22884,220.57834 C 315.74895,217.76655 315.74894,217.76653 307.31358,199.93388 L 312.27121,195.42022 C 315.15699,192.83042 316.04493,192.31245 317.45082,192.31245 C 318.70873,192.31245 319.59666,192.90441 320.78057,194.45829 L 324.55429,188.83472 C 323.1484,187.7248 322.03848,187.35483 320.4106,187.35483 C 318.48675,187.35483 317.15484,188.02078 314.93501,190.09262 C 312.56719,192.31245 312.49319,192.46044 311.75325,193.12639 L 302.20797,201.63576 L 305.01976,190.3146 C 307.38758,180.54735 308.20152,178.17951 309.45942,176.10767 C 310.79132,173.96183 312.71518,172.92591 315.23099,172.92591 C 315.97093,172.92591 316.4889,172.9999 317.8208,173.22189 L 320.78057,168.93021 C 319.81865,168.78222 319.30068,168.70822 318.63474,168.70822 C 315.97094,168.70822 314.19507,169.30018 311.90124,171.00205 C 307.1656,174.3318 303.83584,177.58756 302.87392,179.7334 C 302.13397,181.36127 300.72808,186.24491 299.76615,190.53659 L 293.18064,219.46842 M 348.26605,194.82827 C 348.71002,193.27438 349.89393,188.83471 351.81778,181.58326 C 351.89178,181.28728 352.11376,180.25136 352.40974,178.84546 L 355.29552,176.40365 C 353.37167,176.32965 352.03977,176.25566 351.00384,176.25566 C 343.75239,176.25566 338.72076,177.58756 334.72506,180.54734 C 330.72937,183.50711 328.9535,186.91086 328.9535,191.57251 C 328.9535,192.68243 329.10149,193.49637 329.61945,195.27223 L 335.16903,193.42237 C 334.50308,191.05455 334.2811,189.94463 334.2811,188.31675 C 334.2811,184.24706 335.98297,181.21329 339.01674,179.95538 C 340.79261,179.21544 342.56848,178.99345 347.15613,178.99345 C 346.04622,182.69317 345.97222,182.91517 342.93845,194.97625 L 340.27465,197.78804 L 342.1985,197.93603 C 338.64677,211.69899 337.01888,213.69685 329.10149,213.69685 C 328.06556,213.69685 327.10363,213.69685 325.17978,213.54886 L 321.70204,218.3585 C 323.32992,218.58049 324.06986,218.65448 325.32777,218.65448 C 327.69559,218.65448 329.54545,218.4325 331.02534,217.91454 C 333.24517,217.24859 337.0189,214.2888 340.8666,210.29311 C 344.78831,206.22342 345.0103,205.77944 347.45211,198.08402 C 356.62741,197.49207 359.29123,197.34408 363.43491,197.27008 C 363.06494,198.82396 362.76896,199.85989 362.69497,200.30386 C 359.5872,211.77298 358.40329,216.73063 358.40329,217.91454 C 358.40329,218.72847 359.14323,219.46842 360.03117,219.46842 C 360.54913,219.46842 361.28907,219.32043 362.10301,219.09845 C 364.02687,218.58049 364.39685,218.50649 373.27617,216.87861 L 374.60807,215.02875 C 370.61238,215.39872 369.42846,215.47272 367.6526,215.47272 C 366.09871,215.47272 365.21078,214.73277 365.21078,213.47487 C 365.21078,211.18104 365.21078,211.18103 368.83651,197.19609 C 370.16841,192.09048 372.83221,182.54518 374.01612,178.84546 C 375.644,173.66586 376.90191,172.33395 380.00967,172.33395 C 381.48956,172.33395 382.3035,172.48194 383.93138,173.0739 L 386.44719,169.0042 C 385.04129,168.56024 384.44934,168.48624 383.11744,168.48624 C 380.00967,168.48624 376.75391,170.55809 371.94427,175.6637 C 368.9845,178.84546 367.94857,180.76932 366.69067,185.35698 L 364.69282,192.53444 C 364.69282,192.60843 364.32285,193.86634 364.02687,194.82827 L 348.26605,194.82827"
       id="text2383" />
    <path
       transform="scale(1.0059454,0.9940898)"
       style="font-size:73.99445343px;font-style:italic;font-variant:normal;font-weight:bold;font-stretch:normal;fill:#ffffff;fill-opacity:1;stroke:none;stroke-width:1px;stroke-linecap:butt;stroke-linejoin:miter;stroke-opacity:1;font-family:URW Chancery L;-inkscape-font-specification:URW Chancery L Bold Italic"
       d="M 128.5529,218.65448 C 129.8848,218.72847 130.99472,218.72847 131.73466,218.72847 C 137.50622,218.72847 141.35394,217.0266 144.5357,213.1049 C 146.90352,210.07113 147.79146,208.22126 149.56733,202.15372 C 150.38126,199.19394 153.11906,189.13069 154.37697,184.02508 C 156.96677,210.73705 157.04077,211.32904 157.18875,217.24859 L 160.81448,214.4368 C 163.40429,208.88722 168.36193,201.19177 180.571,183.80309 L 179.83106,187.05885 C 179.60907,188.16876 179.01712,190.3886 178.12918,193.64435 C 173.83751,209.62714 172.94957,213.0309 172.80158,213.40087 C 172.20963,215.10274 171.83966,216.65663 171.83966,217.69255 C 171.83966,218.72847 172.6536,219.61641 173.61552,219.61641 C 173.9855,219.61641 174.42946,219.54241 175.02142,219.46842 C 175.76136,219.32043 180.12704,218.58049 181.9769,218.28451 L 185.45464,217.84054 C 185.67662,217.76655 186.26858,217.69255 187.2305,217.54456 L 188.78439,215.6947 C 187.52648,215.7687 186.34257,215.84269 185.9726,215.91669 C 184.71469,215.99068 183.53078,216.06467 182.93882,216.06467 C 180.571,216.06467 179.2391,214.95476 179.2391,213.1049 C 179.2391,211.18104 179.3131,210.73707 181.23695,202.89366 C 184.41871,190.01864 184.6407,189.13069 186.04659,184.09907 C 189.00637,173.81385 189.37634,172.9999 191.3002,172.9999 C 191.96615,172.9999 192.92808,173.0739 193.89,173.29588 C 194.11199,173.36987 194.99992,173.51786 195.88785,173.66585 L 198.92163,169.52216 C 197.58973,169.15219 196.84978,169.0782 195.96185,169.0782 C 194.03799,169.0782 192.41011,169.67015 189.74631,171.22404 C 185.60263,173.59186 184.86268,174.25781 182.19888,178.03153 L 172.20963,191.94248 L 163.84826,204.07757 L 161.99839,206.74137 C 161.03647,195.49423 159.11261,179.14144 158.15068,173.96183 L 155.85685,175.81169 C 153.04507,175.44172 151.63917,175.36772 149.8633,175.36772 C 144.90568,175.36772 141.94589,176.62563 138.46816,180.25136 C 134.47246,184.24706 132.10463,188.98271 132.10463,192.75642 C 132.10463,194.90226 132.5486,196.82612 133.80651,199.56391 L 139.43009,195.6422 C 137.65422,191.7945 137.06226,189.94463 137.06226,187.79879 C 137.06226,182.98916 140.688,180.32535 147.12551,180.32535 C 148.82738,180.32535 150.0113,180.39935 152.45311,180.76932 C 149.19736,194.01431 145.20165,207.85129 143.86975,210.21911 C 142.46386,212.80892 140.61399,213.91883 137.43224,213.91883 C 136.17433,213.91883 136.17433,213.91883 131.95665,213.54886 L 128.5529,218.65448"
       id="text3163" />
  </g>
</svg>
