<?xml version="1.0" encoding="UTF-8" standalone="no"?>
<svg
   xmlns:dc="http://purl.org/dc/elements/1.1/"
   xmlns:cc="http://creativecommons.org/ns#"
   xmlns:rdf="http://www.w3.org/1999/02/22-rdf-syntax-ns#"
   xmlns:svg="http://www.w3.org/2000/svg"
   xmlns="http://www.w3.org/2000/svg"
   xmlns:sodipodi="http://sodipodi.sourceforge.net/DTD/sodipodi-0.dtd"
   xmlns:inkscape="http://www.inkscape.org/namespaces/inkscape"
   style="font-size:12px;font-style:normal;font-weight:normal;fill:#000000;fill-opacity:1;stroke:#000000;stroke-width:1;stroke-linecap:square;stroke-linejoin:miter;stroke-miterlimit:10;stroke-opacity:1;stroke-dasharray:none;stroke-dashoffset:0;font-family:Dialog"
   id="svg2"
   version="1.1"
   inkscape:version="0.48.4 r9939"
   width="530.06403"
   height="423.05258"
   sodipodi:docname="latencycheckpoint.svg">
  <metadata
     id="metadata409">
    <rdf:RDF>
      <cc:Work
         rdf:about="">
        <dc:format>image/svg+xml</dc:format>
        <dc:type
           rdf:resource="http://purl.org/dc/dcmitype/StillImage" />
      </cc:Work>
    </rdf:RDF>
  </metadata>
  <sodipodi:namedview
     pagecolor="#ffffff"
     bordercolor="#666666"
     borderopacity="1"
     objecttolerance="10"
     gridtolerance="10"
     guidetolerance="10"
     inkscape:pageopacity="0"
     inkscape:pageshadow="2"
     inkscape:window-width="2048"
     inkscape:window-height="1086"
     id="namedview407"
     showgrid="false"
     fit-margin-top="0"
     fit-margin-left="0"
     fit-margin-right="0"
     fit-margin-bottom="0"
     inkscape:zoom="0.63429569"
     inkscape:cx="-638.33908"
     inkscape:cy="370.1195"
     inkscape:window-x="0"
     inkscape:window-y="27"
     inkscape:window-maximized="1"
     inkscape:current-layer="g15" />
  <!--Generated by the Batik Graphics2D SVG Generator-->
  <defs
     id="genericDefs">
    <defs
       id="defs1">
      <clipPath
         id="clipPath1"
         clipPathUnits="userSpaceOnUse">
        <path
           id="path9"
           d="m 0,0 1759,0 0,1410 L 0,1410 0,0 z"
           inkscape:connector-curvature="0" />
      </clipPath>
    </defs>
    <clipPath
       id="clipPath1-4"
       clipPathUnits="userSpaceOnUse">
      <path
         inkscape:connector-curvature="0"
         id="path9-6"
         d="m 0,0 1759,0 0,1410 L 0,1410 0,0 z" />
    </clipPath>
    <clipPath
       id="clipPath1-9"
       clipPathUnits="userSpaceOnUse">
      <path
         inkscape:connector-curvature="0"
         id="path9-5"
         d="m 0,0 1759,0 0,1410 L 0,1410 0,0 z" />
    </clipPath>
    <clipPath
       id="clipPath3623"
       clipPathUnits="userSpaceOnUse">
      <path
         inkscape:connector-curvature="0"
         id="path3625"
         d="m 0,0 1759,0 0,1410 L 0,1410 0,0 z" />
    </clipPath>
    <clipPath
       id="clipPath3627"
       clipPathUnits="userSpaceOnUse">
      <path
         inkscape:connector-curvature="0"
         id="path3629"
         d="m 0,0 1759,0 0,1410 L 0,1410 0,0 z" />
    </clipPath>
    <clipPath
       id="clipPath1-2"
       clipPathUnits="userSpaceOnUse">
      <path
         inkscape:connector-curvature="0"
         id="path9-56"
         d="m 0,0 1759,0 0,1410 L 0,1410 0,0 z" />
    </clipPath>
    <clipPath
       id="clipPath3669"
       clipPathUnits="userSpaceOnUse">
      <path
         inkscape:connector-curvature="0"
         id="path3671"
         d="m 0,0 1759,0 0,1410 L 0,1410 0,0 z" />
    </clipPath>
    <clipPath
       id="clipPath3673"
       clipPathUnits="userSpaceOnUse">
      <path
         inkscape:connector-curvature="0"
         id="path3675"
         d="m 0,0 1759,0 0,1410 L 0,1410 0,0 z" />
    </clipPath>
  </defs>
  <g
     id="g15"
     style="fill:#c1daf1;stroke:#c1daf1;font-family:sans-serif"
     transform="translate(-17.5,-291.61827)">
    <line
       clip-path="url(#clipPath1-9)"
       id="line313-5"
       y2="275"
       style="font-size:12px;font-style:normal;font-weight:normal;fill:none;stroke:#000000;stroke-width:1.55847013;stroke-linecap:square;stroke-linejoin:miter;stroke-miterlimit:10;stroke-opacity:1;stroke-dasharray:none;stroke-dashoffset:0;font-family:sans-serif"
       y1="235"
       x2="277"
       x1="273"
       transform="matrix(0.99547903,0.03910594,-0.09498163,0.40985969,48.82634,237.83607)" />
    <polygon
       clip-path="url(#clipPath1-9)"
       id="polygon315-6"
       points="281,265 277,275 271,266 "
       style="font-size:12px;font-style:normal;font-weight:normal;fill:#000000;fill-opacity:1;stroke:none;font-family:sans-serif"
       transform="matrix(0.99547903,0.09498163,-0.09498163,0.99547903,48.756666,69.119257)" />
    <polygon
       clip-path="url(#clipPath1-9)"
       id="polygon317-0"
       points="281,265 277,275 271,266 "
       style="font-size:12px;font-style:normal;font-weight:normal;fill:none;stroke:#000000;stroke-width:1;stroke-linecap:square;stroke-linejoin:miter;stroke-miterlimit:10;stroke-opacity:1;stroke-dasharray:none;stroke-dashoffset:0;font-family:sans-serif"
       transform="matrix(0.99547903,0.09498163,-0.09498163,0.99547903,48.756666,69.119257)" />
    <rect
       clip-path="url(#clipPath1)"
       id="rect17"
       height="354"
       ry="2.5"
       rx="2.5"
       style="stroke:none"
       width="577"
       y="370"
       x="18"
       transform="matrix(0.91692203,0,0,0.8051578,1.4954035,72.091615)" />
    <rect
       clip-path="url(#clipPath1)"
       id="rect19"
       height="354"
       ry="2.5"
       rx="2.5"
       style="fill:none;stroke:#000000;stroke-width:1.16384006"
       width="577"
       y="370"
       x="18"
       transform="matrix(0.91692203,0,0,0.8051578,1.4954035,72.091615)" />
    <text
       clip-path="url(#clipPath1)"
       id="text21"
       xml:space="preserve"
       style="font-weight:bold;fill:#000000;stroke:none"
       y="385"
       x="273"
       transform="translate(-10.108238,-3.1592567)">Beverage</text>
    <line
       clip-path="url(#clipPath1)"
       id="line23"
       y2="387"
       style="fill:none;stroke:#000000;stroke-width:1.04432046"
       y1="387"
       x2="595"
       x1="18"
       transform="matrix(0.91692203,0,0,1,1.4954035,0)" />
    <line
       clip-path="url(#clipPath1)"
       id="line29"
       y2="501"
       style="fill:none;stroke:#80b4cd"
       y1="501"
       x2="499"
       x1="368" />
    <line
       clip-path="url(#clipPath1)"
       id="line33"
       y2="521"
       style="fill:none;stroke:#80b4cd"
       y1="501"
       x2="368"
       x1="368" />
    <line
       clip-path="url(#clipPath1)"
       id="line35"
       y2="511"
       style="fill:none;stroke:#80b4cd"
       y1="501"
       x2="509"
       x1="499" />
    <line
       clip-path="url(#clipPath1)"
       id="line37"
       y2="511"
       style="fill:none;stroke:#80b4cd"
       y1="521"
       x2="509"
       x1="499" />
    <line
       clip-path="url(#clipPath1)"
       id="line39"
       y2="500"
       style="fill:none;stroke:#000000"
       y1="500"
       x2="498"
       x1="367" />
    <line
       clip-path="url(#clipPath1)"
       id="line41"
       y2="520"
       style="fill:none;stroke:#000000"
       y1="520"
       x2="498"
       x1="367" />
    <line
       clip-path="url(#clipPath1)"
       id="line43"
       y2="520"
       style="fill:none;stroke:#000000"
       y1="500"
       x2="367"
       x1="367" />
    <line
       clip-path="url(#clipPath1)"
       id="line45"
       y2="510"
       style="fill:none;stroke:#000000"
       y1="500"
       x2="508"
       x1="498" />
    <line
       clip-path="url(#clipPath1)"
       id="line47"
       y2="510"
       style="fill:none;stroke:#000000"
       y1="520"
       x2="508"
       x1="498" />
    <text
       clip-path="url(#clipPath1)"
       id="text49"
       xml:space="preserve"
       style="fill:#000000;stroke:none"
       y="515"
       x="372">ejectCoin(nbOfCoins)</text>
    <text
       clip-path="url(#clipPath1)"
       id="text51"
       xml:space="preserve"
       style="font-weight:bold;fill:#000000;stroke:none"
       y="498"
       x="489">R</text>
    <text
       clip-path="url(#clipPath1)"
       id="text53"
       xml:space="preserve"
       style="font-weight:bold;fill:#ff0000;stroke:none"
       y="499"
       x="490">R</text>
    <text
       clip-path="url(#clipPath1)"
       id="text55"
       xml:space="preserve"
       style="font-weight:bold;fill:#000000;stroke:none"
       y="498"
       x="497">L</text>
    <text
       clip-path="url(#clipPath1)"
       id="text57"
       xml:space="preserve"
       style="font-weight:bold;fill:#ff0000;stroke:none"
       y="499"
       x="498">L</text>
    <line
       clip-path="url(#clipPath1)"
       id="line63"
       y2="528"
       style="fill:none;stroke:#80b4cd"
       y1="528"
       x2="193"
       x1="52" />
    <line
       clip-path="url(#clipPath1)"
       id="line65"
       y2="548"
       style="fill:none;stroke:#80b4cd"
       y1="528"
       x2="193"
       x1="193" />
    <line
       clip-path="url(#clipPath1)"
       id="line69"
       y2="538"
       style="fill:none;stroke:#80b4cd"
       y1="528"
       x2="62"
       x1="52" />
    <line
       clip-path="url(#clipPath1)"
       id="line71"
       y2="538"
       style="fill:none;stroke:#80b4cd"
       y1="548"
       x2="62"
       x1="52" />
    <line
       clip-path="url(#clipPath1)"
       id="line73"
       y2="527"
       style="fill:none;stroke:#000000"
       y1="527"
       x2="192"
       x1="51" />
    <line
       clip-path="url(#clipPath1)"
       id="line75"
       y2="547"
       style="fill:none;stroke:#000000"
       y1="527"
       x2="192"
       x1="192" />
    <line
       clip-path="url(#clipPath1)"
       id="line77"
       y2="547"
       style="fill:none;stroke:#000000"
       y1="547"
       x2="192"
       x1="51" />
    <line
       clip-path="url(#clipPath1)"
       id="line79"
       y2="537"
       style="fill:none;stroke:#000000"
       y1="527"
       x2="61"
       x1="51" />
    <line
       clip-path="url(#clipPath1)"
       id="line81"
       y2="537"
       style="fill:none;stroke:#000000"
       y1="547"
       x2="61"
       x1="51" />
    <text
       clip-path="url(#clipPath1)"
       id="text83"
       xml:space="preserve"
       style="fill:#000000;stroke:none"
       y="542"
       x="63">pushCoffeeButton()</text>
    <text
       clip-path="url(#clipPath1)"
       id="text85"
       xml:space="preserve"
       style="font-weight:bold;fill:#000000;stroke:none"
       y="525"
       x="173">R</text>
    <text
       clip-path="url(#clipPath1)"
       id="text87"
       xml:space="preserve"
       style="font-weight:bold;fill:#00e800;stroke:none"
       y="526"
       x="174">R</text>
    <text
       clip-path="url(#clipPath1)"
       id="text89"
       xml:space="preserve"
       style="font-weight:bold;fill:#000000;stroke:none"
       y="525"
       x="181">L</text>
    <text
       clip-path="url(#clipPath1)"
       id="text91"
       xml:space="preserve"
       style="font-weight:bold;fill:#404040;stroke:none"
       y="526"
       x="182">L</text>
    <circle
       sodipodi:ry="7.5"
       sodipodi:rx="7.5"
       sodipodi:cy="406.5"
       sodipodi:cx="256.5"
       clip-path="url(#clipPath1)"
       id="circle93"
       cy="406.5"
       cx="256.5"
       r="7.5"
       style="fill:#000000;stroke:none"
       transform="translate(42.961036,-1.5765518)"
       d="m 264,406.5 c 0,4.14214 -3.35786,7.5 -7.5,7.5 -4.14214,0 -7.5,-3.35786 -7.5,-7.5 0,-4.14214 3.35786,-7.5 7.5,-7.5 4.14214,0 7.5,3.35786 7.5,7.5 z" />
    <line
       clip-path="url(#clipPath1)"
       id="line95"
       y2="419"
       style="fill:none;stroke:#000000;stroke-width:0.65273952"
       y1="414"
       x2="256"
       x1="256"
       transform="matrix(1,0,0,2.3470385,42.961036,-559.13435)" />
    <rect
       clip-path="url(#clipPath1)"
       id="rect97"
       height="40"
       ry="2.5"
       rx="2.5"
       style="fill:#c1dafb;stroke:none"
       width="132"
       y="435"
       x="189"
       transform="matrix(1.0654517,0,0,1,21.951036,-1.5765518)" />
    <rect
       clip-path="url(#clipPath1)"
       id="rect99"
       height="40"
       ry="2.5"
       rx="2.5"
       style="fill:none;stroke:#000000;stroke-width:0.96640682"
       width="132"
       y="435"
       x="189"
       transform="matrix(1.0707301,0,0,1,20.256682,-1.5765518)" />
    <text
       clip-path="url(#clipPath1)"
       id="text101"
       xml:space="preserve"
       style="font-weight:bold;fill:#000000;stroke:none"
       y="450"
       x="183"
       transform="translate(42.961036,-1.5765518)">WaitingForSelection</text>
    <line
       clip-path="url(#clipPath1)"
       id="line103"
       y2="452"
       style="fill:none;stroke:#000000;stroke-width:0.96879774"
       y1="452"
       x2="321"
       x1="189"
       transform="matrix(1.0654517,0,0,1,21.951036,-1.5765518)" />
    <line
       clip-path="url(#clipPath1)"
       id="line109"
       y2="528"
       style="fill:none;stroke:#80b4cd"
       y1="528"
       x2="356"
       x1="232" />
    <line
       clip-path="url(#clipPath1)"
       id="line111"
       y2="548"
       style="fill:none;stroke:#80b4cd"
       y1="528"
       x2="356"
       x1="356" />
    <line
       clip-path="url(#clipPath1)"
       id="line113"
       y2="548"
       style="fill:none;stroke:#80b4cd"
       y1="548"
       x2="356"
       x1="232" />
    <line
       clip-path="url(#clipPath1)"
       id="line115"
       y2="538"
       style="fill:none;stroke:#80b4cd"
       y1="528"
       x2="242"
       x1="232" />
    <line
       clip-path="url(#clipPath1)"
       id="line117"
       y2="538"
       style="fill:none;stroke:#80b4cd"
       y1="548"
       x2="242"
       x1="232" />
    <line
       clip-path="url(#clipPath1)"
       id="line119"
       y2="527"
       style="fill:none;stroke:#000000"
       y1="527"
       x2="355"
       x1="231" />
    <line
       clip-path="url(#clipPath1)"
       id="line121"
       y2="547"
       style="fill:none;stroke:#000000"
       y1="527"
       x2="355"
       x1="355" />
    <line
       clip-path="url(#clipPath1)"
       id="line123"
       y2="547"
       style="fill:none;stroke:#000000"
       y1="547"
       x2="355"
       x1="231" />
    <line
       clip-path="url(#clipPath1)"
       id="line125"
       y2="537"
       style="fill:none;stroke:#000000"
       y1="527"
       x2="241"
       x1="231" />
    <line
       clip-path="url(#clipPath1)"
       id="line127"
       y2="537"
       style="fill:none;stroke:#000000"
       y1="547"
       x2="241"
       x1="231" />
    <text
       clip-path="url(#clipPath1)"
       id="text129"
       xml:space="preserve"
       style="fill:#000000;stroke:none"
       y="542"
       x="243">pushTeaButton()</text>
    <text
       clip-path="url(#clipPath1)"
       id="text131"
       xml:space="preserve"
       style="font-weight:bold;fill:#000000;stroke:none"
       y="525"
       x="336">R</text>
    <text
       clip-path="url(#clipPath1)"
       id="text133"
       xml:space="preserve"
       style="font-weight:bold;fill:#00e800;stroke:none"
       y="526"
       x="337">R</text>
    <text
       clip-path="url(#clipPath1)"
       id="text135"
       xml:space="preserve"
       style="font-weight:bold;fill:#000000;stroke:none"
       y="525"
       x="344">L</text>
    <text
       clip-path="url(#clipPath1)"
       id="text137"
       xml:space="preserve"
       style="font-weight:bold;fill:#404040;stroke:none"
       y="526"
       x="345">L</text>
    <text
       clip-path="url(#clipPath1)"
       id="text139"
       xml:space="preserve"
       style="font-weight:bold;fill:#000000;stroke:none"
       y="368"
       x="576"
       transform="translate(-46.508277,-2.7589656)">R</text>
    <text
       clip-path="url(#clipPath1)"
       id="text141"
       xml:space="preserve"
       style="font-weight:bold;fill:#ff0000;stroke:none"
       y="369"
       x="577"
       transform="translate(-46.508277,-2.7589656)">R</text>
    <text
       clip-path="url(#clipPath1)"
       id="text143"
       xml:space="preserve"
       style="font-weight:bold;fill:#000000;stroke:none"
       y="368"
       x="584"
       transform="translate(-46.508277,-2.7589656)">L</text>
    <text
       clip-path="url(#clipPath1)"
       id="text145"
       xml:space="preserve"
       style="font-weight:bold;fill:#ff0000;stroke:none"
       y="369"
       x="585"
       transform="translate(-46.508277,-2.7589656)">L</text>
    <rect
       clip-path="url(#clipPath1)"
       id="rect155"
       height="40"
       ry="2.5"
       rx="2.5"
       style="stroke:none"
       width="137"
       y="748"
       x="221"
       transform="matrix(1.02848,0,0,1,-14.42824,-73.829139)" />
    <rect
       clip-path="url(#clipPath1)"
       id="rect157"
       height="40"
       ry="2.5"
       rx="2.5"
       style="fill:none;stroke:#000000;stroke-width:0.9860571"
       width="137"
       y="748"
       x="221"
       transform="matrix(1.02848,0,0,1,-14.42824,-73.829139)" />
    <text
       clip-path="url(#clipPath1)"
       id="text159"
       xml:space="preserve"
       style="font-weight:bold;fill:#000000;stroke:none"
       y="763"
       x="219"
       transform="translate(-4.2323832,-73.829139)">WaitingForFirstCoin</text>
    <line
       clip-path="url(#clipPath1)"
       id="line161"
       y2="765"
       style="fill:none;stroke:#000000;stroke-width:0.9860571"
       y1="765"
       x2="358"
       x1="221"
       transform="matrix(1.02848,0,0,1,-14.42824,-73.829139)" />
    <polygon
       clip-path="url(#clipPath1)"
       id="polygon163"
       points="209,748 217,753 209,758 "
       style="fill:#0000ff;stroke:none"
       transform="translate(-8.2734983,-71.32086)" />
    <line
       clip-path="url(#clipPath1)"
       id="line165"
       y2="768"
       style="fill:none;stroke:#000000"
       y1="748"
       x2="209"
       x1="209"
       transform="translate(-8.2734983,-71.32086)" />
    <line
       clip-path="url(#clipPath1)"
       id="line167"
       y2="753"
       style="fill:none;stroke:#000000"
       y1="748"
       x2="217"
       x1="209"
       transform="translate(-8.2734983,-71.32086)" />
    <line
       clip-path="url(#clipPath1)"
       id="line169"
       y2="753"
       style="fill:none;stroke:#000000"
       y1="758"
       x2="217"
       x1="209"
       transform="translate(-8.2734983,-71.32086)" />
    <line
       clip-path="url(#clipPath1)"
       id="line203"
       y2="281"
       style="fill:none;stroke:#80b4cd"
       y1="281"
       x2="319"
       x1="237"
       transform="translate(20.592214,43.150313)" />
    <line
       clip-path="url(#clipPath1)"
       id="line205"
       y2="301"
       style="fill:none;stroke:#80b4cd"
       y1="281"
       x2="319"
       x1="319"
       transform="translate(20.592214,43.150313)" />
    <line
       clip-path="url(#clipPath1)"
       id="line207"
       y2="301"
       style="fill:none;stroke:#80b4cd"
       y1="301"
       x2="319"
       x1="237"
       transform="translate(20.592214,43.150313)" />
    <line
       clip-path="url(#clipPath1)"
       id="line209"
       y2="291"
       style="fill:none;stroke:#80b4cd"
       y1="281"
       x2="247"
       x1="237"
       transform="translate(20.592214,43.150313)" />
    <line
       clip-path="url(#clipPath1)"
       id="line211"
       y2="291"
       style="fill:none;stroke:#80b4cd"
       y1="301"
       x2="247"
       x1="237"
       transform="translate(20.592214,43.150313)" />
    <line
       clip-path="url(#clipPath1)"
       id="line213"
       y2="280"
       style="fill:none;stroke:#000000"
       y1="280"
       x2="318"
       x1="236"
       transform="translate(20.592214,43.150313)" />
    <line
       clip-path="url(#clipPath1)"
       id="line215"
       y2="300"
       style="fill:none;stroke:#000000"
       y1="280"
       x2="318"
       x1="318"
       transform="translate(20.592214,43.150313)" />
    <line
       clip-path="url(#clipPath1)"
       id="line217"
       y2="300"
       style="fill:none;stroke:#000000"
       y1="300"
       x2="318"
       x1="236"
       transform="translate(20.592214,43.150313)" />
    <line
       clip-path="url(#clipPath1)"
       id="line219"
       y2="290"
       style="fill:none;stroke:#000000"
       y1="280"
       x2="246"
       x1="236"
       transform="translate(20.592214,43.150313)" />
    <line
       clip-path="url(#clipPath1)"
       id="line221"
       y2="290"
       style="fill:none;stroke:#000000"
       y1="300"
       x2="246"
       x1="236"
       transform="translate(20.592214,43.150313)" />
    <text
       clip-path="url(#clipPath1)"
       id="text223"
       xml:space="preserve"
       style="fill:#000000;stroke:none"
       y="295"
       x="248"
       transform="translate(20.592214,43.150313)">getCoin(x)</text>
    <text
       clip-path="url(#clipPath1)"
       id="text225"
       xml:space="preserve"
       style="font-weight:bold;fill:#000000;stroke:none"
       y="278"
       x="299"
       transform="translate(20.592214,43.150313)">R</text>
    <text
       clip-path="url(#clipPath1)"
       id="text227"
       xml:space="preserve"
       style="font-weight:bold;fill:#00e800;stroke:none"
       y="279"
       x="300"
       transform="translate(20.592214,43.150313)">R</text>
    <text
       clip-path="url(#clipPath1)"
       id="text229"
       xml:space="preserve"
       style="font-weight:bold;fill:#000000;stroke:none"
       y="278"
       x="307"
       transform="translate(20.592214,43.150313)">L</text>
    <text
       clip-path="url(#clipPath1)"
       id="text231"
       xml:space="preserve"
       style="font-weight:bold;fill:#404040;stroke:none"
       y="279"
       x="308"
       transform="translate(20.592214,43.150313)">L</text>
    <polygon
       clip-path="url(#clipPath1)"
       id="polygon233"
       points="232,285 224,290 224,280 "
       style="fill:#0000ff;stroke:none"
       transform="translate(20.592214,43.150313)" />
    <line
       clip-path="url(#clipPath1)"
       id="line235"
       y2="300"
       style="fill:none;stroke:#000000"
       y1="280"
       x2="224"
       x1="224"
       transform="translate(20.592214,43.150313)" />
    <line
       clip-path="url(#clipPath1)"
       id="line237"
       y2="285"
       style="fill:none;stroke:#000000"
       y1="280"
       x2="232"
       x1="224"
       transform="translate(20.592214,43.150313)" />
    <line
       clip-path="url(#clipPath1)"
       id="line239"
       y2="285"
       style="fill:none;stroke:#000000"
       y1="290"
       x2="232"
       x1="224"
       transform="translate(20.592214,43.150313)" />
    <line
       clip-path="url(#clipPath1)"
       id="line313"
       y2="275"
       style="fill:none;stroke:#000000;stroke-width:1.55847013"
       y1="235"
       x2="277"
       x1="273"
       transform="matrix(0.99547903,0.03910594,-0.09498163,0.40985969,48.720749,189.6844)" />
    <polygon
       clip-path="url(#clipPath1)"
       id="polygon315"
       points="271,266 281,265 277,275 "
       style="fill:#000000;stroke:none"
       transform="matrix(0.99547903,0.09498163,-0.09498163,0.99547903,48.720749,21.734009)" />
    <polygon
       clip-path="url(#clipPath1)"
       id="polygon317"
       points="271,266 281,265 277,275 "
       style="fill:none;stroke:#000000"
       transform="matrix(0.99547903,0.09498163,-0.09498163,0.99547903,48.720749,21.734009)" />
    <polygon
       clip-path="url(#clipPath1)"
       id="polygon345"
       points="250,426 260,426 255,435 "
       style="fill:#000000;stroke:none"
       transform="translate(43.797129,-3.1093887)" />
    <polygon
       clip-path="url(#clipPath1)"
       id="polygon347"
       points="250,426 260,426 255,435 "
       style="fill:none;stroke:#000000"
       transform="translate(43.797129,-3.1093887)" />
    <line
       clip-path="url(#clipPath1)"
       id="line349"
       y2="522"
       style="fill:none;stroke:#000000;stroke-width:0.98073441"
       y1="475"
       x2="121"
       x1="222"
       transform="matrix(1.0188733,-0.09751862,0.09827718,1.011009,-50.7992,7.7384624)" />
    <polygon
       clip-path="url(#clipPath1)"
       id="polygon351"
       points="126,513 130,522 121,522 "
       style="fill:#000000;stroke:none"
       transform="matrix(0.99538026,-0.09601112,0.09601112,0.99538026,-51.010639,17.980572)" />
    <polygon
       clip-path="url(#clipPath1)"
       id="polygon353"
       points="126,513 130,522 121,522 "
       style="fill:none;stroke:#000000"
       transform="matrix(0.99538026,-0.09601112,0.09601112,0.99538026,-51.010639,17.980572)" />
    <line
       clip-path="url(#clipPath1)"
       id="line355"
       y2="748"
       style="fill:none;stroke:#000000;stroke-width:1.39377868"
       y1="552"
       x2="255"
       x1="121"
       transform="matrix(0.84089278,0,0,0.61216952,19.350508,209.74691)" />
    <polygon
       clip-path="url(#clipPath1)"
       id="polygon357"
       points="254,738 255,748 245,743 "
       style="fill:#000000;stroke:none"
       transform="translate(-16.750863,-75.181812)" />
    <polygon
       clip-path="url(#clipPath1)"
       id="polygon359"
       points="254,738 255,748 245,743 "
       style="fill:none;stroke:#000000"
       transform="translate(-16.750863,-75.181812)" />
    <text
       clip-path="url(#clipPath1)"
       id="text361"
       xml:space="preserve"
       style="fill:#694b0b;stroke:none"
       y="587"
       x="32">after (coffeeMinDelay,coffeeMaxDelay)</text>
    <text
       clip-path="url(#clipPath1)"
       id="text363"
       xml:space="preserve"
       style="fill:#7710f3;stroke:none"
       y="602"
       x="32">nbOfCoins = 0</text>
    <text
       clip-path="url(#clipPath1)"
       id="text365"
       xml:space="preserve"
       style="fill:#7710f3;stroke:none"
       y="617"
       x="32">beverageReady()</text>
    <line
       clip-path="url(#clipPath1)"
       id="line373"
       y2="748"
       style="fill:none;stroke:#000000;stroke-width:6.07575417"
       y1="552"
       x2="289"
       x1="293"
       transform="matrix(-0.04511605,0,0,0.60043863,305.20564,217.36251)" />
    <polygon
       clip-path="url(#clipPath1)"
       id="polygon375"
       points="284,739 294,739 289,748 "
       style="fill:#000000;stroke:none"
       transform="translate(3.1531035,-75.083278)" />
    <polygon
       clip-path="url(#clipPath1)"
       id="polygon377"
       points="284,739 294,739 289,748 "
       style="fill:none;stroke:#000000"
       transform="translate(3.1531035,-75.083278)" />
    <text
       clip-path="url(#clipPath1)"
       id="text379"
       xml:space="preserve"
       style="fill:#694b0b;stroke:none"
       y="594"
       x="284"
       transform="translate(11.035862,8.6710348)">after (teaMinDelay,teaMaxDelay)</text>
    <text
       clip-path="url(#clipPath1)"
       id="text381"
       xml:space="preserve"
       style="fill:#7710f3;stroke:none"
       y="609"
       x="284"
       transform="translate(11.035862,8.6710348)">nbOfCoins = 0</text>
    <text
       clip-path="url(#clipPath1)"
       id="text383"
       xml:space="preserve"
       style="fill:#7710f3;stroke:none"
       y="624"
       x="284"
       transform="translate(11.035862,8.6710348)">beverageReady()</text>
    <line
       clip-path="url(#clipPath1)"
       id="line385"
       y2="495"
       style="fill:none;stroke:#000000;stroke-width:1.42803943"
       y1="455"
       x2="437"
       x1="321"
       transform="matrix(0.58289926,0,0,0.84125193,177.04744,80.113122)" />
    <polygon
       clip-path="url(#clipPath1)"
       id="polygon387"
       points="427,496 430,487 437,495 "
       style="fill:#000000;stroke:none"
       transform="matrix(0.93419784,0.35675538,-0.35675538,0.93419784,203.28409,-119.54698)" />
    <polygon
       clip-path="url(#clipPath1)"
       id="polygon389"
       points="427,496 430,487 437,495 "
       style="fill:none;stroke:#000000"
       transform="matrix(0.93419784,0.35675538,-0.35675538,0.93419784,203.28409,-119.54698)" />
    <text
       clip-path="url(#clipPath1)"
       id="text391"
       xml:space="preserve"
       style="fill:#694b0b;stroke:none"
       y="448"
       x="395"
       transform="translate(-19.312759,20.101035)">after (coinDelay)</text>
    <line
       clip-path="url(#clipPath1)"
       id="line393"
       y2="748"
       style="fill:none;stroke:#000000;stroke-width:1.41437519"
       y1="525"
       x2="323"
       x1="437"
       transform="matrix(0.75683764,0,0,0.66049275,104.6854,175.0882)" />
    <polygon
       clip-path="url(#clipPath1)"
       id="polygon395"
       points="331,742 323,748 322,738 "
       style="fill:#000000;stroke:none"
       transform="translate(24.436552,-75.083278)" />
    <polygon
       clip-path="url(#clipPath1)"
       id="polygon397"
       points="331,742 323,748 322,738 "
       style="fill:none;stroke:#000000"
       transform="translate(24.436552,-75.083278)" />
    <text
       clip-path="url(#clipPath1)"
       id="text399"
       xml:space="preserve"
       style="fill:#7710f3;stroke:none"
       y="552"
       x="420"
       transform="translate(7.2461379,6.6887427)">nbOfCoins = 0</text>
    <text
       transform="translate(44.442105,-1.89345)"
       clip-path="url(#clipPath1-4)"
       id="text223-2"
       xml:space="preserve"
       style="font-size:12px;font-style:normal;font-weight:normal;fill:#000000;fill-opacity:1;stroke:none;font-family:sans-serif"
       y="295"
       x="248">...</text>
    <line
       clip-path="url(#clipPath1-2)"
       id="line313-53"
       y2="275"
       style="font-size:12px;font-style:normal;font-weight:normal;fill:none;stroke:#000000;stroke-width:0.96735489;stroke-linecap:square;stroke-linejoin:miter;stroke-miterlimit:10;stroke-opacity:1;stroke-dasharray:none;stroke-dashoffset:0;font-family:sans-serif"
       y1="235"
       x2="277"
       x1="273"
       transform="matrix(0.99547903,0.10150047,-0.09498163,1.0638013,42.915765,196.70673)" />
    <polygon
       clip-path="url(#clipPath1-2)"
       id="polygon315-2"
       points="277,275 271,266 281,265 "
       style="font-size:12px;font-style:normal;font-weight:normal;fill:#000000;fill-opacity:1;stroke:none;font-family:sans-serif"
       transform="matrix(0.99547903,0.09498163,-0.09498163,0.99547903,42.915765,225.87356)" />
    <polygon
       clip-path="url(#clipPath1-2)"
       id="polygon317-3"
       points="277,275 271,266 281,265 "
       style="font-size:12px;font-style:normal;font-weight:normal;fill:none;stroke:#000000;stroke-width:1;stroke-linecap:square;stroke-linejoin:miter;stroke-miterlimit:10;stroke-opacity:1;stroke-dasharray:none;stroke-dashoffset:0;font-family:sans-serif"
       transform="matrix(0.99547903,0.09498163,-0.09498163,0.99547903,42.915765,225.87356)" />
    <line
       clip-path="url(#clipPath1)"
       id="line31"
       y2="521"
       style="fill:none;stroke:#80b4cd"
       y1="521"
       x2="499"
       x1="368" />
    <line
       clip-path="url(#clipPath1)"
       id="line67"
       y2="548"
       style="fill:none;stroke:#80b4cd"
       y1="548"
       x2="193"
       x1="52" />
  </g>
</svg>
