<?xml version="1.0" standalone="no"?>
<!DOCTYPE svg PUBLIC "-//W3C//DTD SVG 1.1//EN" "http://www.w3.org/Graphics/SVG/1.1/DTD/svg11.dtd">
<svg xmlns="http://www.w3.org/2000/svg" version="1.1">
<rect  x="143" y="90" width="250" height="89" fill="none" stroke="#000000" stroke-width="1"/>
<rect  x="144" y="91" width="248" height="87" fill="#c1daf1"/>
<text  x="231" y="105" style="font-size:12; font-family:Dialog; font-weight=bold; fill=#000000">&lt;&lt;block&gt;&gt;</text>
<text  x="249" y="120" style="font-size:12; font-family:Dialog; fill=#000000">Block0</text>
<line  x1="143" y1="122" x2="393" y2="122" stroke="#000000" stroke-width="1" fill="none"/>
<text  x="150" y="134" style="font-size:10; font-family:Dialog; fill=#000000">- x = 5 : int;</text>
<line  x1="143" y1="137" x2="393" y2="137" stroke="#000000" stroke-width="1" fill="none"/>
<text  x="150" y="152" style="font-size:10; font-family:Dialog; fill=#000000">~ out sig1(int x)</text>
<text  x="150" y="164" style="font-size:10; font-family:Dialog; fill=#000000">~ out sig2(int x)</text>
<rect  x="487" y="90" width="250" height="89" fill="none" stroke="#000000" stroke-width="1"/>
<rect  x="488" y="91" width="248" height="87" fill="#c1daf1"/>
<text  x="575" y="105" style="font-size:12; font-family:Dialog; font-weight=bold; fill=#000000">&lt;&lt;block&gt;&gt;</text>
<text  x="593" y="120" style="font-size:12; font-family:Dialog; fill=#000000">Block1</text>
<line  x1="487" y1="122" x2="737" y2="122" stroke="#000000" stroke-width="1" fill="none"/>
<text  x="494" y="134" style="font-size:10; font-family:Dialog; fill=#000000">- x : int;</text>
<line  x1="487" y1="137" x2="737" y2="137" stroke="#000000" stroke-width="1" fill="none"/>
<text  x="494" y="152" style="font-size:10; font-family:Dialog; fill=#000000">~ in sig1(int x)</text>
<text  x="494" y="164" style="font-size:10; font-family:Dialog; fill=#000000">~ in sig2(int x)</text>
<rect  x="482" y="129" width="9" height="9" fill="#ffffff"/>
<rect  x="388" y="129" width="9" height="9" fill="#ffffff"/>
<rect  x="482" y="129" width="10" height="10" fill="none" stroke="#000000" stroke-width="1"/>
<rect  x="388" y="129" width="10" height="10" fill="none" stroke="#000000" stroke-width="1"/>
<line  x1="398" y1="134" x2="482" y2="134" stroke="#000000" stroke-width="1" fill="none"/>
</svg>