<?xml version="1.0" standalone="no"?>
<!DOCTYPE svg PUBLIC "-//W3C//DTD SVG 1.1//EN" "http://www.w3.org/Graphics/SVG/1.1/DTD/svg11.dtd">
<svg xmlns="http://www.w3.org/2000/svg" version="1.1">
<ellipse  cx="407" cy="57" rx="7" ry="7" fill="#000000"/>
<line  x1="407" y1="65" x2="407" y2="70" stroke="#000000" stroke-width="1" fill="none"/>
<rect  x="369" y="98" width="100" height="50" rx="5" ry="5" fill="#c1daf1"/>
<rect  x="369" y="98" width="100" height="50" rx="5" ry="5" fill="none" stroke="#000000" stroke-width="1"/>
<text  x="398" y="113" style="font-size:12; font-family:Dialog.bold; font-weight=bold; fill=#000000">Active</text>
<line  x1="369" y1="115" x2="469" y2="115" stroke="#000000" stroke-width="1" fill="none"/>
<line  x1="419" y1="184" x2="419" y2="179" stroke="#000000" stroke-width="1" fill="none"/>
<line  x1="419" y1="204" x2="419" y2="209" stroke="#000000" stroke-width="1" fill="none"/>
<line  x1="395" y1="185" x2="445" y2="185" stroke="#80b4cd" stroke-width="1" fill="none"/>
<line  x1="445" y1="185" x2="445" y2="205" stroke="#80b4cd" stroke-width="1" fill="none"/>
<line  x1="395" y1="205" x2="445" y2="205" stroke="#80b4cd" stroke-width="1" fill="none"/>
<line  x1="395" y1="185" x2="405" y2="195" stroke="#80b4cd" stroke-width="1" fill="none"/>
<line  x1="395" y1="205" x2="405" y2="195" stroke="#80b4cd" stroke-width="1" fill="none"/>
<line  x1="394" y1="184" x2="444" y2="184" stroke="#000000" stroke-width="1" fill="none"/>
<line  x1="444" y1="184" x2="444" y2="204" stroke="#000000" stroke-width="1" fill="none"/>
<line  x1="394" y1="204" x2="444" y2="204" stroke="#000000" stroke-width="1" fill="none"/>
<line  x1="394" y1="184" x2="404" y2="194" stroke="#000000" stroke-width="1" fill="none"/>
<line  x1="394" y1="204" x2="404" y2="194" stroke="#000000" stroke-width="1" fill="none"/>
<text  x="406" y="199" style="font-size:12; font-family:Dialog.plain; fill=#000000">ring()</text>
<line  x1="407" y1="70" x2="419" y2="98" stroke="#000000" stroke-width="1" fill="none"/>
<polygon  points="419,98 410,92 420,88 " fill="#000000"/>
<polygon  points="419,98 410,92 420,88 " fill="none" stroke="#000000" stroke-width="1"/>
<line  x1="419" y1="148" x2="419" y2="179" stroke="#000000" stroke-width="1" fill="none"/>
<polygon  points="419,179 414,170 423,170 " fill="#000000"/>
<polygon  points="419,179 414,170 423,170 " fill="none" stroke="#000000" stroke-width="1"/>
<line  x1="419" y1="209" x2="412" y2="243" stroke="#000000" stroke-width="1" fill="none"/>
<line  x1="412" y1="243" x2="332" y2="243" stroke="#000000" stroke-width="1" fill="none"/>
<line  x1="332" y1="243" x2="332" y2="123" stroke="#000000" stroke-width="1" fill="none"/>
<line  x1="332" y1="123" x2="369" y2="123" stroke="#000000" stroke-width="1" fill="none"/>
<polygon  points="369,123 360,127 360,118 " fill="#000000"/>
<polygon  points="369,123 360,127 360,118 " fill="none" stroke="#000000" stroke-width="1"/>
</svg>