<?xml version="1.0" standalone="no"?>
<!DOCTYPE svg PUBLIC "-//W3C//DTD SVG 1.1//EN" "http://www.w3.org/Graphics/SVG/1.1/DTD/svg11.dtd">
<svg xmlns="http://www.w3.org/2000/svg" version="1.1">
<ellipse  cx="419" cy="116" rx="7" ry="7" fill="#000000"/>
<line  x1="419" y1="124" x2="419" y2="129" stroke="#000000" stroke-width="1" fill="none"/>
<line  x1="419" y1="150" x2="419" y2="145" stroke="#000000" stroke-width="1" fill="none"/>
<line  x1="419" y1="170" x2="419" y2="175" stroke="#000000" stroke-width="1" fill="none"/>
<line  x1="392" y1="151" x2="448" y2="151" stroke="#80b4cd" stroke-width="1" fill="none"/>
<line  x1="448" y1="151" x2="448" y2="171" stroke="#80b4cd" stroke-width="1" fill="none"/>
<line  x1="392" y1="171" x2="448" y2="171" stroke="#80b4cd" stroke-width="1" fill="none"/>
<line  x1="392" y1="151" x2="402" y2="161" stroke="#80b4cd" stroke-width="1" fill="none"/>
<line  x1="392" y1="171" x2="402" y2="161" stroke="#80b4cd" stroke-width="1" fill="none"/>
<line  x1="391" y1="150" x2="447" y2="150" stroke="#000000" stroke-width="1" fill="none"/>
<line  x1="447" y1="150" x2="447" y2="170" stroke="#000000" stroke-width="1" fill="none"/>
<line  x1="391" y1="170" x2="447" y2="170" stroke="#000000" stroke-width="1" fill="none"/>
<line  x1="391" y1="150" x2="401" y2="160" stroke="#000000" stroke-width="1" fill="none"/>
<line  x1="391" y1="170" x2="401" y2="160" stroke="#000000" stroke-width="1" fill="none"/>
<text  x="403" y="165" style="font-size:12; font-family:Dialog; fill=#000000">go_in()</text>
<line  x1="419" y1="206" x2="419" y2="201" stroke="#000000" stroke-width="1" fill="none"/>
<line  x1="419" y1="226" x2="419" y2="231" stroke="#000000" stroke-width="1" fill="none"/>
<line  x1="381" y1="207" x2="449" y2="207" stroke="#80b4cd" stroke-width="1" fill="none"/>
<line  x1="381" y1="227" x2="449" y2="227" stroke="#80b4cd" stroke-width="1" fill="none"/>
<line  x1="381" y1="207" x2="381" y2="227" stroke="#80b4cd" stroke-width="1" fill="none"/>
<line  x1="449" y1="207" x2="459" y2="217" stroke="#80b4cd" stroke-width="1" fill="none"/>
<line  x1="449" y1="227" x2="459" y2="217" stroke="#80b4cd" stroke-width="1" fill="none"/>
<line  x1="380" y1="206" x2="448" y2="206" stroke="#000000" stroke-width="1" fill="none"/>
<line  x1="380" y1="226" x2="448" y2="226" stroke="#000000" stroke-width="1" fill="none"/>
<line  x1="380" y1="206" x2="380" y2="226" stroke="#000000" stroke-width="1" fill="none"/>
<line  x1="448" y1="206" x2="458" y2="216" stroke="#000000" stroke-width="1" fill="none"/>
<line  x1="448" y1="226" x2="458" y2="216" stroke="#000000" stroke-width="1" fill="none"/>
<text  x="385" y="221" style="font-size:12; font-family:Dialog; fill=#000000">done_out(x)</text>
<ellipse  cx="419" cy="261" rx="8" ry="8" fill="#000000"/>
<ellipse  cx="419" cy="261" rx="10" ry="10" fill="none" stroke="#000000" stroke-width="1"/>
<line  x1="419" y1="251" x2="419" y2="246" stroke="#000000" stroke-width="1" fill="none"/>
<line  x1="419" y1="129" x2="419" y2="145" stroke="#000000" stroke-width="1" fill="none"/>
<polygon  points="419,145 414,136 423,136 " fill="#000000"/>
<polygon  points="419,145 414,136 423,136 " fill="none" stroke="#000000" stroke-width="1"/>
<line  x1="419" y1="175" x2="419" y2="201" stroke="#000000" stroke-width="1" fill="none"/>
<polygon  points="419,201 414,192 423,192 " fill="#000000"/>
<polygon  points="419,201 414,192 423,192 " fill="none" stroke="#000000" stroke-width="1"/>
<text  x="422" y="188" style="font-size:12; font-family:Dialog; fill=#7710f3">x = 2</text>
<line  x1="419" y1="231" x2="419" y2="246" stroke="#000000" stroke-width="1" fill="none"/>
<polygon  points="419,246 414,237 423,237 " fill="#000000"/>
<polygon  points="419,246 414,237 423,237 " fill="none" stroke="#000000" stroke-width="1"/>
</svg>