<?xml version="1.0" standalone="no"?>
<!DOCTYPE svg PUBLIC "-//W3C//DTD SVG 1.1//EN" "http://www.w3.org/Graphics/SVG/1.1/DTD/svg11.dtd">
<svg xmlns="http://www.w3.org/2000/svg" version="1.1">
<rect  x="396" y="650" width="798" height="289" fill="none" stroke="#000000" stroke-width="1"/>
<rect  x="397" y="651" width="796" height="287" fill="#c1daf1"/>
<text  x="752" y="665" style="font-size:12; font-family:Dialog.bold; font-weight=bold; fill=#000000">&lt;&lt;block&gt;&gt;</text>
<text  x="771" y="680" style="font-size:12; font-family:Dialog.plain; fill=#000000">CSCU</text>
<line  x1="396" y1="682" x2="1194" y2="682" stroke="#000000" stroke-width="1" fill="none"/>
<rect  x="903" y="707" width="281" height="148" fill="none" stroke="#000000" stroke-width="1"/>
<rect  x="904" y="708" width="279" height="146" fill="#c1dafb"/>
<text  x="1000" y="722" style="font-size:12; font-family:Dialog.bold; font-weight=bold; fill=#000000">&lt;&lt;block&gt;&gt;</text>
<text  x="929" y="737" style="font-size:12; font-family:Dialog.plain; fill=#000000">VehiculeDynamicsManagement</text>
<line  x1="903" y1="739" x2="1184" y2="739" stroke="#000000" stroke-width="1" fill="none"/>
<text  x="910" y="751" style="font-size:10; font-family:Dialog.plain; fill=#000000">- speed : int;</text>
<line  x1="903" y1="754" x2="1184" y2="754" stroke="#000000" stroke-width="1" fill="none"/>
<text  x="910" y="769" style="font-size:10; font-family:Dialog.plain; fill=#000000">~ in updateOnSpeed(int speed)</text>
<text  x="910" y="781" style="font-size:10; font-family:Dialog.plain; fill=#000000">~ out getInfoOnSpeed(int speed)</text>
<rect  x="406" y="695" width="242" height="167" fill="none" stroke="#000000" stroke-width="1"/>
<rect  x="407" y="696" width="240" height="165" fill="#c1dafb"/>
<text  x="484" y="710" style="font-size:12; font-family:Dialog.bold; font-weight=bold; fill=#000000">&lt;&lt;block&gt;&gt;</text>
<text  x="465" y="725" style="font-size:12; font-family:Dialog.plain; fill=#000000">PlausibilityCheck</text>
<line  x1="406" y1="727" x2="648" y2="727" stroke="#000000" stroke-width="1" fill="none"/>
<text  x="413" y="739" style="font-size:10; font-family:Dialog.plain; fill=#000000">- id : int;</text>
<text  x="413" y="751" style="font-size:10; font-family:Dialog.plain; fill=#000000">- position : int;</text>
<text  x="413" y="763" style="font-size:10; font-family:Dialog.plain; fill=#000000">- speed : int;</text>
<text  x="413" y="775" style="font-size:10; font-family:Dialog.plain; fill=#000000">- obstacle : int;</text>
<text  x="413" y="787" style="font-size:10; font-family:Dialog.plain; fill=#000000">- list : NodeList;</text>
<text  x="413" y="799" style="font-size:10; font-family:Dialog.plain; fill=#000000">- currentPosition : int;</text>
<line  x1="406" y1="802" x2="648" y2="802" stroke="#000000" stroke-width="1" fill="none"/>
<text  x="413" y="817" style="font-size:10; font-family:Dialog.plain; fill=#000000">~ emergencyIgnored()</text>
<text  x="413" y="829" style="font-size:10; font-family:Dialog.plain; fill=#000000">~ emergencyTakenIntoAccount()</text>
<text  x="414" y="841" style="font-size:10; font-family:Dialog.plain; fill=#000000">...</text>
<line  x1="406" y1="844" x2="648" y2="844" stroke="#000000" stroke-width="1" fill="none"/>
<rect  x="670" y="704" width="220" height="156" fill="none" stroke="#000000" stroke-width="1"/>
<rect  x="671" y="705" width="218" height="154" fill="#c1dafb"/>
<text  x="737" y="719" style="font-size:12; font-family:Dialog.bold; font-weight=bold; fill=#000000">&lt;&lt;block&gt;&gt;</text>
<text  x="699" y="734" style="font-size:12; font-family:Dialog.plain; fill=#000000">ObjectListManagement</text>
<line  x1="670" y1="736" x2="890" y2="736" stroke="#000000" stroke-width="1" fill="none"/>
<text  x="677" y="748" style="font-size:10; font-family:Dialog.plain; fill=#000000">- obstacle = 0 : int;</text>
<line  x1="670" y1="751" x2="890" y2="751" stroke="#000000" stroke-width="1" fill="none"/>
<text  x="677" y="766" style="font-size:10; font-family:Dialog.plain; fill=#000000">~ in isObstacleAhead(int info)</text>
<text  x="677" y="778" style="font-size:10; font-family:Dialog.plain; fill=#000000">~ out getInfoOnObstacle(int info)</text>
<rect  x="456" y="973" width="704" height="310" fill="none" stroke="#000000" stroke-width="1"/>
<rect  x="457" y="974" width="702" height="308" fill="#c1daf1"/>
<text  x="765" y="988" style="font-size:12; font-family:Dialog.bold; font-weight=bold; fill=#000000">&lt;&lt;block&gt;&gt;</text>
<text  x="789" y="1003" style="font-size:12; font-family:Dialog.plain; fill=#000000">BCU</text>
<line  x1="456" y1="1005" x2="1160" y2="1005" stroke="#000000" stroke-width="1" fill="none"/>
<rect  x="825" y="1023" width="312" height="250" fill="none" stroke="#000000" stroke-width="1"/>
<rect  x="826" y="1024" width="310" height="248" fill="#c1dafb"/>
<text  x="938" y="1038" style="font-size:12; font-family:Dialog.bold; font-weight=bold; fill=#000000">&lt;&lt;block&gt;&gt;</text>
<text  x="909" y="1053" style="font-size:12; font-family:Dialog.plain; fill=#000000">BrakeManagement</text>
<line  x1="825" y1="1055" x2="1137" y2="1055" stroke="#000000" stroke-width="1" fill="none"/>
<text  x="832" y="1067" style="font-size:10; font-family:Dialog.plain; fill=#000000">- value : int;</text>
<text  x="832" y="1079" style="font-size:10; font-family:Dialog.plain; fill=#000000">- deltaBrake = 0 : int;</text>
<text  x="832" y="1091" style="font-size:10; font-family:Dialog.plain; fill=#000000">- brakeMaxDuration : int;</text>
<line  x1="825" y1="1094" x2="1137" y2="1094" stroke="#000000" stroke-width="1" fill="none"/>
<text  x="832" y="1109" style="font-size:10; font-family:Dialog.plain; fill=#000000">~ applyBraking(int value)</text>
<text  x="832" y="1121" style="font-size:10; font-family:Dialog.plain; fill=#000000">~ brakingDone()</text>
<line  x1="825" y1="1124" x2="1137" y2="1124" stroke="#000000" stroke-width="1" fill="none"/>
<text  x="832" y="1139" style="font-size:10; font-family:Dialog.plain; fill=#000000">~ in brake(int value)</text>
<rect  x="465" y="1023" width="312" height="250" fill="none" stroke="#000000" stroke-width="1"/>
<rect  x="466" y="1024" width="310" height="248" fill="#c1dafb"/>
<text  x="578" y="1038" style="font-size:12; font-family:Dialog.bold; font-weight=bold; fill=#000000">&lt;&lt;block&gt;&gt;</text>
<text  x="525" y="1053" style="font-size:12; font-family:Dialog.plain; fill=#000000">DangerAvoidanceStrategy</text>
<line  x1="465" y1="1055" x2="777" y2="1055" stroke="#000000" stroke-width="1" fill="none"/>
<text  x="472" y="1067" style="font-size:10; font-family:Dialog.plain; fill=#000000">- speed : int;</text>
<text  x="472" y="1079" style="font-size:10; font-family:Dialog.plain; fill=#000000">- position : int;</text>
<text  x="472" y="1091" style="font-size:10; font-family:Dialog.plain; fill=#000000">- currentPosition : int;</text>
<text  x="472" y="1103" style="font-size:10; font-family:Dialog.plain; fill=#000000">- carinfo : CarInfo;</text>
<text  x="472" y="1115" style="font-size:10; font-family:Dialog.plain; fill=#000000">- value : int;</text>
<line  x1="465" y1="1118" x2="777" y2="1118" stroke="#000000" stroke-width="1" fill="none"/>
<text  x="472" y="1133" style="font-size:10; font-family:Dialog.plain; fill=#000000">~ in brake(int speed, int currentPosition, int position)</text>
<text  x="472" y="1145" style="font-size:10; font-family:Dialog.plain; fill=#000000">~ out reducePower(int value)</text>
<text  x="472" y="1157" style="font-size:10; font-family:Dialog.plain; fill=#000000">~ out brakePower(int value)</text>
<text  x="472" y="1169" style="font-size:10; font-family:Dialog.plain; fill=#000000">~ out forwardEmergency(int myID, int currentPosition)</text>
<rect  x="25" y="996" width="385" height="289" fill="none" stroke="#000000" stroke-width="1"/>
<rect  x="26" y="997" width="383" height="287" fill="#c1daf1"/>
<text  x="174" y="1011" style="font-size:12; font-family:Dialog.bold; font-weight=bold; fill=#000000">&lt;&lt;block&gt;&gt;</text>
<text  x="203" y="1026" style="font-size:12; font-family:Dialog.plain; fill=#000000">PTC</text>
<line  x1="25" y1="1028" x2="410" y2="1028" stroke="#000000" stroke-width="1" fill="none"/>
<rect  x="50" y="1054" width="312" height="206" fill="none" stroke="#000000" stroke-width="1"/>
<rect  x="51" y="1055" width="310" height="204" fill="#c1dafb"/>
<text  x="163" y="1069" style="font-size:12; font-family:Dialog.bold; font-weight=bold; fill=#000000">&lt;&lt;block&gt;&gt;</text>
<text  x="96" y="1084" style="font-size:12; font-family:Dialog.plain; fill=#000000">DrivingPowerReductionStrategy</text>
<line  x1="50" y1="1086" x2="362" y2="1086" stroke="#000000" stroke-width="1" fill="none"/>
<text  x="57" y="1098" style="font-size:10; font-family:Dialog.plain; fill=#000000">- value : int;</text>
<text  x="57" y="1110" style="font-size:10; font-family:Dialog.plain; fill=#000000">- minReducePowerTime = 10 : int;</text>
<text  x="57" y="1122" style="font-size:10; font-family:Dialog.plain; fill=#000000">- maxReducePowerTime = 20 : int;</text>
<line  x1="50" y1="1125" x2="362" y2="1125" stroke="#000000" stroke-width="1" fill="none"/>
<text  x="57" y="1140" style="font-size:10; font-family:Dialog.plain; fill=#000000">~ applyReducePower(int value)</text>
<text  x="57" y="1152" style="font-size:10; font-family:Dialog.plain; fill=#000000">~ reducePowerDone()</text>
<line  x1="50" y1="1155" x2="362" y2="1155" stroke="#000000" stroke-width="1" fill="none"/>
<text  x="57" y="1170" style="font-size:10; font-family:Dialog.plain; fill=#000000">~ in getReducePowerOrder(int value)</text>
<rect  x="28" y="317" width="790" height="268" fill="none" stroke="#000000" stroke-width="1"/>
<rect  x="29" y="318" width="788" height="266" fill="#c1daf1"/>
<text  x="380" y="332" style="font-size:12; font-family:Dialog.bold; font-weight=bold; fill=#000000">&lt;&lt;block&gt;&gt;</text>
<text  x="375" y="347" style="font-size:12; font-family:Dialog.plain; fill=#000000">Communication</text>
<line  x1="28" y1="349" x2="818" y2="349" stroke="#000000" stroke-width="1" fill="none"/>
<rect  x="596" y="371" width="204" height="184" fill="none" stroke="#000000" stroke-width="1"/>
<rect  x="597" y="372" width="202" height="182" fill="#c1dafb"/>
<text  x="655" y="386" style="font-size:12; font-family:Dialog.bold; font-weight=bold; fill=#000000">&lt;&lt;block&gt;&gt;</text>
<text  x="617" y="401" style="font-size:12; font-family:Dialog.plain; fill=#000000">CorrectnessChecking</text>
<line  x1="596" y1="403" x2="800" y2="403" stroke="#000000" stroke-width="1" fill="none"/>
<text  x="603" y="415" style="font-size:10; font-family:Dialog.plain; fill=#000000">- id : int;</text>
<text  x="603" y="427" style="font-size:10; font-family:Dialog.plain; fill=#000000">- position : int;</text>
<text  x="604" y="439" style="font-size:10; font-family:Dialog.plain; fill=#000000">...</text>
<line  x1="596" y1="442" x2="800" y2="442" stroke="#000000" stroke-width="1" fill="none"/>
<text  x="603" y="457" style="font-size:10; font-family:Dialog.plain; fill=#000000">~ checkingMessage()</text>
<text  x="603" y="469" style="font-size:10; font-family:Dialog.plain; fill=#000000">~ invalidMessage()</text>
<text  x="603" y="481" style="font-size:10; font-family:Dialog.plain; fill=#000000">~ validMessage()</text>
<line  x1="596" y1="484" x2="800" y2="484" stroke="#000000" stroke-width="1" fill="none"/>
<text  x="604" y="499" style="font-size:10; font-family:Dialog.plain; fill=#000000">...</text>
<text  x="604" y="511" style="font-size:10; font-family:Dialog.plain; fill=#000000">...</text>
<rect  x="329" y="383" width="257" height="162" fill="none" stroke="#000000" stroke-width="1"/>
<rect  x="330" y="384" width="255" height="160" fill="#c1dafb"/>
<text  x="414" y="398" style="font-size:12; font-family:Dialog.bold; font-weight=bold; fill=#000000">&lt;&lt;block&gt;&gt;</text>
<text  x="324" y="413" style="font-size:12; font-family:Dialog.plain; fill=#000000">NeighbourhoodTableManagement</text>
<line  x1="329" y1="415" x2="586" y2="415" stroke="#000000" stroke-width="1" fill="none"/>
<text  x="336" y="427" style="font-size:10; font-family:Dialog.plain; fill=#000000">- id : int;</text>
<text  x="336" y="439" style="font-size:10; font-family:Dialog.plain; fill=#000000">- position : int;</text>
<text  x="336" y="451" style="font-size:10; font-family:Dialog.plain; fill=#000000">- time_id : int;</text>
<text  x="336" y="463" style="font-size:10; font-family:Dialog.plain; fill=#000000">- listOfNodes : NodeList;</text>
<text  x="336" y="475" style="font-size:10; font-family:Dialog.plain; fill=#000000">- currentPosition : int;</text>
<line  x1="329" y1="478" x2="586" y2="478" stroke="#000000" stroke-width="1" fill="none"/>
<text  x="336" y="493" style="font-size:10; font-family:Dialog.plain; fill=#000000">~ in addANode(int id, int position)</text>
<text  x="336" y="505" style="font-size:10; font-family:Dialog.plain; fill=#000000">~ in setPosition(int currentPosition)</text>
<text  x="337" y="517" style="font-size:10; font-family:Dialog.plain; fill=#000000">...</text>
<rect  x="40" y="368" width="257" height="185" fill="none" stroke="#000000" stroke-width="1"/>
<rect  x="41" y="369" width="255" height="183" fill="#c1dafb"/>
<text  x="125" y="383" style="font-size:12; font-family:Dialog.bold; font-weight=bold; fill=#000000">&lt;&lt;block&gt;&gt;</text>
<text  x="92" y="398" style="font-size:12; font-family:Dialog.plain; fill=#000000">DSRSC_Management</text>
<line  x1="40" y1="400" x2="297" y2="400" stroke="#000000" stroke-width="1" fill="none"/>
<text  x="47" y="412" style="font-size:10; font-family:Dialog.plain; fill=#000000">- id : int;</text>
<text  x="47" y="424" style="font-size:10; font-family:Dialog.plain; fill=#000000">- position : int;</text>
<line  x1="40" y1="427" x2="297" y2="427" stroke="#000000" stroke-width="1" fill="none"/>
<text  x="47" y="442" style="font-size:10; font-family:Dialog.plain; fill=#000000">~ sendMessage(int id, int position)</text>
<line  x1="40" y1="445" x2="297" y2="445" stroke="#000000" stroke-width="1" fill="none"/>
<text  x="47" y="460" style="font-size:10; font-family:Dialog.plain; fill=#000000">~ in obstacleDetected(int id, int position)</text>
<text  x="47" y="472" style="font-size:10; font-family:Dialog.plain; fill=#000000">~ in carPosition(int id, int position)</text>
<text  x="47" y="484" style="font-size:10; font-family:Dialog.plain; fill=#000000">~ out setCarPosition(int id, int position)</text>
<text  x="48" y="496" style="font-size:10; font-family:Dialog.plain; fill=#000000">...</text>
<text  x="48" y="508" style="font-size:10; font-family:Dialog.plain; fill=#000000">...</text>
<rect  x="26" y="43" width="1146" height="250" fill="none" stroke="#000000" stroke-width="1"/>
<rect  x="27" y="44" width="1144" height="248" fill="#c1daf1"/>
<text  x="556" y="58" style="font-size:12; font-family:Dialog.bold; font-weight=bold; fill=#000000">&lt;&lt;block&gt;&gt;</text>
<text  x="561" y="73" style="font-size:12; font-family:Dialog.plain; fill=#000000">TestBench</text>
<line  x1="26" y1="75" x2="1172" y2="75" stroke="#000000" stroke-width="1" fill="none"/>
<rect  x="237" y="98" width="190" height="184" fill="none" stroke="#000000" stroke-width="1"/>
<rect  x="238" y="99" width="188" height="182" fill="#c1dafb"/>
<text  x="289" y="113" style="font-size:12; font-family:Dialog.bold; font-weight=bold; fill=#000000">&lt;&lt;block&gt;&gt;</text>
<text  x="255" y="128" style="font-size:12; font-family:Dialog.plain; fill=#000000">EmergencySimulator</text>
<line  x1="237" y1="130" x2="427" y2="130" stroke="#000000" stroke-width="1" fill="none"/>
<text  x="245" y="142" style="font-size:10; font-family:Dialog.plain; fill=#000000">...</text>
<text  x="245" y="154" style="font-size:10; font-family:Dialog.plain; fill=#000000">...</text>
<text  x="244" y="166" style="font-size:10; font-family:Dialog.plain; fill=#000000">- carid : CarInfo;</text>
<text  x="244" y="178" style="font-size:10; font-family:Dialog.plain; fill=#000000">- id : int;</text>
<text  x="244" y="190" style="font-size:10; font-family:Dialog.plain; fill=#000000">- position : int;</text>
<line  x1="237" y1="193" x2="427" y2="193" stroke="#000000" stroke-width="1" fill="none"/>
<text  x="245" y="208" style="font-size:10; font-family:Dialog.plain; fill=#000000">...</text>
<rect  x="32" y="98" width="193" height="184" fill="none" stroke="#000000" stroke-width="1"/>
<rect  x="33" y="99" width="191" height="182" fill="#c1dafb"/>
<text  x="85" y="113" style="font-size:12; font-family:Dialog.bold; font-weight=bold; fill=#000000">&lt;&lt;block&gt;&gt;</text>
<text  x="57" y="128" style="font-size:12; font-family:Dialog.plain; fill=#000000">CarPositionSimulator</text>
<line  x1="32" y1="130" x2="225" y2="130" stroke="#000000" stroke-width="1" fill="none"/>
<text  x="39" y="142" style="font-size:10; font-family:Dialog.plain; fill=#000000">- carid : CarInfo;</text>
<text  x="40" y="154" style="font-size:10; font-family:Dialog.plain; fill=#000000">...</text>
<text  x="40" y="166" style="font-size:10; font-family:Dialog.plain; fill=#000000">...</text>
<text  x="39" y="178" style="font-size:10; font-family:Dialog.plain; fill=#000000">- id : int;</text>
<text  x="39" y="190" style="font-size:10; font-family:Dialog.plain; fill=#000000">- position : int;</text>
<line  x1="32" y1="193" x2="225" y2="193" stroke="#000000" stroke-width="1" fill="none"/>
<text  x="39" y="208" style="font-size:10; font-family:Dialog.plain; fill=#000000">~ out carPosition(int id, int position)</text>
<rect  x="442" y="100" width="242" height="175" fill="none" stroke="#000000" stroke-width="1"/>
<rect  x="443" y="101" width="240" height="173" fill="#c1dafb"/>
<text  x="520" y="115" style="font-size:12; font-family:Dialog.bold; font-weight=bold; fill=#000000">&lt;&lt;block&gt;&gt;</text>
<text  x="520" y="130" style="font-size:12; font-family:Dialog.plain; fill=#000000">GPSSensor</text>
<line  x1="442" y1="132" x2="684" y2="132" stroke="#000000" stroke-width="1" fill="none"/>
<text  x="449" y="144" style="font-size:10; font-family:Dialog.plain; fill=#000000">- minGPSUpdate = 100 : int;</text>
<text  x="449" y="156" style="font-size:10; font-family:Dialog.plain; fill=#000000">- maxGPSUpdate = 100 : int;</text>
<text  x="449" y="168" style="font-size:10; font-family:Dialog.plain; fill=#000000">- position : int;</text>
<text  x="449" y="180" style="font-size:10; font-family:Dialog.plain; fill=#000000">- carinfo : CarInfo;</text>
<line  x1="442" y1="183" x2="684" y2="183" stroke="#000000" stroke-width="1" fill="none"/>
<text  x="449" y="198" style="font-size:10; font-family:Dialog.plain; fill=#000000">~ out setPosition(int currentPosition)</text>
<rect  x="701" y="100" width="243" height="176" fill="none" stroke="#000000" stroke-width="1"/>
<rect  x="702" y="101" width="241" height="174" fill="#c1dafb"/>
<text  x="779" y="115" style="font-size:12; font-family:Dialog.bold; font-weight=bold; fill=#000000">&lt;&lt;block&gt;&gt;</text>
<text  x="770" y="130" style="font-size:12; font-family:Dialog.plain; fill=#000000">RadarSensor</text>
<line  x1="701" y1="132" x2="944" y2="132" stroke="#000000" stroke-width="1" fill="none"/>
<text  x="708" y="144" style="font-size:10; font-family:Dialog.plain; fill=#000000">- minRadarUpdate = 100 : int;</text>
<text  x="708" y="156" style="font-size:10; font-family:Dialog.plain; fill=#000000">- maxRadarUpdate = 150 : int;</text>
<text  x="708" y="168" style="font-size:10; font-family:Dialog.plain; fill=#000000">- obstacleAhead : int;</text>
<line  x1="701" y1="171" x2="944" y2="171" stroke="#000000" stroke-width="1" fill="none"/>
<text  x="708" y="186" style="font-size:10; font-family:Dialog.plain; fill=#000000">~ out obstacleAhead(int info)</text>
<rect  x="959" y="98" width="196" height="178" fill="none" stroke="#000000" stroke-width="1"/>
<rect  x="960" y="99" width="194" height="176" fill="#c1dafb"/>
<text  x="1014" y="113" style="font-size:12; font-family:Dialog.bold; font-weight=bold; fill=#000000">&lt;&lt;block&gt;&gt;</text>
<text  x="1004" y="128" style="font-size:12; font-family:Dialog.plain; fill=#000000">SpeedSensor</text>
<line  x1="959" y1="130" x2="1155" y2="130" stroke="#000000" stroke-width="1" fill="none"/>
<text  x="966" y="142" style="font-size:10; font-family:Dialog.plain; fill=#000000">- minSpeedUpdate = 150 : int;</text>
<text  x="966" y="154" style="font-size:10; font-family:Dialog.plain; fill=#000000">- maxSpeedUpdate = 150 : int;</text>
<text  x="966" y="166" style="font-size:10; font-family:Dialog.plain; fill=#000000">- speed : int;</text>
<text  x="966" y="178" style="font-size:10; font-family:Dialog.plain; fill=#000000">- carinfo : CarInfo;</text>
<line  x1="959" y1="181" x2="1155" y2="181" stroke="#000000" stroke-width="1" fill="none"/>
<text  x="967" y="196" style="font-size:10; font-family:Dialog.plain; fill=#000000">...</text>
<rect  x="35" y="803" width="185" height="175" fill="none" stroke="#000000" stroke-width="1"/>
<rect  x="36" y="804" width="183" height="173" fill="#9cdca2"/>
<text  x="70" y="818" style="font-size:12; font-family:Dialog.bold; font-weight=bold; fill=#000000">&lt;&lt;datatype&gt;&gt;</text>
<text  x="94" y="833" style="font-size:12; font-family:Dialog.plain; fill=#000000">NodeList</text>
<line  x1="35" y1="835" x2="220" y2="835" stroke="#000000" stroke-width="1" fill="none"/>
<text  x="42" y="847" style="font-size:10; font-family:Dialog.plain; fill=#000000">- id0 : int;</text>
<text  x="42" y="859" style="font-size:10; font-family:Dialog.plain; fill=#000000">- id1 : int;</text>
<text  x="42" y="871" style="font-size:10; font-family:Dialog.plain; fill=#000000">- id2 : int;</text>
<text  x="42" y="883" style="font-size:10; font-family:Dialog.plain; fill=#000000">- position0 : int;</text>
<text  x="42" y="895" style="font-size:10; font-family:Dialog.plain; fill=#000000">- position1 : int;</text>
<text  x="42" y="907" style="font-size:10; font-family:Dialog.plain; fill=#000000">- position2 : int;</text>
<rect  x="34" y="609" width="196" height="178" fill="none" stroke="#000000" stroke-width="1"/>
<rect  x="35" y="610" width="194" height="176" fill="#9cdca2"/>
<text  x="74" y="624" style="font-size:12; font-family:Dialog.bold; font-weight=bold; fill=#000000">&lt;&lt;datatype&gt;&gt;</text>
<text  x="103" y="639" style="font-size:12; font-family:Dialog.plain; fill=#000000">CarInfo</text>
<line  x1="34" y1="641" x2="230" y2="641" stroke="#000000" stroke-width="1" fill="none"/>
<text  x="41" y="653" style="font-size:10; font-family:Dialog.plain; fill=#000000">- minID = 1 : int;</text>
<text  x="41" y="665" style="font-size:10; font-family:Dialog.plain; fill=#000000">- maxID = 5 : int;</text>
<text  x="41" y="677" style="font-size:10; font-family:Dialog.plain; fill=#000000">- minPosition = 3 : int;</text>
<text  x="41" y="689" style="font-size:10; font-family:Dialog.plain; fill=#000000">- maxPosition = 10 : int;</text>
<text  x="41" y="701" style="font-size:10; font-family:Dialog.plain; fill=#000000">- minSpeed = 1 : int;</text>
<text  x="41" y="713" style="font-size:10; font-family:Dialog.plain; fill=#000000">- maxSpeed = 10 : int;</text>
<text  x="41" y="725" style="font-size:10; font-family:Dialog.plain; fill=#000000">- myID = 11 : int;</text>
<rect  x="452" y="378" width="9" height="9" fill="#000000"/>
<rect  x="558" y="270" width="9" height="9" fill="#000000"/>
<line  x1="558" y1="280" x2="461" y2="378" stroke="#000000" stroke-width="1" fill="none"/>
<rect  x="227" y="363" width="9" height="9" fill="#000000"/>
<rect  x="279" y="277" width="9" height="9" fill="#000000"/>
<line  x1="280" y1="287" x2="235" y2="363" stroke="#000000" stroke-width="1" fill="none"/>
<rect  x="163" y="363" width="9" height="9" fill="#000000"/>
<rect  x="123" y="277" width="9" height="9" fill="#000000"/>
<line  x1="130" y1="287" x2="165" y2="363" stroke="#000000" stroke-width="1" fill="none"/>
<rect  x="324" y="459" width="9" height="9" fill="#000000"/>
<rect  x="292" y="455" width="9" height="9" fill="#000000"/>
<line  x1="302" y1="460" x2="324" y2="463" stroke="#000000" stroke-width="1" fill="none"/>
<rect  x="591" y="550" width="9" height="9" fill="#000000"/>
<rect  x="292" y="548" width="9" height="9" fill="#000000"/>
<line  x1="302" y1="553" x2="591" y2="554" stroke="#000000" stroke-width="1" fill="none"/>
<rect  x="522" y="690" width="9" height="9" fill="#000000"/>
<rect  x="744" y="550" width="9" height="9" fill="#000000"/>
<line  x1="744" y1="558" x2="532" y2="691" stroke="#000000" stroke-width="1" fill="none"/>
<rect  x="830" y="699" width="9" height="9" fill="#000000"/>
<rect  x="878" y="271" width="9" height="9" fill="#000000"/>
<line  x1="882" y1="280" x2="835" y2="698" stroke="#000000" stroke-width="1" fill="none"/>
<rect  x="665" y="816" width="9" height="9" fill="#000000"/>
<rect  x="643" y="815" width="9" height="9" fill="#000000"/>
<line  x1="653" y1="820" x2="665" y2="820" stroke="#000000" stroke-width="1" fill="none"/>
<rect  x="968" y="702" width="9" height="9" fill="#000000"/>
<rect  x="1052" y="271" width="9" height="9" fill="#000000"/>
<line  x1="1056" y1="281" x2="973" y2="702" stroke="#000000" stroke-width="1" fill="none"/>
<line  x1="587" y1="862" x2="587" y2="895" stroke="#000000" stroke-width="1" fill="none"/>
<line  x1="587" y1="895" x2="971" y2="895" stroke="#000000" stroke-width="1" fill="none"/>
<rect  x="968" y="850" width="9" height="9" fill="#000000"/>
<rect  x="582" y="857" width="9" height="9" fill="#000000"/>
<line  x1="971" y1="895" x2="972" y2="860" stroke="#000000" stroke-width="1" fill="none"/>
<rect  x="522" y="857" width="9" height="9" fill="#000000"/>
<rect  x="616" y="1018" width="9" height="9" fill="#000000"/>
<line  x1="618" y1="1017" x2="529" y2="867" stroke="#000000" stroke-width="1" fill="none"/>
<rect  x="820" y="1143" width="9" height="9" fill="#000000"/>
<rect  x="772" y="1143" width="9" height="9" fill="#000000"/>
<line  x1="782" y1="1148" x2="820" y2="1148" stroke="#000000" stroke-width="1" fill="none"/>
<rect  x="357" y="1203" width="9" height="9" fill="#000000"/>
<rect  x="460" y="1205" width="9" height="9" fill="#000000"/>
<line  x1="460" y1="1209" x2="367" y2="1208" stroke="#000000" stroke-width="1" fill="none"/>
<rect  x="461" y="690" width="9" height="9" fill="#000000"/>
<rect  x="452" y="540" width="9" height="9" fill="#000000"/>
<line  x1="457" y1="550" x2="465" y2="689" stroke="#000000" stroke-width="1" fill="none"/>
<line  x1="168" y1="553" x2="367" y2="632" stroke="#000000" stroke-width="1" fill="none"/>
<line  x1="367" y1="632" x2="367" y2="915" stroke="#000000" stroke-width="1" fill="none"/>
<rect  x="460" y="1080" width="9" height="9" fill="#000000"/>
<rect  x="163" y="548" width="9" height="9" fill="#000000"/>
<line  x1="367" y1="915" x2="462" y2="1080" stroke="#000000" stroke-width="1" fill="none"/>
</svg>