<?xml version="1.0" standalone="no"?>
<!DOCTYPE svg PUBLIC "-//W3C//DTD SVG 1.1//EN" "http://www.w3.org/Graphics/SVG/1.1/DTD/svg11.dtd">
<svg xmlns="http://www.w3.org/2000/svg" version="1.1">
<line  x1="404" y1="237" x2="541" y2="384" stroke="#000000" stroke-width="1" fill="none"/>
<line  x1="386" y1="364" x2="541" y2="396" stroke="#000000" stroke-width="1" fill="none"/>
<line  x1="142" y1="462" x2="545" y2="409" stroke="#000000" stroke-width="1" fill="none"/>
<line  x1="545" y1="409" x2="541" y2="409" stroke="#000000" stroke-width="1" fill="none"/>
<line  x1="801" y1="467" x2="666" y2="409" stroke="#000000" stroke-width="1" fill="none"/>
<line  x1="1050" y1="406" x2="791" y2="396" stroke="#000000" stroke-width="1" fill="none"/>
<line  x1="970" y1="247" x2="791" y2="371" stroke="#000000" stroke-width="1" fill="none"/>
<line  x1="701" y1="321" x2="666" y2="359" stroke="#000000" stroke-width="1" fill="none"/>
<rect  x="455" y="10" width="329" height="311" fill="none" stroke="#000000" stroke-width="1"/>
<line  x1="455" y1="10" x2="457" y2="7" stroke="#000000" stroke-width="1" fill="none"/>
<line  x1="784" y1="10" x2="786" y2="7" stroke="#000000" stroke-width="1" fill="none"/>
<line  x1="457" y1="7" x2="786" y2="7" stroke="#000000" stroke-width="1" fill="none"/>
<line  x1="784" y1="321" x2="786" y2="318" stroke="#000000" stroke-width="1" fill="none"/>
<line  x1="786" y1="7" x2="786" y2="318" stroke="#000000" stroke-width="1" fill="none"/>
<rect  x="456" y="11" width="327" height="309" fill="#c6ebf9"/>
<text  x="591" y="25" style="font-size:12; font-family:Dialog.bold; font-weight=bold; fill=#000000">&lt;&lt;CPU&gt;&gt;</text>
<text  x="595" y="40" style="font-size:12; font-family:Dialog.plain; fill=#000000">CPU0</text>
<rect  x="496" y="53" width="199" height="40" fill="none" stroke="#000000" stroke-width="1"/>
<rect  x="497" y="54" width="197" height="38" fill="#c6e3f9"/>
<line  x1="670" y1="58" x2="670" y2="83" stroke="#000000" stroke-width="1" fill="none"/>
<line  x1="670" y1="58" x2="685" y2="58" stroke="#000000" stroke-width="1" fill="none"/>
<line  x1="685" y1="58" x2="690" y2="63" stroke="#000000" stroke-width="1" fill="none"/>
<line  x1="690" y1="63" x2="690" y2="83" stroke="#000000" stroke-width="1" fill="none"/>
<line  x1="690" y1="83" x2="670" y2="83" stroke="#000000" stroke-width="1" fill="none"/>
<line  x1="685" y1="58" x2="685" y2="63" stroke="#000000" stroke-width="1" fill="none"/>
<line  x1="685" y1="63" x2="690" y2="63" stroke="#000000" stroke-width="1" fill="none"/>
<text  x="501" y="68" style="font-size:12; font-family:Dialog.plain; fill=#000000">AVATAR Design::TestBench</text>
<rect  x="497" y="99" width="218" height="40" fill="none" stroke="#000000" stroke-width="1"/>
<rect  x="498" y="100" width="216" height="38" fill="#c6e3f9"/>
<line  x1="690" y1="104" x2="690" y2="129" stroke="#000000" stroke-width="1" fill="none"/>
<line  x1="690" y1="104" x2="705" y2="104" stroke="#000000" stroke-width="1" fill="none"/>
<line  x1="705" y1="104" x2="710" y2="109" stroke="#000000" stroke-width="1" fill="none"/>
<line  x1="710" y1="109" x2="710" y2="129" stroke="#000000" stroke-width="1" fill="none"/>
<line  x1="710" y1="129" x2="690" y2="129" stroke="#000000" stroke-width="1" fill="none"/>
<line  x1="705" y1="104" x2="705" y2="109" stroke="#000000" stroke-width="1" fill="none"/>
<line  x1="705" y1="109" x2="710" y2="109" stroke="#000000" stroke-width="1" fill="none"/>
<text  x="502" y="114" style="font-size:12; font-family:Dialog.plain; fill=#000000">AVATAR Design::SpeedSensor</text>
<rect  x="497" y="188" width="204" height="40" fill="none" stroke="#000000" stroke-width="1"/>
<rect  x="498" y="189" width="202" height="38" fill="#c6e3f9"/>
<line  x1="676" y1="193" x2="676" y2="218" stroke="#000000" stroke-width="1" fill="none"/>
<line  x1="676" y1="193" x2="691" y2="193" stroke="#000000" stroke-width="1" fill="none"/>
<line  x1="691" y1="193" x2="696" y2="198" stroke="#000000" stroke-width="1" fill="none"/>
<line  x1="696" y1="198" x2="696" y2="218" stroke="#000000" stroke-width="1" fill="none"/>
<line  x1="696" y1="218" x2="676" y2="218" stroke="#000000" stroke-width="1" fill="none"/>
<line  x1="691" y1="193" x2="691" y2="198" stroke="#000000" stroke-width="1" fill="none"/>
<line  x1="691" y1="198" x2="696" y2="198" stroke="#000000" stroke-width="1" fill="none"/>
<text  x="502" y="203" style="font-size:12; font-family:Dialog.plain; fill=#000000">AVATAR Design::GPSSensor</text>
<rect  x="497" y="145" width="216" height="40" fill="none" stroke="#000000" stroke-width="1"/>
<rect  x="498" y="146" width="214" height="38" fill="#c6e3f9"/>
<line  x1="688" y1="150" x2="688" y2="175" stroke="#000000" stroke-width="1" fill="none"/>
<line  x1="688" y1="150" x2="703" y2="150" stroke="#000000" stroke-width="1" fill="none"/>
<line  x1="703" y1="150" x2="708" y2="155" stroke="#000000" stroke-width="1" fill="none"/>
<line  x1="708" y1="155" x2="708" y2="175" stroke="#000000" stroke-width="1" fill="none"/>
<line  x1="708" y1="175" x2="688" y2="175" stroke="#000000" stroke-width="1" fill="none"/>
<line  x1="703" y1="150" x2="703" y2="155" stroke="#000000" stroke-width="1" fill="none"/>
<line  x1="703" y1="155" x2="708" y2="155" stroke="#000000" stroke-width="1" fill="none"/>
<text  x="502" y="160" style="font-size:12; font-family:Dialog.plain; fill=#000000">AVATAR Design::RadarSensor</text>
<rect  x="498" y="232" width="264" height="40" fill="none" stroke="#000000" stroke-width="1"/>
<rect  x="499" y="233" width="262" height="38" fill="#c6e3f9"/>
<line  x1="737" y1="237" x2="737" y2="262" stroke="#000000" stroke-width="1" fill="none"/>
<line  x1="737" y1="237" x2="752" y2="237" stroke="#000000" stroke-width="1" fill="none"/>
<line  x1="752" y1="237" x2="757" y2="242" stroke="#000000" stroke-width="1" fill="none"/>
<line  x1="757" y1="242" x2="757" y2="262" stroke="#000000" stroke-width="1" fill="none"/>
<line  x1="757" y1="262" x2="737" y2="262" stroke="#000000" stroke-width="1" fill="none"/>
<line  x1="752" y1="237" x2="752" y2="242" stroke="#000000" stroke-width="1" fill="none"/>
<line  x1="752" y1="242" x2="757" y2="242" stroke="#000000" stroke-width="1" fill="none"/>
<text  x="503" y="247" style="font-size:12; font-family:Dialog.plain; fill=#000000">AVATAR Design::CarPositionSimulator</text>
<rect  x="498" y="275" width="261" height="40" fill="none" stroke="#000000" stroke-width="1"/>
<rect  x="499" y="276" width="259" height="38" fill="#c6e3f9"/>
<line  x1="734" y1="280" x2="734" y2="305" stroke="#000000" stroke-width="1" fill="none"/>
<line  x1="734" y1="280" x2="749" y2="280" stroke="#000000" stroke-width="1" fill="none"/>
<line  x1="749" y1="280" x2="754" y2="285" stroke="#000000" stroke-width="1" fill="none"/>
<line  x1="754" y1="285" x2="754" y2="305" stroke="#000000" stroke-width="1" fill="none"/>
<line  x1="754" y1="305" x2="734" y2="305" stroke="#000000" stroke-width="1" fill="none"/>
<line  x1="749" y1="280" x2="749" y2="285" stroke="#000000" stroke-width="1" fill="none"/>
<line  x1="749" y1="285" x2="754" y2="285" stroke="#000000" stroke-width="1" fill="none"/>
<text  x="503" y="290" style="font-size:12; font-family:Dialog.plain; fill=#000000">AVATAR Design::EmergencySimulator</text>
<rect  x="1050" y="265" width="350" height="189" fill="none" stroke="#000000" stroke-width="1"/>
<line  x1="1050" y1="265" x2="1052" y2="262" stroke="#000000" stroke-width="1" fill="none"/>
<line  x1="1400" y1="265" x2="1402" y2="262" stroke="#000000" stroke-width="1" fill="none"/>
<line  x1="1052" y1="262" x2="1402" y2="262" stroke="#000000" stroke-width="1" fill="none"/>
<line  x1="1400" y1="454" x2="1402" y2="451" stroke="#000000" stroke-width="1" fill="none"/>
<line  x1="1402" y1="262" x2="1402" y2="451" stroke="#000000" stroke-width="1" fill="none"/>
<rect  x="1051" y="266" width="348" height="187" fill="#c6ebf9"/>
<text  x="1197" y="280" style="font-size:12; font-family:Dialog.bold; font-weight=bold; fill=#000000">&lt;&lt;CPU&gt;&gt;</text>
<text  x="1207" y="295" style="font-size:12; font-family:Dialog.plain; fill=#000000">CPU3</text>
<rect  x="1082" y="306" width="161" height="40" fill="none" stroke="#000000" stroke-width="1"/>
<rect  x="1083" y="307" width="159" height="38" fill="#c6e3f9"/>
<line  x1="1218" y1="311" x2="1218" y2="336" stroke="#000000" stroke-width="1" fill="none"/>
<line  x1="1218" y1="311" x2="1233" y2="311" stroke="#000000" stroke-width="1" fill="none"/>
<line  x1="1233" y1="311" x2="1238" y2="316" stroke="#000000" stroke-width="1" fill="none"/>
<line  x1="1238" y1="316" x2="1238" y2="336" stroke="#000000" stroke-width="1" fill="none"/>
<line  x1="1238" y1="336" x2="1218" y2="336" stroke="#000000" stroke-width="1" fill="none"/>
<line  x1="1233" y1="311" x2="1233" y2="316" stroke="#000000" stroke-width="1" fill="none"/>
<line  x1="1233" y1="316" x2="1238" y2="316" stroke="#000000" stroke-width="1" fill="none"/>
<text  x="1087" y="321" style="font-size:12; font-family:Dialog.plain; fill=#000000">AVATAR Design::BCU</text>
<rect  x="1083" y="352" width="298" height="40" fill="none" stroke="#000000" stroke-width="1"/>
<rect  x="1084" y="353" width="296" height="38" fill="#c6e3f9"/>
<line  x1="1356" y1="357" x2="1356" y2="382" stroke="#000000" stroke-width="1" fill="none"/>
<line  x1="1356" y1="357" x2="1371" y2="357" stroke="#000000" stroke-width="1" fill="none"/>
<line  x1="1371" y1="357" x2="1376" y2="362" stroke="#000000" stroke-width="1" fill="none"/>
<line  x1="1376" y1="362" x2="1376" y2="382" stroke="#000000" stroke-width="1" fill="none"/>
<line  x1="1376" y1="382" x2="1356" y2="382" stroke="#000000" stroke-width="1" fill="none"/>
<line  x1="1371" y1="357" x2="1371" y2="362" stroke="#000000" stroke-width="1" fill="none"/>
<line  x1="1371" y1="362" x2="1376" y2="362" stroke="#000000" stroke-width="1" fill="none"/>
<text  x="1088" y="367" style="font-size:12; font-family:Dialog.plain; fill=#000000">AVATAR Design::DangerAvoidanceStrategy</text>
<rect  x="1083" y="399" width="251" height="40" fill="none" stroke="#000000" stroke-width="1"/>
<rect  x="1084" y="400" width="249" height="38" fill="#c6e3f9"/>
<line  x1="1309" y1="404" x2="1309" y2="429" stroke="#000000" stroke-width="1" fill="none"/>
<line  x1="1309" y1="404" x2="1324" y2="404" stroke="#000000" stroke-width="1" fill="none"/>
<line  x1="1324" y1="404" x2="1329" y2="409" stroke="#000000" stroke-width="1" fill="none"/>
<line  x1="1329" y1="409" x2="1329" y2="429" stroke="#000000" stroke-width="1" fill="none"/>
<line  x1="1329" y1="429" x2="1309" y2="429" stroke="#000000" stroke-width="1" fill="none"/>
<line  x1="1324" y1="404" x2="1324" y2="409" stroke="#000000" stroke-width="1" fill="none"/>
<line  x1="1324" y1="409" x2="1329" y2="409" stroke="#000000" stroke-width="1" fill="none"/>
<text  x="1088" y="414" style="font-size:12; font-family:Dialog.plain; fill=#000000">AVATAR Design::BrakeManagement</text>
<rect  x="29" y="253" width="357" height="149" fill="none" stroke="#000000" stroke-width="1"/>
<line  x1="29" y1="253" x2="31" y2="250" stroke="#000000" stroke-width="1" fill="none"/>
<line  x1="386" y1="253" x2="388" y2="250" stroke="#000000" stroke-width="1" fill="none"/>
<line  x1="31" y1="250" x2="388" y2="250" stroke="#000000" stroke-width="1" fill="none"/>
<line  x1="386" y1="402" x2="388" y2="399" stroke="#000000" stroke-width="1" fill="none"/>
<line  x1="388" y1="250" x2="388" y2="399" stroke="#000000" stroke-width="1" fill="none"/>
<rect  x="30" y="254" width="355" height="147" fill="#c6ebf9"/>
<text  x="179" y="268" style="font-size:12; font-family:Dialog.bold; font-weight=bold; fill=#000000">&lt;&lt;CPU&gt;&gt;</text>
<text  x="190" y="283" style="font-size:12; font-family:Dialog.plain; fill=#000000">CPU2</text>
<rect  x="68" y="293" width="159" height="40" fill="none" stroke="#000000" stroke-width="1"/>
<rect  x="69" y="294" width="157" height="38" fill="#c6e3f9"/>
<line  x1="202" y1="298" x2="202" y2="323" stroke="#000000" stroke-width="1" fill="none"/>
<line  x1="202" y1="298" x2="217" y2="298" stroke="#000000" stroke-width="1" fill="none"/>
<line  x1="217" y1="298" x2="222" y2="303" stroke="#000000" stroke-width="1" fill="none"/>
<line  x1="222" y1="303" x2="222" y2="323" stroke="#000000" stroke-width="1" fill="none"/>
<line  x1="222" y1="323" x2="202" y2="323" stroke="#000000" stroke-width="1" fill="none"/>
<line  x1="217" y1="298" x2="217" y2="303" stroke="#000000" stroke-width="1" fill="none"/>
<line  x1="217" y1="303" x2="222" y2="303" stroke="#000000" stroke-width="1" fill="none"/>
<text  x="73" y="308" style="font-size:12; font-family:Dialog.plain; fill=#000000">AVATAR Design::PTC</text>
<rect  x="42" y="348" width="332" height="40" fill="none" stroke="#000000" stroke-width="1"/>
<rect  x="43" y="349" width="330" height="38" fill="#c6e3f9"/>
<line  x1="349" y1="353" x2="349" y2="378" stroke="#000000" stroke-width="1" fill="none"/>
<line  x1="349" y1="353" x2="364" y2="353" stroke="#000000" stroke-width="1" fill="none"/>
<line  x1="364" y1="353" x2="369" y2="358" stroke="#000000" stroke-width="1" fill="none"/>
<line  x1="369" y1="358" x2="369" y2="378" stroke="#000000" stroke-width="1" fill="none"/>
<line  x1="369" y1="378" x2="349" y2="378" stroke="#000000" stroke-width="1" fill="none"/>
<line  x1="364" y1="353" x2="364" y2="358" stroke="#000000" stroke-width="1" fill="none"/>
<line  x1="364" y1="358" x2="369" y2="358" stroke="#000000" stroke-width="1" fill="none"/>
<text  x="47" y="363" style="font-size:12; font-family:Dialog.plain; fill=#000000">AVATAR Design::DrivingPowerReductionStrategy</text>
<rect  x="25" y="10" width="379" height="227" fill="none" stroke="#000000" stroke-width="1"/>
<line  x1="25" y1="10" x2="27" y2="7" stroke="#000000" stroke-width="1" fill="none"/>
<line  x1="404" y1="10" x2="406" y2="7" stroke="#000000" stroke-width="1" fill="none"/>
<line  x1="27" y1="7" x2="406" y2="7" stroke="#000000" stroke-width="1" fill="none"/>
<line  x1="404" y1="237" x2="406" y2="234" stroke="#000000" stroke-width="1" fill="none"/>
<line  x1="406" y1="7" x2="406" y2="234" stroke="#000000" stroke-width="1" fill="none"/>
<rect  x="26" y="11" width="377" height="225" fill="#c6ebf9"/>
<text  x="186" y="25" style="font-size:12; font-family:Dialog.bold; font-weight=bold; fill=#000000">&lt;&lt;CPU&gt;&gt;</text>
<text  x="197" y="40" style="font-size:12; font-family:Dialog.plain; fill=#000000">CPU1</text>
<rect  x="57" y="55" width="229" height="40" fill="none" stroke="#000000" stroke-width="1"/>
<rect  x="58" y="56" width="227" height="38" fill="#c6e3f9"/>
<line  x1="261" y1="60" x2="261" y2="85" stroke="#000000" stroke-width="1" fill="none"/>
<line  x1="261" y1="60" x2="276" y2="60" stroke="#000000" stroke-width="1" fill="none"/>
<line  x1="276" y1="60" x2="281" y2="65" stroke="#000000" stroke-width="1" fill="none"/>
<line  x1="281" y1="65" x2="281" y2="85" stroke="#000000" stroke-width="1" fill="none"/>
<line  x1="281" y1="85" x2="261" y2="85" stroke="#000000" stroke-width="1" fill="none"/>
<line  x1="276" y1="60" x2="276" y2="65" stroke="#000000" stroke-width="1" fill="none"/>
<line  x1="276" y1="65" x2="281" y2="65" stroke="#000000" stroke-width="1" fill="none"/>
<text  x="62" y="70" style="font-size:12; font-family:Dialog.plain; fill=#000000">AVATAR Design::Communication</text>
<rect  x="57" y="99" width="264" height="40" fill="none" stroke="#000000" stroke-width="1"/>
<rect  x="58" y="100" width="262" height="38" fill="#c6e3f9"/>
<line  x1="296" y1="104" x2="296" y2="129" stroke="#000000" stroke-width="1" fill="none"/>
<line  x1="296" y1="104" x2="311" y2="104" stroke="#000000" stroke-width="1" fill="none"/>
<line  x1="311" y1="104" x2="316" y2="109" stroke="#000000" stroke-width="1" fill="none"/>
<line  x1="316" y1="109" x2="316" y2="129" stroke="#000000" stroke-width="1" fill="none"/>
<line  x1="316" y1="129" x2="296" y2="129" stroke="#000000" stroke-width="1" fill="none"/>
<line  x1="311" y1="104" x2="311" y2="109" stroke="#000000" stroke-width="1" fill="none"/>
<line  x1="311" y1="109" x2="316" y2="109" stroke="#000000" stroke-width="1" fill="none"/>
<text  x="62" y="114" style="font-size:12; font-family:Dialog.plain; fill=#000000">AVATAR Design::DSRSC_Management</text>
<rect  x="55" y="144" width="343" height="40" fill="none" stroke="#000000" stroke-width="1"/>
<rect  x="56" y="145" width="341" height="38" fill="#c6e3f9"/>
<line  x1="373" y1="149" x2="373" y2="174" stroke="#000000" stroke-width="1" fill="none"/>
<line  x1="373" y1="149" x2="388" y2="149" stroke="#000000" stroke-width="1" fill="none"/>
<line  x1="388" y1="149" x2="393" y2="154" stroke="#000000" stroke-width="1" fill="none"/>
<line  x1="393" y1="154" x2="393" y2="174" stroke="#000000" stroke-width="1" fill="none"/>
<line  x1="393" y1="174" x2="373" y2="174" stroke="#000000" stroke-width="1" fill="none"/>
<line  x1="388" y1="149" x2="388" y2="154" stroke="#000000" stroke-width="1" fill="none"/>
<line  x1="388" y1="154" x2="393" y2="154" stroke="#000000" stroke-width="1" fill="none"/>
<text  x="60" y="159" style="font-size:12; font-family:Dialog.plain; fill=#000000">AVATAR Design::NeighbourhoodTableManagement</text>
<rect  x="55" y="189" width="267" height="40" fill="none" stroke="#000000" stroke-width="1"/>
<rect  x="56" y="190" width="265" height="38" fill="#c6e3f9"/>
<line  x1="297" y1="194" x2="297" y2="219" stroke="#000000" stroke-width="1" fill="none"/>
<line  x1="297" y1="194" x2="312" y2="194" stroke="#000000" stroke-width="1" fill="none"/>
<line  x1="312" y1="194" x2="317" y2="199" stroke="#000000" stroke-width="1" fill="none"/>
<line  x1="317" y1="199" x2="317" y2="219" stroke="#000000" stroke-width="1" fill="none"/>
<line  x1="317" y1="219" x2="297" y2="219" stroke="#000000" stroke-width="1" fill="none"/>
<line  x1="312" y1="194" x2="312" y2="199" stroke="#000000" stroke-width="1" fill="none"/>
<line  x1="312" y1="199" x2="317" y2="199" stroke="#000000" stroke-width="1" fill="none"/>
<text  x="60" y="204" style="font-size:12; font-family:Dialog.plain; fill=#000000">AVATAR Design::CorrectnessChecking</text>
<rect  x="879" y="10" width="364" height="237" fill="none" stroke="#000000" stroke-width="1"/>
<line  x1="879" y1="10" x2="881" y2="7" stroke="#000000" stroke-width="1" fill="none"/>
<line  x1="1243" y1="10" x2="1245" y2="7" stroke="#000000" stroke-width="1" fill="none"/>
<line  x1="881" y1="7" x2="1245" y2="7" stroke="#000000" stroke-width="1" fill="none"/>
<line  x1="1243" y1="247" x2="1245" y2="244" stroke="#000000" stroke-width="1" fill="none"/>
<line  x1="1245" y1="7" x2="1245" y2="244" stroke="#000000" stroke-width="1" fill="none"/>
<rect  x="880" y="11" width="362" height="235" fill="#c6ebf9"/>
<text  x="1033" y="25" style="font-size:12; font-family:Dialog.bold; font-weight=bold; fill=#000000">&lt;&lt;CPU&gt;&gt;</text>
<text  x="1043" y="40" style="font-size:12; font-family:Dialog.plain; fill=#000000">CPU4</text>
<rect  x="904" y="56" width="170" height="40" fill="none" stroke="#000000" stroke-width="1"/>
<rect  x="905" y="57" width="168" height="38" fill="#c6e3f9"/>
<line  x1="1049" y1="61" x2="1049" y2="86" stroke="#000000" stroke-width="1" fill="none"/>
<line  x1="1049" y1="61" x2="1064" y2="61" stroke="#000000" stroke-width="1" fill="none"/>
<line  x1="1064" y1="61" x2="1069" y2="66" stroke="#000000" stroke-width="1" fill="none"/>
<line  x1="1069" y1="66" x2="1069" y2="86" stroke="#000000" stroke-width="1" fill="none"/>
<line  x1="1069" y1="86" x2="1049" y2="86" stroke="#000000" stroke-width="1" fill="none"/>
<line  x1="1064" y1="61" x2="1064" y2="66" stroke="#000000" stroke-width="1" fill="none"/>
<line  x1="1064" y1="66" x2="1069" y2="66" stroke="#000000" stroke-width="1" fill="none"/>
<text  x="909" y="71" style="font-size:12; font-family:Dialog.plain; fill=#000000">AVATAR Design::CSCU</text>
<rect  x="903" y="102" width="277" height="40" fill="none" stroke="#000000" stroke-width="1"/>
<rect  x="904" y="103" width="275" height="38" fill="#c6e3f9"/>
<line  x1="1155" y1="107" x2="1155" y2="132" stroke="#000000" stroke-width="1" fill="none"/>
<line  x1="1155" y1="107" x2="1170" y2="107" stroke="#000000" stroke-width="1" fill="none"/>
<line  x1="1170" y1="107" x2="1175" y2="112" stroke="#000000" stroke-width="1" fill="none"/>
<line  x1="1175" y1="112" x2="1175" y2="132" stroke="#000000" stroke-width="1" fill="none"/>
<line  x1="1175" y1="132" x2="1155" y2="132" stroke="#000000" stroke-width="1" fill="none"/>
<line  x1="1170" y1="107" x2="1170" y2="112" stroke="#000000" stroke-width="1" fill="none"/>
<line  x1="1170" y1="112" x2="1175" y2="112" stroke="#000000" stroke-width="1" fill="none"/>
<text  x="908" y="117" style="font-size:12; font-family:Dialog.plain; fill=#000000">AVATAR Design::ObjectListManagement</text>
<rect  x="902" y="147" width="238" height="40" fill="none" stroke="#000000" stroke-width="1"/>
<rect  x="903" y="148" width="236" height="38" fill="#c6e3f9"/>
<line  x1="1115" y1="152" x2="1115" y2="177" stroke="#000000" stroke-width="1" fill="none"/>
<line  x1="1115" y1="152" x2="1130" y2="152" stroke="#000000" stroke-width="1" fill="none"/>
<line  x1="1130" y1="152" x2="1135" y2="157" stroke="#000000" stroke-width="1" fill="none"/>
<line  x1="1135" y1="157" x2="1135" y2="177" stroke="#000000" stroke-width="1" fill="none"/>
<line  x1="1135" y1="177" x2="1115" y2="177" stroke="#000000" stroke-width="1" fill="none"/>
<line  x1="1130" y1="152" x2="1130" y2="157" stroke="#000000" stroke-width="1" fill="none"/>
<line  x1="1130" y1="157" x2="1135" y2="157" stroke="#000000" stroke-width="1" fill="none"/>
<text  x="907" y="162" style="font-size:12; font-family:Dialog.plain; fill=#000000">AVATAR Design::PlausibilityCheck</text>
<rect  x="902" y="193" width="325" height="40" fill="none" stroke="#000000" stroke-width="1"/>
<rect  x="903" y="194" width="323" height="38" fill="#c6e3f9"/>
<line  x1="1202" y1="198" x2="1202" y2="223" stroke="#000000" stroke-width="1" fill="none"/>
<line  x1="1202" y1="198" x2="1217" y2="198" stroke="#000000" stroke-width="1" fill="none"/>
<line  x1="1217" y1="198" x2="1222" y2="203" stroke="#000000" stroke-width="1" fill="none"/>
<line  x1="1222" y1="203" x2="1222" y2="223" stroke="#000000" stroke-width="1" fill="none"/>
<line  x1="1222" y1="223" x2="1202" y2="223" stroke="#000000" stroke-width="1" fill="none"/>
<line  x1="1217" y1="198" x2="1217" y2="203" stroke="#000000" stroke-width="1" fill="none"/>
<line  x1="1217" y1="203" x2="1222" y2="203" stroke="#000000" stroke-width="1" fill="none"/>
<text  x="907" y="208" style="font-size:12; font-family:Dialog.plain; fill=#000000">AVATAR Design::VehiculeDynamicsManagement</text>
<rect  x="16" y="462" width="169" height="155" fill="none" stroke="#000000" stroke-width="1"/>
<line  x1="16" y1="462" x2="18" y2="459" stroke="#000000" stroke-width="1" fill="none"/>
<line  x1="185" y1="462" x2="187" y2="459" stroke="#000000" stroke-width="1" fill="none"/>
<line  x1="18" y1="459" x2="187" y2="459" stroke="#000000" stroke-width="1" fill="none"/>
<line  x1="185" y1="617" x2="187" y2="614" stroke="#000000" stroke-width="1" fill="none"/>
<line  x1="187" y1="459" x2="187" y2="614" stroke="#000000" stroke-width="1" fill="none"/>
<rect  x="17" y="463" width="167" height="153" fill="#c6ebf9"/>
<text  x="76" y="477" style="font-size:12; font-family:Dialog.bold; font-weight=bold; fill=#000000">&lt;&lt;TTY&gt;&gt;</text>
<text  x="79" y="492" style="font-size:12; font-family:Dialog.plain; fill=#000000">TTY0</text>
<rect  x="210" y="467" width="1182" height="429" fill="none" stroke="#000000" stroke-width="1"/>
<line  x1="210" y1="467" x2="212" y2="464" stroke="#000000" stroke-width="1" fill="none"/>
<line  x1="1392" y1="467" x2="1394" y2="464" stroke="#000000" stroke-width="1" fill="none"/>
<line  x1="212" y1="464" x2="1394" y2="464" stroke="#000000" stroke-width="1" fill="none"/>
<line  x1="1392" y1="896" x2="1394" y2="893" stroke="#000000" stroke-width="1" fill="none"/>
<line  x1="1394" y1="464" x2="1394" y2="893" stroke="#000000" stroke-width="1" fill="none"/>
<rect  x="211" y="468" width="1180" height="427" fill="#acead3"/>
<text  x="773" y="482" style="font-size:12; font-family:Dialog.bold; font-weight=bold; fill=#000000">&lt;&lt;RAM&gt;&gt;</text>
<text  x="758" y="497" style="font-size:12; font-family:Dialog.plain; fill=#000000">Memory0</text>
<rect  x="218" y="851" width="1154" height="40" fill="none" stroke="#000000" stroke-width="1"/>
<rect  x="219" y="852" width="1152" height="38" fill="#c6e3f9"/>
<line  x1="1347" y1="856" x2="1347" y2="881" stroke="#000000" stroke-width="1" fill="none"/>
<line  x1="1347" y1="856" x2="1362" y2="856" stroke="#000000" stroke-width="1" fill="none"/>
<line  x1="1362" y1="856" x2="1367" y2="861" stroke="#000000" stroke-width="1" fill="none"/>
<line  x1="1367" y1="861" x2="1367" y2="881" stroke="#000000" stroke-width="1" fill="none"/>
<line  x1="1367" y1="881" x2="1347" y2="881" stroke="#000000" stroke-width="1" fill="none"/>
<line  x1="1362" y1="856" x2="1362" y2="861" stroke="#000000" stroke-width="1" fill="none"/>
<line  x1="1362" y1="861" x2="1367" y2="861" stroke="#000000" stroke-width="1" fill="none"/>
<text  x="223" y="866" style="font-size:12; font-family:Dialog.plain; fill=#000000">AVATAR Design::DSRSC_Management/in broadcastEmergencyBrakingMessage(int id, int position) #--# DangerAvoidanceStrategy/out forwardEmergency(int myID, int currentPosition)</text>
<rect  x="218" y="831" width="960" height="40" fill="none" stroke="#000000" stroke-width="1"/>
<rect  x="219" y="832" width="958" height="38" fill="#c6e3f9"/>
<line  x1="1153" y1="836" x2="1153" y2="861" stroke="#000000" stroke-width="1" fill="none"/>
<line  x1="1153" y1="836" x2="1168" y2="836" stroke="#000000" stroke-width="1" fill="none"/>
<line  x1="1168" y1="836" x2="1173" y2="841" stroke="#000000" stroke-width="1" fill="none"/>
<line  x1="1173" y1="841" x2="1173" y2="861" stroke="#000000" stroke-width="1" fill="none"/>
<line  x1="1173" y1="861" x2="1153" y2="861" stroke="#000000" stroke-width="1" fill="none"/>
<line  x1="1168" y1="836" x2="1168" y2="841" stroke="#000000" stroke-width="1" fill="none"/>
<line  x1="1168" y1="841" x2="1173" y2="841" stroke="#000000" stroke-width="1" fill="none"/>
<text  x="223" y="846" style="font-size:12; font-family:Dialog.plain; fill=#000000">AVATAR Design::NeighbourhoodTableManagement/out sendTable(int currentPosition, NodeList list) #--# PlausibilityCheck/in getNodeList(NodeList list)</text>
<rect  x="218" y="810" width="928" height="40" fill="none" stroke="#000000" stroke-width="1"/>
<rect  x="219" y="811" width="926" height="38" fill="#c6e3f9"/>
<line  x1="1121" y1="815" x2="1121" y2="840" stroke="#000000" stroke-width="1" fill="none"/>
<line  x1="1121" y1="815" x2="1136" y2="815" stroke="#000000" stroke-width="1" fill="none"/>
<line  x1="1136" y1="815" x2="1141" y2="820" stroke="#000000" stroke-width="1" fill="none"/>
<line  x1="1141" y1="820" x2="1141" y2="840" stroke="#000000" stroke-width="1" fill="none"/>
<line  x1="1141" y1="840" x2="1121" y2="840" stroke="#000000" stroke-width="1" fill="none"/>
<line  x1="1136" y1="815" x2="1136" y2="820" stroke="#000000" stroke-width="1" fill="none"/>
<line  x1="1136" y1="820" x2="1141" y2="820" stroke="#000000" stroke-width="1" fill="none"/>
<text  x="223" y="825" style="font-size:12; font-family:Dialog.plain; fill=#000000">AVATAR Design::DangerAvoidanceStrategy/out reducePower(int value) #--# DrivingPowerReductionStrategy/in getReducePowerOrder(int value)</text>
<rect  x="218" y="792" width="733" height="40" fill="none" stroke="#000000" stroke-width="1"/>
<rect  x="219" y="793" width="731" height="38" fill="#c6e3f9"/>
<line  x1="926" y1="797" x2="926" y2="822" stroke="#000000" stroke-width="1" fill="none"/>
<line  x1="926" y1="797" x2="941" y2="797" stroke="#000000" stroke-width="1" fill="none"/>
<line  x1="941" y1="797" x2="946" y2="802" stroke="#000000" stroke-width="1" fill="none"/>
<line  x1="946" y1="802" x2="946" y2="822" stroke="#000000" stroke-width="1" fill="none"/>
<line  x1="946" y1="822" x2="926" y2="822" stroke="#000000" stroke-width="1" fill="none"/>
<line  x1="941" y1="797" x2="941" y2="802" stroke="#000000" stroke-width="1" fill="none"/>
<line  x1="941" y1="802" x2="946" y2="802" stroke="#000000" stroke-width="1" fill="none"/>
<text  x="223" y="807" style="font-size:12; font-family:Dialog.plain; fill=#000000">AVATAR Design::DangerAvoidanceStrategy/out brakePower(int value) #--# BrakeManagement/in brake(int value)</text>
<rect  x="218" y="770" width="1081" height="40" fill="none" stroke="#000000" stroke-width="1"/>
<rect  x="219" y="771" width="1079" height="38" fill="#c6e3f9"/>
<line  x1="1274" y1="775" x2="1274" y2="800" stroke="#000000" stroke-width="1" fill="none"/>
<line  x1="1274" y1="775" x2="1289" y2="775" stroke="#000000" stroke-width="1" fill="none"/>
<line  x1="1289" y1="775" x2="1294" y2="780" stroke="#000000" stroke-width="1" fill="none"/>
<line  x1="1294" y1="780" x2="1294" y2="800" stroke="#000000" stroke-width="1" fill="none"/>
<line  x1="1294" y1="800" x2="1274" y2="800" stroke="#000000" stroke-width="1" fill="none"/>
<line  x1="1289" y1="775" x2="1289" y2="780" stroke="#000000" stroke-width="1" fill="none"/>
<line  x1="1289" y1="780" x2="1294" y2="780" stroke="#000000" stroke-width="1" fill="none"/>
<text  x="223" y="785" style="font-size:12; font-family:Dialog.plain; fill=#000000">AVATAR Design::DangerAvoidanceStrategy/in brake(int speed, int currentPosition, int position) #--# PlausibilityCheck/out brake(int speed, int currentPosition, int position)</text>
<rect  x="218" y="748" width="848" height="40" fill="none" stroke="#000000" stroke-width="1"/>
<rect  x="219" y="749" width="846" height="38" fill="#c6e3f9"/>
<line  x1="1041" y1="753" x2="1041" y2="778" stroke="#000000" stroke-width="1" fill="none"/>
<line  x1="1041" y1="753" x2="1056" y2="753" stroke="#000000" stroke-width="1" fill="none"/>
<line  x1="1056" y1="753" x2="1061" y2="758" stroke="#000000" stroke-width="1" fill="none"/>
<line  x1="1061" y1="758" x2="1061" y2="778" stroke="#000000" stroke-width="1" fill="none"/>
<line  x1="1061" y1="778" x2="1041" y2="778" stroke="#000000" stroke-width="1" fill="none"/>
<line  x1="1056" y1="753" x2="1056" y2="758" stroke="#000000" stroke-width="1" fill="none"/>
<line  x1="1056" y1="758" x2="1061" y2="758" stroke="#000000" stroke-width="1" fill="none"/>
<text  x="223" y="763" style="font-size:12; font-family:Dialog.plain; fill=#000000">AVATAR Design::PlausibilityCheck/in getInfoOnSpeed(int speed) #--# VehiculeDynamicsManagement/out getInfoOnSpeed(int speed)</text>
<rect  x="218" y="726" width="830" height="40" fill="none" stroke="#000000" stroke-width="1"/>
<rect  x="219" y="727" width="828" height="38" fill="#c6e3f9"/>
<line  x1="1023" y1="731" x2="1023" y2="756" stroke="#000000" stroke-width="1" fill="none"/>
<line  x1="1023" y1="731" x2="1038" y2="731" stroke="#000000" stroke-width="1" fill="none"/>
<line  x1="1038" y1="731" x2="1043" y2="736" stroke="#000000" stroke-width="1" fill="none"/>
<line  x1="1043" y1="736" x2="1043" y2="756" stroke="#000000" stroke-width="1" fill="none"/>
<line  x1="1043" y1="756" x2="1023" y2="756" stroke="#000000" stroke-width="1" fill="none"/>
<line  x1="1038" y1="731" x2="1038" y2="736" stroke="#000000" stroke-width="1" fill="none"/>
<line  x1="1038" y1="736" x2="1043" y2="736" stroke="#000000" stroke-width="1" fill="none"/>
<text  x="223" y="741" style="font-size:12; font-family:Dialog.plain; fill=#000000">AVATAR Design::SpeedSensor/out updateOnSpeed(int speed) #--# VehiculeDynamicsManagement/in updateOnSpeed(int speed)</text>
<rect  x="218" y="703" width="830" height="40" fill="none" stroke="#000000" stroke-width="1"/>
<rect  x="219" y="704" width="828" height="38" fill="#c6e3f9"/>
<line  x1="1023" y1="708" x2="1023" y2="733" stroke="#000000" stroke-width="1" fill="none"/>
<line  x1="1023" y1="708" x2="1038" y2="708" stroke="#000000" stroke-width="1" fill="none"/>
<line  x1="1038" y1="708" x2="1043" y2="713" stroke="#000000" stroke-width="1" fill="none"/>
<line  x1="1043" y1="713" x2="1043" y2="733" stroke="#000000" stroke-width="1" fill="none"/>
<line  x1="1043" y1="733" x2="1023" y2="733" stroke="#000000" stroke-width="1" fill="none"/>
<line  x1="1038" y1="708" x2="1038" y2="713" stroke="#000000" stroke-width="1" fill="none"/>
<line  x1="1038" y1="713" x2="1043" y2="713" stroke="#000000" stroke-width="1" fill="none"/>
<text  x="223" y="718" style="font-size:12; font-family:Dialog.plain; fill=#000000">AVATAR Design::PlausibilityCheck/in getInfoOnObstacle(int obstacle) #--# ObjectListManagement/out getInfoOnObstacle(int info)</text>
<rect  x="218" y="680" width="742" height="40" fill="none" stroke="#000000" stroke-width="1"/>
<rect  x="219" y="681" width="740" height="38" fill="#c6e3f9"/>
<line  x1="935" y1="685" x2="935" y2="710" stroke="#000000" stroke-width="1" fill="none"/>
<line  x1="935" y1="685" x2="950" y2="685" stroke="#000000" stroke-width="1" fill="none"/>
<line  x1="950" y1="685" x2="955" y2="690" stroke="#000000" stroke-width="1" fill="none"/>
<line  x1="955" y1="690" x2="955" y2="710" stroke="#000000" stroke-width="1" fill="none"/>
<line  x1="955" y1="710" x2="935" y2="710" stroke="#000000" stroke-width="1" fill="none"/>
<line  x1="950" y1="685" x2="950" y2="690" stroke="#000000" stroke-width="1" fill="none"/>
<line  x1="950" y1="690" x2="955" y2="690" stroke="#000000" stroke-width="1" fill="none"/>
<text  x="223" y="695" style="font-size:12; font-family:Dialog.plain; fill=#000000">AVATAR Design::RadarSensor/out obstacleAhead(int info) #--# ObjectListManagement/in isObstacleAhead(int info)</text>
<rect  x="218" y="657" width="1045" height="40" fill="none" stroke="#000000" stroke-width="1"/>
<rect  x="219" y="658" width="1043" height="38" fill="#c6e3f9"/>
<line  x1="1238" y1="662" x2="1238" y2="687" stroke="#000000" stroke-width="1" fill="none"/>
<line  x1="1238" y1="662" x2="1253" y2="662" stroke="#000000" stroke-width="1" fill="none"/>
<line  x1="1253" y1="662" x2="1258" y2="667" stroke="#000000" stroke-width="1" fill="none"/>
<line  x1="1258" y1="667" x2="1258" y2="687" stroke="#000000" stroke-width="1" fill="none"/>
<line  x1="1258" y1="687" x2="1238" y2="687" stroke="#000000" stroke-width="1" fill="none"/>
<line  x1="1253" y1="662" x2="1253" y2="667" stroke="#000000" stroke-width="1" fill="none"/>
<line  x1="1253" y1="667" x2="1258" y2="667" stroke="#000000" stroke-width="1" fill="none"/>
<text  x="223" y="672" style="font-size:12; font-family:Dialog.plain; fill=#000000">AVATAR Design::CorrectnessChecking/out toPlausibityCheckMessage(int id, int position) #--# PlausibilityCheck/in getEmergencyMessageToVerify(int id, int position)</text>
<rect  x="218" y="637" width="1119" height="40" fill="none" stroke="#000000" stroke-width="1"/>
<rect  x="219" y="638" width="1117" height="38" fill="#c6e3f9"/>
<line  x1="1312" y1="642" x2="1312" y2="667" stroke="#000000" stroke-width="1" fill="none"/>
<line  x1="1312" y1="642" x2="1327" y2="642" stroke="#000000" stroke-width="1" fill="none"/>
<line  x1="1327" y1="642" x2="1332" y2="647" stroke="#000000" stroke-width="1" fill="none"/>
<line  x1="1332" y1="647" x2="1332" y2="667" stroke="#000000" stroke-width="1" fill="none"/>
<line  x1="1332" y1="667" x2="1312" y2="667" stroke="#000000" stroke-width="1" fill="none"/>
<line  x1="1327" y1="642" x2="1327" y2="647" stroke="#000000" stroke-width="1" fill="none"/>
<line  x1="1327" y1="647" x2="1332" y2="647" stroke="#000000" stroke-width="1" fill="none"/>
<text  x="223" y="652" style="font-size:12; font-family:Dialog.plain; fill=#000000">AVATAR Design::DSRSC_Management/out forwardEmergencyBrakingMessage(int id, int position) #--# CorrectnessChecking/in getEmergencyBrakingMessage(int id, int position)</text>
<rect  x="218" y="615" width="942" height="40" fill="none" stroke="#000000" stroke-width="1"/>
<rect  x="219" y="616" width="940" height="38" fill="#c6e3f9"/>
<line  x1="1135" y1="620" x2="1135" y2="645" stroke="#000000" stroke-width="1" fill="none"/>
<line  x1="1135" y1="620" x2="1150" y2="620" stroke="#000000" stroke-width="1" fill="none"/>
<line  x1="1150" y1="620" x2="1155" y2="625" stroke="#000000" stroke-width="1" fill="none"/>
<line  x1="1155" y1="625" x2="1155" y2="645" stroke="#000000" stroke-width="1" fill="none"/>
<line  x1="1155" y1="645" x2="1135" y2="645" stroke="#000000" stroke-width="1" fill="none"/>
<line  x1="1150" y1="620" x2="1150" y2="625" stroke="#000000" stroke-width="1" fill="none"/>
<line  x1="1150" y1="625" x2="1155" y2="625" stroke="#000000" stroke-width="1" fill="none"/>
<text  x="223" y="630" style="font-size:12; font-family:Dialog.plain; fill=#000000">AVATAR Design::DSRSC_Management/out setCarPosition(int id, int position) #--# NeighbourhoodTableManagement/in addANode(int id, int position)</text>
<rect  x="218" y="595" width="845" height="40" fill="none" stroke="#000000" stroke-width="1"/>
<rect  x="219" y="596" width="843" height="38" fill="#c6e3f9"/>
<line  x1="1038" y1="600" x2="1038" y2="625" stroke="#000000" stroke-width="1" fill="none"/>
<line  x1="1038" y1="600" x2="1053" y2="600" stroke="#000000" stroke-width="1" fill="none"/>
<line  x1="1053" y1="600" x2="1058" y2="605" stroke="#000000" stroke-width="1" fill="none"/>
<line  x1="1058" y1="605" x2="1058" y2="625" stroke="#000000" stroke-width="1" fill="none"/>
<line  x1="1058" y1="625" x2="1038" y2="625" stroke="#000000" stroke-width="1" fill="none"/>
<line  x1="1053" y1="600" x2="1053" y2="605" stroke="#000000" stroke-width="1" fill="none"/>
<line  x1="1053" y1="605" x2="1058" y2="605" stroke="#000000" stroke-width="1" fill="none"/>
<text  x="223" y="610" style="font-size:12; font-family:Dialog.plain; fill=#000000">AVATAR Design::CarPositionSimulator/out carPosition(int id, int position) #--# DSRSC_Management/in carPosition(int id, int position)</text>
<rect  x="218" y="574" width="928" height="40" fill="none" stroke="#000000" stroke-width="1"/>
<rect  x="219" y="575" width="926" height="38" fill="#c6e3f9"/>
<line  x1="1121" y1="579" x2="1121" y2="604" stroke="#000000" stroke-width="1" fill="none"/>
<line  x1="1121" y1="579" x2="1136" y2="579" stroke="#000000" stroke-width="1" fill="none"/>
<line  x1="1136" y1="579" x2="1141" y2="584" stroke="#000000" stroke-width="1" fill="none"/>
<line  x1="1141" y1="584" x2="1141" y2="604" stroke="#000000" stroke-width="1" fill="none"/>
<line  x1="1141" y1="604" x2="1121" y2="604" stroke="#000000" stroke-width="1" fill="none"/>
<line  x1="1136" y1="579" x2="1136" y2="584" stroke="#000000" stroke-width="1" fill="none"/>
<line  x1="1136" y1="584" x2="1141" y2="584" stroke="#000000" stroke-width="1" fill="none"/>
<text  x="223" y="589" style="font-size:12; font-family:Dialog.plain; fill=#000000">AVATAR Design::EmergencySimulator/out obstacleDetected(int id, int position) #--# DSRSC_Management/in obstacleDetected(int id, int position)</text>
<rect  x="218" y="552" width="878" height="40" fill="none" stroke="#000000" stroke-width="1"/>
<rect  x="219" y="553" width="876" height="38" fill="#c6e3f9"/>
<line  x1="1071" y1="557" x2="1071" y2="582" stroke="#000000" stroke-width="1" fill="none"/>
<line  x1="1071" y1="557" x2="1086" y2="557" stroke="#000000" stroke-width="1" fill="none"/>
<line  x1="1086" y1="557" x2="1091" y2="562" stroke="#000000" stroke-width="1" fill="none"/>
<line  x1="1091" y1="562" x2="1091" y2="582" stroke="#000000" stroke-width="1" fill="none"/>
<line  x1="1091" y1="582" x2="1071" y2="582" stroke="#000000" stroke-width="1" fill="none"/>
<line  x1="1086" y1="557" x2="1086" y2="562" stroke="#000000" stroke-width="1" fill="none"/>
<line  x1="1086" y1="562" x2="1091" y2="562" stroke="#000000" stroke-width="1" fill="none"/>
<text  x="223" y="567" style="font-size:12; font-family:Dialog.plain; fill=#000000">AVATAR Design::GPSSensor/out setPosition(int currentPosition) #--# NeighbourhoodTableManagement/in setPosition(int currentPosition)</text>
<rect  x="541" y="359" width="250" height="50" fill="none" stroke="#000000" stroke-width="1"/>
<line  x1="541" y1="359" x2="543" y2="356" stroke="#000000" stroke-width="1" fill="none"/>
<line  x1="791" y1="359" x2="793" y2="356" stroke="#000000" stroke-width="1" fill="none"/>
<line  x1="543" y1="356" x2="793" y2="356" stroke="#000000" stroke-width="1" fill="none"/>
<line  x1="791" y1="409" x2="793" y2="406" stroke="#000000" stroke-width="1" fill="none"/>
<line  x1="793" y1="356" x2="793" y2="406" stroke="#000000" stroke-width="1" fill="none"/>
<rect  x="542" y="360" width="248" height="48" fill="#d7bc80"/>
<text  x="630" y="374" style="font-size:12; font-family:Dialog.bold; font-weight=bold; fill=#000000">&lt;&lt;VGMN&gt;&gt;</text>
<text  x="645" y="389" style="font-size:12; font-family:Dialog.plain; fill=#000000">Bus0</text>
</svg>