<?xml version="1.0" standalone="no"?>
<!DOCTYPE svg PUBLIC "-//W3C//DTD SVG 1.1//EN" "http://www.w3.org/Graphics/SVG/1.1/DTD/svg11.dtd">
<svg xmlns="http://www.w3.org/2000/svg" version="1.1">
<rect  x="251" y="240" width="543" height="394" rx="5" ry="5" fill="#c1daf1"/>
<rect  x="251" y="240" width="543" height="394" rx="5" ry="5" fill="none" stroke="#000000" stroke-width="1"/>
<text  x="491" y="255" style="font-size:12; font-family:Dialog.bold; font-weight=bold; fill=#000000">Heating</text>
<line  x1="251" y1="257" x2="794" y2="257" stroke="#000000" stroke-width="1" fill="none"/>
<rect  x="571" y="393" width="200" height="50" rx="5" ry="5" fill="#c1daf1"/>
<rect  x="571" y="393" width="200" height="50" rx="5" ry="5" fill="none" stroke="#000000" stroke-width="1"/>
<text  x="583" y="408" style="font-size:12; font-family:Dialog.bold; font-weight=bold; fill=#000000">DoorOpenedWhileHeating</text>
<line  x1="571" y1="410" x2="771" y2="410" stroke="#000000" stroke-width="1" fill="none"/>
<rect  x="603" y="106" width="116" height="35" rx="5" ry="5" fill="#c1daf1"/>
<rect  x="603" y="106" width="116" height="35" rx="5" ry="5" fill="none" stroke="#000000" stroke-width="1"/>
<text  x="625" y="121" style="font-size:12; font-family:Dialog.bold; font-weight=bold; fill=#000000">DoorOpened</text>
<line  x1="603" y1="123" x2="719" y2="123" stroke="#000000" stroke-width="1" fill="none"/>
<line  x1="660" y1="163" x2="660" y2="158" stroke="#000000" stroke-width="1" fill="none"/>
<line  x1="660" y1="183" x2="660" y2="188" stroke="#000000" stroke-width="1" fill="none"/>
<line  x1="627" y1="164" x2="695" y2="164" stroke="#80b4cd" stroke-width="1" fill="none"/>
<line  x1="695" y1="164" x2="695" y2="184" stroke="#80b4cd" stroke-width="1" fill="none"/>
<line  x1="627" y1="184" x2="695" y2="184" stroke="#80b4cd" stroke-width="1" fill="none"/>
<line  x1="627" y1="164" x2="637" y2="174" stroke="#80b4cd" stroke-width="1" fill="none"/>
<line  x1="627" y1="184" x2="637" y2="174" stroke="#80b4cd" stroke-width="1" fill="none"/>
<line  x1="626" y1="163" x2="694" y2="163" stroke="#000000" stroke-width="1" fill="none"/>
<line  x1="694" y1="163" x2="694" y2="183" stroke="#000000" stroke-width="1" fill="none"/>
<line  x1="626" y1="183" x2="694" y2="183" stroke="#000000" stroke-width="1" fill="none"/>
<line  x1="626" y1="163" x2="636" y2="173" stroke="#000000" stroke-width="1" fill="none"/>
<line  x1="626" y1="183" x2="636" y2="173" stroke="#000000" stroke-width="1" fill="none"/>
<text  x="638" y="178" style="font-size:12; font-family:Dialog.plain; fill=#000000">closed()</text>
<line  x1="671" y1="478" x2="671" y2="473" stroke="#000000" stroke-width="1" fill="none"/>
<line  x1="671" y1="498" x2="671" y2="503" stroke="#000000" stroke-width="1" fill="none"/>
<line  x1="638" y1="479" x2="706" y2="479" stroke="#80b4cd" stroke-width="1" fill="none"/>
<line  x1="706" y1="479" x2="706" y2="499" stroke="#80b4cd" stroke-width="1" fill="none"/>
<line  x1="638" y1="499" x2="706" y2="499" stroke="#80b4cd" stroke-width="1" fill="none"/>
<line  x1="638" y1="479" x2="648" y2="489" stroke="#80b4cd" stroke-width="1" fill="none"/>
<line  x1="638" y1="499" x2="648" y2="489" stroke="#80b4cd" stroke-width="1" fill="none"/>
<line  x1="637" y1="478" x2="705" y2="478" stroke="#000000" stroke-width="1" fill="none"/>
<line  x1="705" y1="478" x2="705" y2="498" stroke="#000000" stroke-width="1" fill="none"/>
<line  x1="637" y1="498" x2="705" y2="498" stroke="#000000" stroke-width="1" fill="none"/>
<line  x1="637" y1="478" x2="647" y2="488" stroke="#000000" stroke-width="1" fill="none"/>
<line  x1="637" y1="498" x2="647" y2="488" stroke="#000000" stroke-width="1" fill="none"/>
<text  x="649" y="493" style="font-size:12; font-family:Dialog.plain; fill=#000000">closed()</text>
<line  x1="428" y1="311" x2="428" y2="306" stroke="#000000" stroke-width="1" fill="none"/>
<line  x1="428" y1="331" x2="428" y2="336" stroke="#000000" stroke-width="1" fill="none"/>
<line  x1="371" y1="312" x2="477" y2="312" stroke="#80b4cd" stroke-width="1" fill="none"/>
<line  x1="371" y1="332" x2="477" y2="332" stroke="#80b4cd" stroke-width="1" fill="none"/>
<line  x1="371" y1="312" x2="371" y2="332" stroke="#80b4cd" stroke-width="1" fill="none"/>
<line  x1="477" y1="312" x2="487" y2="322" stroke="#80b4cd" stroke-width="1" fill="none"/>
<line  x1="477" y1="332" x2="487" y2="322" stroke="#80b4cd" stroke-width="1" fill="none"/>
<line  x1="370" y1="311" x2="476" y2="311" stroke="#000000" stroke-width="1" fill="none"/>
<line  x1="370" y1="331" x2="476" y2="331" stroke="#000000" stroke-width="1" fill="none"/>
<line  x1="370" y1="311" x2="370" y2="331" stroke="#000000" stroke-width="1" fill="none"/>
<line  x1="476" y1="311" x2="486" y2="321" stroke="#000000" stroke-width="1" fill="none"/>
<line  x1="476" y1="331" x2="486" y2="321" stroke="#000000" stroke-width="1" fill="none"/>
<text  x="368" y="326" style="font-size:12; font-family:Dialog.plain; fill=#000000">startMagnetron()</text>
<line  x1="671" y1="556" x2="671" y2="551" stroke="#000000" stroke-width="1" fill="none"/>
<line  x1="671" y1="576" x2="671" y2="581" stroke="#000000" stroke-width="1" fill="none"/>
<line  x1="614" y1="557" x2="720" y2="557" stroke="#80b4cd" stroke-width="1" fill="none"/>
<line  x1="614" y1="577" x2="720" y2="577" stroke="#80b4cd" stroke-width="1" fill="none"/>
<line  x1="614" y1="557" x2="614" y2="577" stroke="#80b4cd" stroke-width="1" fill="none"/>
<line  x1="720" y1="557" x2="730" y2="567" stroke="#80b4cd" stroke-width="1" fill="none"/>
<line  x1="720" y1="577" x2="730" y2="567" stroke="#80b4cd" stroke-width="1" fill="none"/>
<line  x1="613" y1="556" x2="719" y2="556" stroke="#000000" stroke-width="1" fill="none"/>
<line  x1="613" y1="576" x2="719" y2="576" stroke="#000000" stroke-width="1" fill="none"/>
<line  x1="613" y1="556" x2="613" y2="576" stroke="#000000" stroke-width="1" fill="none"/>
<line  x1="719" y1="556" x2="729" y2="566" stroke="#000000" stroke-width="1" fill="none"/>
<line  x1="719" y1="576" x2="729" y2="566" stroke="#000000" stroke-width="1" fill="none"/>
<text  x="611" y="571" style="font-size:12; font-family:Dialog.plain; fill=#000000">startMagnetron()</text>
<line  x1="428" y1="512" x2="428" y2="507" stroke="#000000" stroke-width="1" fill="none"/>
<line  x1="428" y1="532" x2="428" y2="537" stroke="#000000" stroke-width="1" fill="none"/>
<line  x1="372" y1="513" x2="476" y2="513" stroke="#80b4cd" stroke-width="1" fill="none"/>
<line  x1="372" y1="533" x2="476" y2="533" stroke="#80b4cd" stroke-width="1" fill="none"/>
<line  x1="372" y1="513" x2="372" y2="533" stroke="#80b4cd" stroke-width="1" fill="none"/>
<line  x1="476" y1="513" x2="486" y2="523" stroke="#80b4cd" stroke-width="1" fill="none"/>
<line  x1="476" y1="533" x2="486" y2="523" stroke="#80b4cd" stroke-width="1" fill="none"/>
<line  x1="371" y1="512" x2="475" y2="512" stroke="#000000" stroke-width="1" fill="none"/>
<line  x1="371" y1="532" x2="475" y2="532" stroke="#000000" stroke-width="1" fill="none"/>
<line  x1="371" y1="512" x2="371" y2="532" stroke="#000000" stroke-width="1" fill="none"/>
<line  x1="475" y1="512" x2="485" y2="522" stroke="#000000" stroke-width="1" fill="none"/>
<line  x1="475" y1="532" x2="485" y2="522" stroke="#000000" stroke-width="1" fill="none"/>
<text  x="371" y="527" style="font-size:12; font-family:Dialog.plain; fill=#000000">stopMagnetron()</text>
<line  x1="669" y1="305" x2="669" y2="300" stroke="#000000" stroke-width="1" fill="none"/>
<line  x1="669" y1="325" x2="669" y2="330" stroke="#000000" stroke-width="1" fill="none"/>
<line  x1="613" y1="306" x2="717" y2="306" stroke="#80b4cd" stroke-width="1" fill="none"/>
<line  x1="613" y1="326" x2="717" y2="326" stroke="#80b4cd" stroke-width="1" fill="none"/>
<line  x1="613" y1="306" x2="613" y2="326" stroke="#80b4cd" stroke-width="1" fill="none"/>
<line  x1="717" y1="306" x2="727" y2="316" stroke="#80b4cd" stroke-width="1" fill="none"/>
<line  x1="717" y1="326" x2="727" y2="316" stroke="#80b4cd" stroke-width="1" fill="none"/>
<line  x1="612" y1="305" x2="716" y2="305" stroke="#000000" stroke-width="1" fill="none"/>
<line  x1="612" y1="325" x2="716" y2="325" stroke="#000000" stroke-width="1" fill="none"/>
<line  x1="612" y1="305" x2="612" y2="325" stroke="#000000" stroke-width="1" fill="none"/>
<line  x1="716" y1="305" x2="726" y2="315" stroke="#000000" stroke-width="1" fill="none"/>
<line  x1="716" y1="325" x2="726" y2="315" stroke="#000000" stroke-width="1" fill="none"/>
<text  x="612" y="320" style="font-size:12; font-family:Dialog.plain; fill=#000000">stopMagnetron()</text>
<ellipse  cx="430" cy="87" rx="7" ry="7" fill="#000000"/>
<line  x1="430" y1="95" x2="430" y2="100" stroke="#000000" stroke-width="1" fill="none"/>
<line  x1="427" y1="190" x2="427" y2="185" stroke="#000000" stroke-width="1" fill="none"/>
<line  x1="427" y1="210" x2="427" y2="215" stroke="#000000" stroke-width="1" fill="none"/>
<line  x1="374" y1="191" x2="482" y2="191" stroke="#80b4cd" stroke-width="1" fill="none"/>
<line  x1="482" y1="191" x2="482" y2="211" stroke="#80b4cd" stroke-width="1" fill="none"/>
<line  x1="374" y1="211" x2="482" y2="211" stroke="#80b4cd" stroke-width="1" fill="none"/>
<line  x1="374" y1="191" x2="384" y2="201" stroke="#80b4cd" stroke-width="1" fill="none"/>
<line  x1="374" y1="211" x2="384" y2="201" stroke="#80b4cd" stroke-width="1" fill="none"/>
<line  x1="373" y1="190" x2="481" y2="190" stroke="#000000" stroke-width="1" fill="none"/>
<line  x1="481" y1="190" x2="481" y2="210" stroke="#000000" stroke-width="1" fill="none"/>
<line  x1="373" y1="210" x2="481" y2="210" stroke="#000000" stroke-width="1" fill="none"/>
<line  x1="373" y1="190" x2="383" y2="200" stroke="#000000" stroke-width="1" fill="none"/>
<line  x1="373" y1="210" x2="383" y2="200" stroke="#000000" stroke-width="1" fill="none"/>
<text  x="385" y="205" style="font-size:12; font-family:Dialog.plain; fill=#000000">start(duration)</text>
<rect  x="389" y="119" width="82" height="45" rx="5" ry="5" fill="#c1daf1"/>
<rect  x="389" y="119" width="82" height="45" rx="5" ry="5" fill="none" stroke="#000000" stroke-width="1"/>
<text  x="416" y="134" style="font-size:12; font-family:Dialog.bold; font-weight=bold; fill=#000000">Idle</text>
<line  x1="389" y1="136" x2="471" y2="136" stroke="#000000" stroke-width="1" fill="none"/>
<line  x1="659" y1="31" x2="659" y2="26" stroke="#000000" stroke-width="1" fill="none"/>
<line  x1="659" y1="51" x2="659" y2="56" stroke="#000000" stroke-width="1" fill="none"/>
<line  x1="631" y1="32" x2="689" y2="32" stroke="#80b4cd" stroke-width="1" fill="none"/>
<line  x1="689" y1="32" x2="689" y2="52" stroke="#80b4cd" stroke-width="1" fill="none"/>
<line  x1="631" y1="52" x2="689" y2="52" stroke="#80b4cd" stroke-width="1" fill="none"/>
<line  x1="631" y1="32" x2="641" y2="42" stroke="#80b4cd" stroke-width="1" fill="none"/>
<line  x1="631" y1="52" x2="641" y2="42" stroke="#80b4cd" stroke-width="1" fill="none"/>
<line  x1="630" y1="31" x2="688" y2="31" stroke="#000000" stroke-width="1" fill="none"/>
<line  x1="688" y1="31" x2="688" y2="51" stroke="#000000" stroke-width="1" fill="none"/>
<line  x1="630" y1="51" x2="688" y2="51" stroke="#000000" stroke-width="1" fill="none"/>
<line  x1="630" y1="31" x2="640" y2="41" stroke="#000000" stroke-width="1" fill="none"/>
<line  x1="630" y1="51" x2="640" y2="41" stroke="#000000" stroke-width="1" fill="none"/>
<text  x="642" y="46" style="font-size:12; font-family:Dialog.plain; fill=#000000">open()</text>
<line  x1="428" y1="554" x2="428" y2="549" stroke="#000000" stroke-width="1" fill="none"/>
<line  x1="428" y1="574" x2="428" y2="579" stroke="#000000" stroke-width="1" fill="none"/>
<line  x1="397" y1="555" x2="452" y2="555" stroke="#80b4cd" stroke-width="1" fill="none"/>
<line  x1="397" y1="575" x2="452" y2="575" stroke="#80b4cd" stroke-width="1" fill="none"/>
<line  x1="397" y1="555" x2="397" y2="575" stroke="#80b4cd" stroke-width="1" fill="none"/>
<line  x1="452" y1="555" x2="462" y2="565" stroke="#80b4cd" stroke-width="1" fill="none"/>
<line  x1="452" y1="575" x2="462" y2="565" stroke="#80b4cd" stroke-width="1" fill="none"/>
<line  x1="396" y1="554" x2="451" y2="554" stroke="#000000" stroke-width="1" fill="none"/>
<line  x1="396" y1="574" x2="451" y2="574" stroke="#000000" stroke-width="1" fill="none"/>
<line  x1="396" y1="554" x2="396" y2="574" stroke="#000000" stroke-width="1" fill="none"/>
<line  x1="451" y1="554" x2="461" y2="564" stroke="#000000" stroke-width="1" fill="none"/>
<line  x1="451" y1="574" x2="461" y2="564" stroke="#000000" stroke-width="1" fill="none"/>
<text  x="397" y="569" style="font-size:12; font-family:Dialog.plain; fill=#000000">ringBell()</text>
<line  x1="459" y1="556" x2="455" y2="560" stroke="#ff0000" stroke-width="1" fill="none"/>
<line  x1="455" y1="556" x2="459" y2="560" stroke="#ff0000" stroke-width="1" fill="none"/>
<rect  x="378" y="395" width="100" height="50" rx="5" ry="5" fill="#c1daf1"/>
<rect  x="378" y="395" width="100" height="50" rx="5" ry="5" fill="none" stroke="#000000" stroke-width="1"/>
<text  x="396" y="410" style="font-size:12; font-family:Dialog.bold; font-weight=bold; fill=#000000">Heating</text>
<line  x1="378" y1="412" x2="478" y2="412" stroke="#000000" stroke-width="1" fill="none"/>
<line  x1="670" y1="262" x2="670" y2="257" stroke="#000000" stroke-width="1" fill="none"/>
<line  x1="670" y1="282" x2="670" y2="287" stroke="#000000" stroke-width="1" fill="none"/>
<line  x1="642" y1="263" x2="700" y2="263" stroke="#80b4cd" stroke-width="1" fill="none"/>
<line  x1="700" y1="263" x2="700" y2="283" stroke="#80b4cd" stroke-width="1" fill="none"/>
<line  x1="642" y1="283" x2="700" y2="283" stroke="#80b4cd" stroke-width="1" fill="none"/>
<line  x1="642" y1="263" x2="652" y2="273" stroke="#80b4cd" stroke-width="1" fill="none"/>
<line  x1="642" y1="283" x2="652" y2="273" stroke="#80b4cd" stroke-width="1" fill="none"/>
<line  x1="641" y1="262" x2="699" y2="262" stroke="#000000" stroke-width="1" fill="none"/>
<line  x1="699" y1="262" x2="699" y2="282" stroke="#000000" stroke-width="1" fill="none"/>
<line  x1="641" y1="282" x2="699" y2="282" stroke="#000000" stroke-width="1" fill="none"/>
<line  x1="641" y1="262" x2="651" y2="272" stroke="#000000" stroke-width="1" fill="none"/>
<line  x1="641" y1="282" x2="651" y2="272" stroke="#000000" stroke-width="1" fill="none"/>
<text  x="653" y="277" style="font-size:12; font-family:Dialog.plain; fill=#000000">open()</text>
<rect  x="378" y="264" width="100" height="31" rx="5" ry="5" fill="#c1daf1"/>
<rect  x="378" y="264" width="100" height="31" rx="5" ry="5" fill="none" stroke="#000000" stroke-width="1"/>
<text  x="400" y="279" style="font-size:12; font-family:Dialog.bold; font-weight=bold; fill=#000000">Starting</text>
<line  x1="378" y1="281" x2="478" y2="281" stroke="#000000" stroke-width="1" fill="none"/>
<line  x1="660" y1="69" x2="660" y2="64" stroke="#000000" stroke-width="1" fill="none"/>
<line  x1="660" y1="89" x2="660" y2="94" stroke="#000000" stroke-width="1" fill="none"/>
<line  x1="629" y1="70" x2="684" y2="70" stroke="#80b4cd" stroke-width="1" fill="none"/>
<line  x1="629" y1="90" x2="684" y2="90" stroke="#80b4cd" stroke-width="1" fill="none"/>
<line  x1="629" y1="70" x2="629" y2="90" stroke="#80b4cd" stroke-width="1" fill="none"/>
<line  x1="684" y1="70" x2="694" y2="80" stroke="#80b4cd" stroke-width="1" fill="none"/>
<line  x1="684" y1="90" x2="694" y2="80" stroke="#80b4cd" stroke-width="1" fill="none"/>
<line  x1="628" y1="69" x2="683" y2="69" stroke="#000000" stroke-width="1" fill="none"/>
<line  x1="628" y1="89" x2="683" y2="89" stroke="#000000" stroke-width="1" fill="none"/>
<line  x1="628" y1="69" x2="628" y2="89" stroke="#000000" stroke-width="1" fill="none"/>
<line  x1="683" y1="69" x2="693" y2="79" stroke="#000000" stroke-width="1" fill="none"/>
<line  x1="683" y1="89" x2="693" y2="79" stroke="#000000" stroke-width="1" fill="none"/>
<text  x="629" y="84" style="font-size:12; font-family:Dialog.plain; fill=#000000">okDoor()</text>
<line  x1="656" y1="201" x2="656" y2="196" stroke="#000000" stroke-width="1" fill="none"/>
<line  x1="656" y1="221" x2="656" y2="226" stroke="#000000" stroke-width="1" fill="none"/>
<line  x1="625" y1="202" x2="680" y2="202" stroke="#80b4cd" stroke-width="1" fill="none"/>
<line  x1="625" y1="222" x2="680" y2="222" stroke="#80b4cd" stroke-width="1" fill="none"/>
<line  x1="625" y1="202" x2="625" y2="222" stroke="#80b4cd" stroke-width="1" fill="none"/>
<line  x1="680" y1="202" x2="690" y2="212" stroke="#80b4cd" stroke-width="1" fill="none"/>
<line  x1="680" y1="222" x2="690" y2="212" stroke="#80b4cd" stroke-width="1" fill="none"/>
<line  x1="624" y1="201" x2="679" y2="201" stroke="#000000" stroke-width="1" fill="none"/>
<line  x1="624" y1="221" x2="679" y2="221" stroke="#000000" stroke-width="1" fill="none"/>
<line  x1="624" y1="201" x2="624" y2="221" stroke="#000000" stroke-width="1" fill="none"/>
<line  x1="679" y1="201" x2="689" y2="211" stroke="#000000" stroke-width="1" fill="none"/>
<line  x1="679" y1="221" x2="689" y2="211" stroke="#000000" stroke-width="1" fill="none"/>
<text  x="625" y="216" style="font-size:12; font-family:Dialog.plain; fill=#000000">okDoor()</text>
<line  x1="669" y1="341" x2="669" y2="336" stroke="#000000" stroke-width="1" fill="none"/>
<line  x1="669" y1="361" x2="669" y2="366" stroke="#000000" stroke-width="1" fill="none"/>
<line  x1="638" y1="342" x2="693" y2="342" stroke="#80b4cd" stroke-width="1" fill="none"/>
<line  x1="638" y1="362" x2="693" y2="362" stroke="#80b4cd" stroke-width="1" fill="none"/>
<line  x1="638" y1="342" x2="638" y2="362" stroke="#80b4cd" stroke-width="1" fill="none"/>
<line  x1="693" y1="342" x2="703" y2="352" stroke="#80b4cd" stroke-width="1" fill="none"/>
<line  x1="693" y1="362" x2="703" y2="352" stroke="#80b4cd" stroke-width="1" fill="none"/>
<line  x1="637" y1="341" x2="692" y2="341" stroke="#000000" stroke-width="1" fill="none"/>
<line  x1="637" y1="361" x2="692" y2="361" stroke="#000000" stroke-width="1" fill="none"/>
<line  x1="637" y1="341" x2="637" y2="361" stroke="#000000" stroke-width="1" fill="none"/>
<line  x1="692" y1="341" x2="702" y2="351" stroke="#000000" stroke-width="1" fill="none"/>
<line  x1="692" y1="361" x2="702" y2="351" stroke="#000000" stroke-width="1" fill="none"/>
<text  x="638" y="356" style="font-size:12; font-family:Dialog.plain; fill=#000000">okDoor()</text>
<line  x1="671" y1="514" x2="671" y2="509" stroke="#000000" stroke-width="1" fill="none"/>
<line  x1="671" y1="534" x2="671" y2="539" stroke="#000000" stroke-width="1" fill="none"/>
<line  x1="640" y1="515" x2="695" y2="515" stroke="#80b4cd" stroke-width="1" fill="none"/>
<line  x1="640" y1="535" x2="695" y2="535" stroke="#80b4cd" stroke-width="1" fill="none"/>
<line  x1="640" y1="515" x2="640" y2="535" stroke="#80b4cd" stroke-width="1" fill="none"/>
<line  x1="695" y1="515" x2="705" y2="525" stroke="#80b4cd" stroke-width="1" fill="none"/>
<line  x1="695" y1="535" x2="705" y2="525" stroke="#80b4cd" stroke-width="1" fill="none"/>
<line  x1="639" y1="514" x2="694" y2="514" stroke="#000000" stroke-width="1" fill="none"/>
<line  x1="639" y1="534" x2="694" y2="534" stroke="#000000" stroke-width="1" fill="none"/>
<line  x1="639" y1="514" x2="639" y2="534" stroke="#000000" stroke-width="1" fill="none"/>
<line  x1="694" y1="514" x2="704" y2="524" stroke="#000000" stroke-width="1" fill="none"/>
<line  x1="694" y1="534" x2="704" y2="524" stroke="#000000" stroke-width="1" fill="none"/>
<text  x="640" y="529" style="font-size:12; font-family:Dialog.plain; fill=#000000">okDoor()</text>
<line  x1="670" y1="287" x2="669" y2="300" stroke="#000000" stroke-width="1" fill="none"/>
<line  x1="661" y1="141" x2="660" y2="158" stroke="#000000" stroke-width="1" fill="none"/>
<polygon  points="660,158 655,149 665,149 " fill="#000000"/>
<polygon  points="660,158 655,149 665,149 " fill="none" stroke="#000000" stroke-width="1"/>
<line  x1="660" y1="94" x2="661" y2="106" stroke="#000000" stroke-width="1" fill="none"/>
<line  x1="428" y1="295" x2="428" y2="306" stroke="#000000" stroke-width="1" fill="none"/>
<line  x1="430" y1="100" x2="430" y2="119" stroke="#000000" stroke-width="1" fill="none"/>
<polygon  points="430,119 425,110 434,110 " fill="#000000"/>
<polygon  points="430,119 425,110 434,110 " fill="none" stroke="#000000" stroke-width="1"/>
<line  x1="450" y1="164" x2="427" y2="185" stroke="#000000" stroke-width="1" fill="none"/>
<polygon  points="427,185 430,175 436,182 " fill="#000000"/>
<polygon  points="427,185 430,175 436,182 " fill="none" stroke="#000000" stroke-width="1"/>
<line  x1="471" y1="141" x2="659" y2="26" stroke="#000000" stroke-width="1" fill="none"/>
<polygon  points="659,26 654,34 649,26 " fill="#000000"/>
<polygon  points="659,26 654,34 649,26 " fill="none" stroke="#000000" stroke-width="1"/>
<line  x1="428" y1="537" x2="428" y2="549" stroke="#000000" stroke-width="1" fill="none"/>
<line  x1="428" y1="579" x2="428" y2="603" stroke="#000000" stroke-width="1" fill="none"/>
<line  x1="428" y1="603" x2="220" y2="603" stroke="#000000" stroke-width="1" fill="none"/>
<line  x1="220" y1="603" x2="220" y2="83" stroke="#000000" stroke-width="1" fill="none"/>
<line  x1="220" y1="83" x2="389" y2="83" stroke="#000000" stroke-width="1" fill="none"/>
<line  x1="389" y1="83" x2="389" y2="119" stroke="#000000" stroke-width="1" fill="none"/>
<polygon  points="389,119 384,110 393,110 " fill="#000000"/>
<polygon  points="389,119 384,110 393,110 " fill="none" stroke="#000000" stroke-width="1"/>
<line  x1="428" y1="336" x2="415" y2="395" stroke="#000000" stroke-width="1" fill="none"/>
<polygon  points="415,395 411,385 421,387 " fill="#000000"/>
<polygon  points="415,395 411,385 421,387 " fill="none" stroke="#000000" stroke-width="1"/>
<text  x="274" y="356" style="font-size:12; font-family:Dialog.plain; fill=#7710f3">remainingTime=duration</text>
<line  x1="428" y1="445" x2="428" y2="507" stroke="#000000" stroke-width="1" fill="none"/>
<polygon  points="428,507 423,498 432,498 " fill="#000000"/>
<polygon  points="428,507 423,498 432,498 " fill="none" stroke="#000000" stroke-width="1"/>
<text  x="410" y="472" style="font-size:12; font-family:Dialog.plain; fill=#00591a">[ remainingTime==0 ]</text>
<line  x1="478" y1="420" x2="670" y2="257" stroke="#000000" stroke-width="1" fill="none"/>
<polygon  points="670,257 666,266 660,258 " fill="#000000"/>
<polygon  points="670,257 666,266 660,258 " fill="none" stroke="#000000" stroke-width="1"/>
<line  x1="403" y1="445" x2="403" y2="480" stroke="#000000" stroke-width="1" fill="none"/>
<line  x1="403" y1="480" x2="319" y2="480" stroke="#000000" stroke-width="1" fill="none"/>
<line  x1="319" y1="480" x2="319" y2="432" stroke="#000000" stroke-width="1" fill="none"/>
<line  x1="319" y1="432" x2="378" y2="432" stroke="#000000" stroke-width="1" fill="none"/>
<polygon  points="378,432 369,436 369,427 " fill="#000000"/>
<polygon  points="378,432 369,436 369,427 " fill="none" stroke="#000000" stroke-width="1"/>
<text  x="166" y="446" style="font-size:12; font-family:Dialog.plain; fill=#00591a">[ remainingTime&gt;0 ]</text>
<text  x="166" y="460" style="font-size:12; font-family:Dialog.plain; fill=#694b0b">after (1,1)</text>
<text  x="166" y="474" style="font-size:12; font-family:Dialog.plain; fill=#7710f3">remainingTime= remainingTime -1</text>
<line  x1="669" y1="366" x2="671" y2="393" stroke="#000000" stroke-width="1" fill="none"/>
<polygon  points="671,393 665,384 675,383 " fill="#000000"/>
<polygon  points="671,393 665,384 675,383 " fill="none" stroke="#000000" stroke-width="1"/>
<line  x1="671" y1="581" x2="671" y2="595" stroke="#000000" stroke-width="1" fill="none"/>
<line  x1="671" y1="595" x2="548" y2="595" stroke="#000000" stroke-width="1" fill="none"/>
<line  x1="548" y1="595" x2="548" y2="432" stroke="#000000" stroke-width="1" fill="none"/>
<line  x1="548" y1="432" x2="478" y2="432" stroke="#000000" stroke-width="1" fill="none"/>
<polygon  points="478,432 486,427 486,436 " fill="#000000"/>
<polygon  points="478,432 486,427 486,436 " fill="none" stroke="#000000" stroke-width="1"/>
<line  x1="671" y1="443" x2="671" y2="473" stroke="#000000" stroke-width="1" fill="none"/>
<polygon  points="671,473 666,464 675,464 " fill="#000000"/>
<polygon  points="671,473 666,464 675,464 " fill="none" stroke="#000000" stroke-width="1"/>
<line  x1="427" y1="215" x2="453" y2="264" stroke="#000000" stroke-width="1" fill="none"/>
<polygon  points="453,264 444,258 453,254 " fill="#000000"/>
<polygon  points="453,264 444,258 453,254 " fill="none" stroke="#000000" stroke-width="1"/>
<line  x1="656" y1="226" x2="471" y2="158" stroke="#000000" stroke-width="1" fill="none"/>
<polygon  points="471,158 480,156 477,165 " fill="#000000"/>
<polygon  points="471,158 480,156 477,165 " fill="none" stroke="#000000" stroke-width="1"/>
<line  x1="659" y1="56" x2="660" y2="64" stroke="#000000" stroke-width="1" fill="none"/>
<line  x1="671" y1="503" x2="671" y2="509" stroke="#000000" stroke-width="1" fill="none"/>
<line  x1="671" y1="539" x2="671" y2="551" stroke="#000000" stroke-width="1" fill="none"/>
<line  x1="660" y1="188" x2="656" y2="196" stroke="#000000" stroke-width="1" fill="none"/>
<line  x1="669" y1="330" x2="669" y2="336" stroke="#000000" stroke-width="1" fill="none"/>
</svg>