<?xml version="1.0" standalone="no"?>
<!DOCTYPE svg PUBLIC "-//W3C//DTD SVG 1.1//EN" "http://www.w3.org/Graphics/SVG/1.1/DTD/svg11.dtd">
<svg xmlns="http://www.w3.org/2000/svg" version="1.1">
<rect  x="365" y="96" width="84" height="35" rx="5" ry="5" fill="#c1daf1"/>
<rect  x="365" y="96" width="84" height="35" rx="5" ry="5" fill="none" stroke="#000000" stroke-width="1"/>
<text  x="361" y="111" style="font-size:12; font-family:Dialog.bold; font-weight=bold; fill=#000000">WaitForStart</text>
<line  x1="365" y1="113" x2="449" y2="113" stroke="#000000" stroke-width="1" fill="none"/>
<ellipse  cx="407" cy="57" rx="7" ry="7" fill="#000000"/>
<line  x1="407" y1="65" x2="407" y2="70" stroke="#000000" stroke-width="1" fill="none"/>
<rect  x="373" y="202" width="71" height="40" rx="5" ry="5" fill="#c1daf1"/>
<rect  x="373" y="202" width="71" height="40" rx="5" ry="5" fill="none" stroke="#000000" stroke-width="1"/>
<text  x="384" y="217" style="font-size:12; font-family:Dialog.bold; font-weight=bold; fill=#000000">Running</text>
<line  x1="373" y1="219" x2="444" y2="219" stroke="#000000" stroke-width="1" fill="none"/>
<line  x1="407" y1="285" x2="407" y2="280" stroke="#000000" stroke-width="1" fill="none"/>
<line  x1="407" y1="305" x2="407" y2="310" stroke="#000000" stroke-width="1" fill="none"/>
<line  x1="376" y1="286" x2="441" y2="286" stroke="#80b4cd" stroke-width="1" fill="none"/>
<line  x1="441" y1="286" x2="441" y2="306" stroke="#80b4cd" stroke-width="1" fill="none"/>
<line  x1="376" y1="306" x2="441" y2="306" stroke="#80b4cd" stroke-width="1" fill="none"/>
<line  x1="376" y1="286" x2="386" y2="296" stroke="#80b4cd" stroke-width="1" fill="none"/>
<line  x1="376" y1="306" x2="386" y2="296" stroke="#80b4cd" stroke-width="1" fill="none"/>
<line  x1="375" y1="285" x2="440" y2="285" stroke="#000000" stroke-width="1" fill="none"/>
<line  x1="440" y1="285" x2="440" y2="305" stroke="#000000" stroke-width="1" fill="none"/>
<line  x1="375" y1="305" x2="440" y2="305" stroke="#000000" stroke-width="1" fill="none"/>
<line  x1="375" y1="285" x2="385" y2="295" stroke="#000000" stroke-width="1" fill="none"/>
<line  x1="375" y1="305" x2="385" y2="295" stroke="#000000" stroke-width="1" fill="none"/>
<text  x="387" y="300" style="font-size:12; font-family:Dialog.plain; fill=#000000">stopM()</text>
<line  x1="495" y1="159" x2="495" y2="154" stroke="#000000" stroke-width="1" fill="none"/>
<line  x1="495" y1="179" x2="495" y2="184" stroke="#000000" stroke-width="1" fill="none"/>
<line  x1="463" y1="160" x2="530" y2="160" stroke="#80b4cd" stroke-width="1" fill="none"/>
<line  x1="530" y1="160" x2="530" y2="180" stroke="#80b4cd" stroke-width="1" fill="none"/>
<line  x1="463" y1="180" x2="530" y2="180" stroke="#80b4cd" stroke-width="1" fill="none"/>
<line  x1="463" y1="160" x2="473" y2="170" stroke="#80b4cd" stroke-width="1" fill="none"/>
<line  x1="463" y1="180" x2="473" y2="170" stroke="#80b4cd" stroke-width="1" fill="none"/>
<line  x1="462" y1="159" x2="529" y2="159" stroke="#000000" stroke-width="1" fill="none"/>
<line  x1="529" y1="159" x2="529" y2="179" stroke="#000000" stroke-width="1" fill="none"/>
<line  x1="462" y1="179" x2="529" y2="179" stroke="#000000" stroke-width="1" fill="none"/>
<line  x1="462" y1="159" x2="472" y2="169" stroke="#000000" stroke-width="1" fill="none"/>
<line  x1="462" y1="179" x2="472" y2="169" stroke="#000000" stroke-width="1" fill="none"/>
<text  x="474" y="174" style="font-size:12; font-family:Dialog.plain; fill=#000000">startM()</text>
<line  x1="495" y1="184" x2="444" y2="202" stroke="#000000" stroke-width="1" fill="none"/>
<polygon  points="444,202 450,194 453,203 " fill="#000000"/>
<polygon  points="444,202 450,194 453,203 " fill="none" stroke="#000000" stroke-width="1"/>
<line  x1="449" y1="131" x2="495" y2="154" stroke="#000000" stroke-width="1" fill="none"/>
<polygon  points="495,154 485,154 489,145 " fill="#000000"/>
<polygon  points="495,154 485,154 489,145 " fill="none" stroke="#000000" stroke-width="1"/>
<line  x1="407" y1="70" x2="407" y2="96" stroke="#000000" stroke-width="1" fill="none"/>
<polygon  points="407,96 402,87 411,87 " fill="#000000"/>
<polygon  points="407,96 402,87 411,87 " fill="none" stroke="#000000" stroke-width="1"/>
<line  x1="408" y1="242" x2="407" y2="280" stroke="#000000" stroke-width="1" fill="none"/>
<polygon  points="407,280 402,271 412,271 " fill="#000000"/>
<polygon  points="407,280 402,271 412,271 " fill="none" stroke="#000000" stroke-width="1"/>
<line  x1="407" y1="310" x2="407" y2="327" stroke="#000000" stroke-width="1" fill="none"/>
<line  x1="407" y1="327" x2="323" y2="327" stroke="#000000" stroke-width="1" fill="none"/>
<line  x1="323" y1="327" x2="323" y2="113" stroke="#000000" stroke-width="1" fill="none"/>
<line  x1="323" y1="113" x2="365" y2="113" stroke="#000000" stroke-width="1" fill="none"/>
<polygon  points="365,113 356,117 356,108 " fill="#000000"/>
<polygon  points="365,113 356,117 356,108 " fill="none" stroke="#000000" stroke-width="1"/>
</svg>