<?xml version="1.0" standalone="no"?>
<!DOCTYPE svg PUBLIC "-//W3C//DTD SVG 1.1//EN" "http://www.w3.org/Graphics/SVG/1.1/DTD/svg11.dtd">
<svg xmlns="http://www.w3.org/2000/svg" version="1.1">
<line  x1="203" y1="210" x2="415" y2="343" stroke="#000000" stroke-width="1" fill="none"/>
<line  x1="440" y1="210" x2="478" y2="343" stroke="#000000" stroke-width="1" fill="none"/>
<line  x1="731" y1="210" x2="540" y2="343" stroke="#000000" stroke-width="1" fill="none"/>
<line  x1="261" y1="534" x2="415" y2="393" stroke="#000000" stroke-width="1" fill="none"/>
<line  x1="763" y1="533" x2="540" y2="393" stroke="#000000" stroke-width="1" fill="none"/>
<rect  x="16" y="10" width="250" height="200" fill="none" stroke="#000000" stroke-width="1"/>
<line  x1="16" y1="10" x2="18" y2="7" stroke="#000000" stroke-width="1" fill="none"/>
<line  x1="266" y1="10" x2="268" y2="7" stroke="#000000" stroke-width="1" fill="none"/>
<line  x1="18" y1="7" x2="268" y2="7" stroke="#000000" stroke-width="1" fill="none"/>
<line  x1="266" y1="210" x2="268" y2="207" stroke="#000000" stroke-width="1" fill="none"/>
<line  x1="268" y1="7" x2="268" y2="207" stroke="#000000" stroke-width="1" fill="none"/>
<rect  x="17" y="11" width="248" height="198" fill="#c6ebf9"/>
<text  x="113" y="25" style="font-size:12; font-family:Dialog.bold; font-weight=bold; fill=#000000">&lt;&lt;CPU&gt;&gt;</text>
<text  x="116" y="40" style="font-size:12; font-family:Dialog.plain; fill=#000000">CPU0</text>
<rect  x="43" y="147" width="149" height="40" fill="none" stroke="#000000" stroke-width="1"/>
<rect  x="44" y="148" width="147" height="38" fill="#c6e3f9"/>
<line  x1="167" y1="152" x2="167" y2="177" stroke="#000000" stroke-width="1" fill="none"/>
<line  x1="167" y1="152" x2="182" y2="152" stroke="#000000" stroke-width="1" fill="none"/>
<line  x1="182" y1="152" x2="187" y2="157" stroke="#000000" stroke-width="1" fill="none"/>
<line  x1="187" y1="157" x2="187" y2="177" stroke="#000000" stroke-width="1" fill="none"/>
<line  x1="187" y1="177" x2="167" y2="177" stroke="#000000" stroke-width="1" fill="none"/>
<line  x1="182" y1="152" x2="182" y2="157" stroke="#000000" stroke-width="1" fill="none"/>
<line  x1="182" y1="157" x2="187" y2="157" stroke="#000000" stroke-width="1" fill="none"/>
<text  x="48" y="162" style="font-size:12; font-family:Dialog.plain; fill=#000000">Design::Magnetron</text>
<rect  x="44" y="102" width="144" height="40" fill="none" stroke="#000000" stroke-width="1"/>
<rect  x="45" y="103" width="142" height="38" fill="#c6e3f9"/>
<line  x1="163" y1="107" x2="163" y2="132" stroke="#000000" stroke-width="1" fill="none"/>
<line  x1="163" y1="107" x2="178" y2="107" stroke="#000000" stroke-width="1" fill="none"/>
<line  x1="178" y1="107" x2="183" y2="112" stroke="#000000" stroke-width="1" fill="none"/>
<line  x1="183" y1="112" x2="183" y2="132" stroke="#000000" stroke-width="1" fill="none"/>
<line  x1="183" y1="132" x2="163" y2="132" stroke="#000000" stroke-width="1" fill="none"/>
<line  x1="178" y1="107" x2="178" y2="112" stroke="#000000" stroke-width="1" fill="none"/>
<line  x1="178" y1="112" x2="183" y2="112" stroke="#000000" stroke-width="1" fill="none"/>
<text  x="49" y="117" style="font-size:12; font-family:Dialog.plain; fill=#000000">Design::Controller</text>
<rect  x="44" y="56" width="183" height="40" fill="none" stroke="#000000" stroke-width="1"/>
<rect  x="45" y="57" width="181" height="38" fill="#c6e3f9"/>
<line  x1="202" y1="61" x2="202" y2="86" stroke="#000000" stroke-width="1" fill="none"/>
<line  x1="202" y1="61" x2="217" y2="61" stroke="#000000" stroke-width="1" fill="none"/>
<line  x1="217" y1="61" x2="222" y2="66" stroke="#000000" stroke-width="1" fill="none"/>
<line  x1="222" y1="66" x2="222" y2="86" stroke="#000000" stroke-width="1" fill="none"/>
<line  x1="222" y1="86" x2="202" y2="86" stroke="#000000" stroke-width="1" fill="none"/>
<line  x1="217" y1="61" x2="217" y2="66" stroke="#000000" stroke-width="1" fill="none"/>
<line  x1="217" y1="66" x2="222" y2="66" stroke="#000000" stroke-width="1" fill="none"/>
<text  x="49" y="71" style="font-size:12; font-family:Dialog.plain; fill=#000000">Design::MicroWaveOven</text>
<rect  x="28" y="534" width="467" height="216" fill="none" stroke="#000000" stroke-width="1"/>
<line  x1="28" y1="534" x2="30" y2="531" stroke="#000000" stroke-width="1" fill="none"/>
<line  x1="495" y1="534" x2="497" y2="531" stroke="#000000" stroke-width="1" fill="none"/>
<line  x1="30" y1="531" x2="497" y2="531" stroke="#000000" stroke-width="1" fill="none"/>
<line  x1="495" y1="750" x2="497" y2="747" stroke="#000000" stroke-width="1" fill="none"/>
<line  x1="497" y1="531" x2="497" y2="747" stroke="#000000" stroke-width="1" fill="none"/>
<rect  x="29" y="535" width="465" height="214" fill="#acead3"/>
<text  x="233" y="549" style="font-size:12; font-family:Dialog.bold; font-weight=bold; fill=#000000">&lt;&lt;RAM&gt;&gt;</text>
<text  x="219" y="564" style="font-size:12; font-family:Dialog.plain; fill=#000000">Memory0</text>
<rect  x="39" y="701" width="446" height="40" fill="none" stroke="#000000" stroke-width="1"/>
<rect  x="40" y="702" width="444" height="38" fill="#c6e3f9"/>
<line  x1="460" y1="706" x2="460" y2="731" stroke="#000000" stroke-width="1" fill="none"/>
<line  x1="460" y1="706" x2="475" y2="706" stroke="#000000" stroke-width="1" fill="none"/>
<line  x1="475" y1="706" x2="480" y2="711" stroke="#000000" stroke-width="1" fill="none"/>
<line  x1="480" y1="711" x2="480" y2="731" stroke="#000000" stroke-width="1" fill="none"/>
<line  x1="480" y1="731" x2="460" y2="731" stroke="#000000" stroke-width="1" fill="none"/>
<line  x1="475" y1="706" x2="475" y2="711" stroke="#000000" stroke-width="1" fill="none"/>
<line  x1="475" y1="711" x2="480" y2="711" stroke="#000000" stroke-width="1" fill="none"/>
<text  x="44" y="716" style="font-size:12; font-family:Dialog.plain; fill=#000000">Design::ControlPanel/in LEDOn() #--# Controller/out startCooking()</text>
<rect  x="39" y="657" width="450" height="40" fill="none" stroke="#000000" stroke-width="1"/>
<rect  x="40" y="658" width="448" height="38" fill="#c6e3f9"/>
<line  x1="464" y1="662" x2="464" y2="687" stroke="#000000" stroke-width="1" fill="none"/>
<line  x1="464" y1="662" x2="479" y2="662" stroke="#000000" stroke-width="1" fill="none"/>
<line  x1="479" y1="662" x2="484" y2="667" stroke="#000000" stroke-width="1" fill="none"/>
<line  x1="484" y1="667" x2="484" y2="687" stroke="#000000" stroke-width="1" fill="none"/>
<line  x1="484" y1="687" x2="464" y2="687" stroke="#000000" stroke-width="1" fill="none"/>
<line  x1="479" y1="662" x2="479" y2="667" stroke="#000000" stroke-width="1" fill="none"/>
<line  x1="479" y1="667" x2="484" y2="667" stroke="#000000" stroke-width="1" fill="none"/>
<text  x="44" y="672" style="font-size:12; font-family:Dialog.plain; fill=#000000">Design::Controller/out startMagnetron() #--# Magnetron/in startM()</text>
<rect  x="39" y="613" width="368" height="40" fill="none" stroke="#000000" stroke-width="1"/>
<rect  x="40" y="614" width="366" height="38" fill="#c6e3f9"/>
<line  x1="382" y1="618" x2="382" y2="643" stroke="#000000" stroke-width="1" fill="none"/>
<line  x1="382" y1="618" x2="397" y2="618" stroke="#000000" stroke-width="1" fill="none"/>
<line  x1="397" y1="618" x2="402" y2="623" stroke="#000000" stroke-width="1" fill="none"/>
<line  x1="402" y1="623" x2="402" y2="643" stroke="#000000" stroke-width="1" fill="none"/>
<line  x1="402" y1="643" x2="382" y2="643" stroke="#000000" stroke-width="1" fill="none"/>
<line  x1="397" y1="618" x2="397" y2="623" stroke="#000000" stroke-width="1" fill="none"/>
<line  x1="397" y1="623" x2="402" y2="623" stroke="#000000" stroke-width="1" fill="none"/>
<text  x="44" y="628" style="font-size:12; font-family:Dialog.plain; fill=#000000">Design::Door/in okDoor() #--# Controller/out okDoor()</text>
<rect  x="40" y="568" width="338" height="40" fill="none" stroke="#000000" stroke-width="1"/>
<rect  x="41" y="569" width="336" height="38" fill="#c6e3f9"/>
<line  x1="353" y1="573" x2="353" y2="598" stroke="#000000" stroke-width="1" fill="none"/>
<line  x1="353" y1="573" x2="368" y2="573" stroke="#000000" stroke-width="1" fill="none"/>
<line  x1="368" y1="573" x2="373" y2="578" stroke="#000000" stroke-width="1" fill="none"/>
<line  x1="373" y1="578" x2="373" y2="598" stroke="#000000" stroke-width="1" fill="none"/>
<line  x1="373" y1="598" x2="353" y2="598" stroke="#000000" stroke-width="1" fill="none"/>
<line  x1="368" y1="573" x2="368" y2="578" stroke="#000000" stroke-width="1" fill="none"/>
<line  x1="368" y1="578" x2="373" y2="578" stroke="#000000" stroke-width="1" fill="none"/>
<text  x="45" y="583" style="font-size:12; font-family:Dialog.plain; fill=#000000">Design::Controller/out ringBell() #--# Bell/in ring()</text>
<rect  x="528" y="533" width="471" height="216" fill="none" stroke="#000000" stroke-width="1"/>
<line  x1="528" y1="533" x2="530" y2="530" stroke="#000000" stroke-width="1" fill="none"/>
<line  x1="999" y1="533" x2="1001" y2="530" stroke="#000000" stroke-width="1" fill="none"/>
<line  x1="530" y1="530" x2="1001" y2="530" stroke="#000000" stroke-width="1" fill="none"/>
<line  x1="999" y1="749" x2="1001" y2="746" stroke="#000000" stroke-width="1" fill="none"/>
<line  x1="1001" y1="530" x2="1001" y2="746" stroke="#000000" stroke-width="1" fill="none"/>
<rect  x="529" y="534" width="469" height="214" fill="#acead3"/>
<text  x="735" y="548" style="font-size:12; font-family:Dialog.bold; font-weight=bold; fill=#000000">&lt;&lt;RAM&gt;&gt;</text>
<text  x="728" y="563" style="font-size:12; font-family:Dialog.plain; fill=#000000">Memory1</text>
<rect  x="315" y="10" width="250" height="200" fill="none" stroke="#000000" stroke-width="1"/>
<line  x1="315" y1="10" x2="317" y2="7" stroke="#000000" stroke-width="1" fill="none"/>
<line  x1="565" y1="10" x2="567" y2="7" stroke="#000000" stroke-width="1" fill="none"/>
<line  x1="317" y1="7" x2="567" y2="7" stroke="#000000" stroke-width="1" fill="none"/>
<line  x1="565" y1="210" x2="567" y2="207" stroke="#000000" stroke-width="1" fill="none"/>
<line  x1="567" y1="7" x2="567" y2="207" stroke="#000000" stroke-width="1" fill="none"/>
<rect  x="316" y="11" width="248" height="198" fill="#c6ebf9"/>
<text  x="412" y="25" style="font-size:12; font-family:Dialog.bold; font-weight=bold; fill=#000000">&lt;&lt;CPU&gt;&gt;</text>
<text  x="422" y="40" style="font-size:12; font-family:Dialog.plain; fill=#000000">CPU1</text>
<rect  x="337" y="135" width="113" height="40" fill="none" stroke="#000000" stroke-width="1"/>
<rect  x="338" y="136" width="111" height="38" fill="#c6e3f9"/>
<line  x1="425" y1="140" x2="425" y2="165" stroke="#000000" stroke-width="1" fill="none"/>
<line  x1="425" y1="140" x2="440" y2="140" stroke="#000000" stroke-width="1" fill="none"/>
<line  x1="440" y1="140" x2="445" y2="145" stroke="#000000" stroke-width="1" fill="none"/>
<line  x1="445" y1="145" x2="445" y2="165" stroke="#000000" stroke-width="1" fill="none"/>
<line  x1="445" y1="165" x2="425" y2="165" stroke="#000000" stroke-width="1" fill="none"/>
<line  x1="440" y1="140" x2="440" y2="145" stroke="#000000" stroke-width="1" fill="none"/>
<line  x1="440" y1="145" x2="445" y2="145" stroke="#000000" stroke-width="1" fill="none"/>
<text  x="342" y="150" style="font-size:12; font-family:Dialog.plain; fill=#000000">Design::Door</text>
<rect  x="337" y="92" width="105" height="40" fill="none" stroke="#000000" stroke-width="1"/>
<rect  x="338" y="93" width="103" height="38" fill="#c6e3f9"/>
<line  x1="417" y1="97" x2="417" y2="122" stroke="#000000" stroke-width="1" fill="none"/>
<line  x1="417" y1="97" x2="432" y2="97" stroke="#000000" stroke-width="1" fill="none"/>
<line  x1="432" y1="97" x2="437" y2="102" stroke="#000000" stroke-width="1" fill="none"/>
<line  x1="437" y1="102" x2="437" y2="122" stroke="#000000" stroke-width="1" fill="none"/>
<line  x1="437" y1="122" x2="417" y2="122" stroke="#000000" stroke-width="1" fill="none"/>
<line  x1="432" y1="97" x2="432" y2="102" stroke="#000000" stroke-width="1" fill="none"/>
<line  x1="432" y1="102" x2="437" y2="102" stroke="#000000" stroke-width="1" fill="none"/>
<text  x="342" y="107" style="font-size:12; font-family:Dialog.plain; fill=#000000">Design::Bell</text>
<rect  x="337" y="49" width="162" height="40" fill="none" stroke="#000000" stroke-width="1"/>
<rect  x="338" y="50" width="160" height="38" fill="#c6e3f9"/>
<line  x1="474" y1="54" x2="474" y2="79" stroke="#000000" stroke-width="1" fill="none"/>
<line  x1="474" y1="54" x2="489" y2="54" stroke="#000000" stroke-width="1" fill="none"/>
<line  x1="489" y1="54" x2="494" y2="59" stroke="#000000" stroke-width="1" fill="none"/>
<line  x1="494" y1="59" x2="494" y2="79" stroke="#000000" stroke-width="1" fill="none"/>
<line  x1="494" y1="79" x2="474" y2="79" stroke="#000000" stroke-width="1" fill="none"/>
<line  x1="489" y1="54" x2="489" y2="59" stroke="#000000" stroke-width="1" fill="none"/>
<line  x1="489" y1="59" x2="494" y2="59" stroke="#000000" stroke-width="1" fill="none"/>
<text  x="342" y="64" style="font-size:12; font-family:Dialog.plain; fill=#000000">Design::ControlPanel</text>
<rect  x="606" y="10" width="250" height="200" fill="none" stroke="#000000" stroke-width="1"/>
<line  x1="606" y1="10" x2="608" y2="7" stroke="#000000" stroke-width="1" fill="none"/>
<line  x1="856" y1="10" x2="858" y2="7" stroke="#000000" stroke-width="1" fill="none"/>
<line  x1="608" y1="7" x2="858" y2="7" stroke="#000000" stroke-width="1" fill="none"/>
<line  x1="856" y1="210" x2="858" y2="207" stroke="#000000" stroke-width="1" fill="none"/>
<line  x1="858" y1="7" x2="858" y2="207" stroke="#000000" stroke-width="1" fill="none"/>
<rect  x="607" y="11" width="248" height="198" fill="#c6ebf9"/>
<text  x="706" y="25" style="font-size:12; font-family:Dialog.bold; font-weight=bold; fill=#000000">&lt;&lt;TTY&gt;&gt;</text>
<text  x="710" y="40" style="font-size:12; font-family:Dialog.plain; fill=#000000">TTY0</text>
<rect  x="353" y="343" width="250" height="50" fill="none" stroke="#000000" stroke-width="1"/>
<line  x1="353" y1="343" x2="355" y2="340" stroke="#000000" stroke-width="1" fill="none"/>
<line  x1="603" y1="343" x2="605" y2="340" stroke="#000000" stroke-width="1" fill="none"/>
<line  x1="355" y1="340" x2="605" y2="340" stroke="#000000" stroke-width="1" fill="none"/>
<line  x1="603" y1="393" x2="605" y2="390" stroke="#000000" stroke-width="1" fill="none"/>
<line  x1="605" y1="340" x2="605" y2="390" stroke="#000000" stroke-width="1" fill="none"/>
<rect  x="354" y="344" width="248" height="48" fill="#d7bc80"/>
<text  x="442" y="358" style="font-size:12; font-family:Dialog.bold; font-weight=bold; fill=#000000">&lt;&lt;VGMN&gt;&gt;</text>
<text  x="457" y="373" style="font-size:12; font-family:Dialog.plain; fill=#000000">Bus0</text>
</svg>