<?xml version="1.0" standalone="no"?>
<!DOCTYPE svg PUBLIC "-//W3C//DTD SVG 1.1//EN" "http://www.w3.org/Graphics/SVG/1.1/DTD/svg11.dtd">
<svg xmlns="http://www.w3.org/2000/svg" version="1.1">
<rect  x="70" y="183" width="366" height="200" fill="none" stroke="#000000" stroke-width="1"/>
<rect  x="71" y="184" width="364" height="198" fill="#c1daf1"/>
<text  x="221" y="198" style="font-size:12; font-family:Dialog.bold; font-weight=bold; fill=#000000">&lt;&lt;block&gt;&gt;</text>
<text  x="249" y="213" style="font-size:12; font-family:Dialog.plain; fill=#000000">B</text>
<line  x1="70" y1="215" x2="436" y2="215" stroke="#000000" stroke-width="1" fill="none"/>
<line  x1="70" y1="218" x2="436" y2="218" stroke="#000000" stroke-width="1" fill="none"/>
<text  x="77" y="233" style="font-size:10; font-family:Dialog.plain; fill=#000000">~ out sendReq(int value)</text>
<rect  x="86" y="250" width="132" height="105" fill="none" stroke="#000000" stroke-width="1"/>
<rect  x="87" y="251" width="130" height="103" fill="#c1dafb"/>
<text  x="120" y="265" style="font-size:12; font-family:Dialog.bold; font-weight=bold; fill=#000000">&lt;&lt;block&gt;&gt;</text>
<text  x="145" y="280" style="font-size:12; font-family:Dialog.plain; fill=#000000">B1</text>
<line  x1="86" y1="282" x2="218" y2="282" stroke="#000000" stroke-width="1" fill="none"/>
<text  x="93" y="294" style="font-size:10; font-family:Dialog.plain; fill=#000000">- val1 = 1 : int;</text>
<rect  x="249" y="253" width="139" height="102" fill="none" stroke="#000000" stroke-width="1"/>
<rect  x="250" y="254" width="137" height="100" fill="#c1dafb"/>
<text  x="287" y="268" style="font-size:12; font-family:Dialog.bold; font-weight=bold; fill=#000000">&lt;&lt;block&gt;&gt;</text>
<text  x="304" y="283" style="font-size:12; font-family:Dialog.plain; fill=#000000">B0</text>
<line  x1="249" y1="285" x2="388" y2="285" stroke="#000000" stroke-width="1" fill="none"/>
<text  x="256" y="297" style="font-size:10; font-family:Dialog.plain; fill=#000000">- val0 = 0 : int;</text>
<rect  x="723" y="183" width="250" height="200" fill="none" stroke="#000000" stroke-width="1"/>
<rect  x="724" y="184" width="248" height="198" fill="#c1daf1"/>
<text  x="816" y="198" style="font-size:12; font-family:Dialog.bold; font-weight=bold; fill=#000000">&lt;&lt;block&gt;&gt;</text>
<text  x="841" y="213" style="font-size:12; font-family:Dialog.plain; fill=#000000">B2</text>
<line  x1="723" y1="215" x2="973" y2="215" stroke="#000000" stroke-width="1" fill="none"/>
<text  x="730" y="227" style="font-size:10; font-family:Dialog.plain; fill=#000000">- val : int;</text>
<line  x1="723" y1="230" x2="973" y2="230" stroke="#000000" stroke-width="1" fill="none"/>
<text  x="730" y="245" style="font-size:10; font-family:Dialog.plain; fill=#000000">~ in receiveReq(int value)</text>
<rect  x="718" y="278" width="9" height="9" fill="#ffffff"/>
<rect  x="431" y="278" width="9" height="9" fill="#ffffff"/>
<rect  x="718" y="278" width="10" height="10" fill="none" stroke="#000000" stroke-width="1"/>
<rect  x="431" y="278" width="10" height="10" fill="none" stroke="#000000" stroke-width="1"/>
<line  x1="441" y1="283" x2="718" y2="283" stroke="#000000" stroke-width="1" fill="none"/>
</svg>