<?xml version="1.0" standalone="no"?>
<!DOCTYPE svg PUBLIC "-//W3C//DTD SVG 1.1//EN" "http://www.w3.org/Graphics/SVG/1.1/DTD/svg11.dtd">
<svg xmlns="http://www.w3.org/2000/svg" version="1.1">
<ellipse  cx="127" cy="41" rx="7" ry="7" fill="#000000"/>
<line  x1="127" y1="49" x2="127" y2="54" stroke="#000000" stroke-width="1" fill="none"/>
<line  x1="141" y1="159" x2="141" y2="154" stroke="#000000" stroke-width="1" fill="none"/>
<line  x1="141" y1="179" x2="141" y2="184" stroke="#000000" stroke-width="1" fill="none"/>
<line  x1="98" y1="160" x2="186" y2="160" stroke="#80b4cd" stroke-width="1" fill="none"/>
<line  x1="186" y1="160" x2="186" y2="180" stroke="#80b4cd" stroke-width="1" fill="none"/>
<line  x1="98" y1="180" x2="186" y2="180" stroke="#80b4cd" stroke-width="1" fill="none"/>
<line  x1="98" y1="160" x2="108" y2="170" stroke="#80b4cd" stroke-width="1" fill="none"/>
<line  x1="98" y1="180" x2="108" y2="170" stroke="#80b4cd" stroke-width="1" fill="none"/>
<line  x1="97" y1="159" x2="185" y2="159" stroke="#000000" stroke-width="1" fill="none"/>
<line  x1="185" y1="159" x2="185" y2="179" stroke="#000000" stroke-width="1" fill="none"/>
<line  x1="97" y1="179" x2="185" y2="179" stroke="#000000" stroke-width="1" fill="none"/>
<line  x1="97" y1="159" x2="107" y2="169" stroke="#000000" stroke-width="1" fill="none"/>
<line  x1="97" y1="179" x2="107" y2="169" stroke="#000000" stroke-width="1" fill="none"/>
<text  x="109" y="174" style="font-size:12; font-family:Dialog; fill=#000000">inputSignal()</text>
<rect  x="91" y="75" width="100" height="50" rx="5" ry="5" fill="#c1daf1"/>
<rect  x="91" y="75" width="100" height="50" rx="5" ry="5" fill="none" stroke="#000000" stroke-width="1"/>
<text  x="96" y="90" style="font-size:12; font-family:Dialog; font-weight=bold; fill=#000000">INITIAL_STATE</text>
<line  x1="91" y1="92" x2="191" y2="92" stroke="#000000" stroke-width="1" fill="none"/>
<rect  x="116" y="219" width="100" height="50" rx="5" ry="5" fill="#c1daf1"/>
<rect  x="116" y="219" width="100" height="50" rx="5" ry="5" fill="none" stroke="#000000" stroke-width="1"/>
<text  x="130" y="234" style="font-size:12; font-family:Dialog; font-weight=bold; fill=#000000">END_STATE</text>
<line  x1="116" y1="236" x2="216" y2="236" stroke="#000000" stroke-width="1" fill="none"/>
<line  x1="141" y1="184" x2="141" y2="219" stroke="#000000" stroke-width="1" fill="none"/>
<polygon  points="141,219 136,210 145,210 " fill="#000000"/>
<polygon  points="141,219 136,210 145,210 " fill="none" stroke="#000000" stroke-width="1"/>
<line  x1="141" y1="125" x2="141" y2="154" stroke="#000000" stroke-width="1" fill="none"/>
<polygon  points="141,154 136,145 145,145 " fill="#000000"/>
<polygon  points="141,154 136,145 145,145 " fill="none" stroke="#000000" stroke-width="1"/>
<line  x1="127" y1="54" x2="128" y2="75" stroke="#000000" stroke-width="1" fill="none"/>
<polygon  points="128,75 122,66 132,66 " fill="#000000"/>
<polygon  points="128,75 122,66 132,66 " fill="none" stroke="#000000" stroke-width="1"/>
</svg>