<?xml version="1.0" standalone="no"?>
<!DOCTYPE svg PUBLIC "-//W3C//DTD SVG 1.1//EN" "http://www.w3.org/Graphics/SVG/1.1/DTD/svg11.dtd">
<svg xmlns="http://www.w3.org/2000/svg" version="1.1">
<line  x1="76" y1="181" x2="76" y2="205" stroke="#000000" stroke-width="1" fill="none"/>
<polygon  points="76,205 71,196 80,196 " fill="#000000"/>
<polygon  points="76,205 71,196 80,196 " fill="none" stroke="#000000" stroke-width="1"/>
<line  x1="224" y1="115" x2="224" y2="152" stroke="#000000" stroke-width="1" fill="none"/>
<polygon  points="224,152 219,143 228,143 " fill="#000000"/>
<polygon  points="224,152 219,143 228,143 " fill="none" stroke="#000000" stroke-width="1"/>
<line  x1="76" y1="115" x2="76" y2="151" stroke="#000000" stroke-width="1" fill="none"/>
<polygon  points="76,151 71,142 80,142 " fill="#000000"/>
<polygon  points="76,151 71,142 80,142 " fill="none" stroke="#000000" stroke-width="1"/>
<line  x1="187" y1="35" x2="224" y2="64" stroke="#000000" stroke-width="1" fill="none"/>
<polygon  points="224,64 214,62 220,54 " fill="#000000"/>
<polygon  points="224,64 214,62 220,54 " fill="none" stroke="#000000" stroke-width="1"/>
<line  x1="368" y1="115" x2="368" y2="150" stroke="#000000" stroke-width="1" fill="none"/>
<polygon  points="368,150 363,141 372,141 " fill="#000000"/>
<polygon  points="368,150 363,141 372,141 " fill="none" stroke="#000000" stroke-width="1"/>
<line  x1="224" y1="182" x2="224" y2="203" stroke="#000000" stroke-width="1" fill="none"/>
<polygon  points="224,203 219,194 228,194 " fill="#000000"/>
<polygon  points="224,203 219,194 228,194 " fill="none" stroke="#000000" stroke-width="1"/>
<line  x1="368" y1="180" x2="369" y2="202" stroke="#000000" stroke-width="1" fill="none"/>
<polygon  points="369,202 363,193 373,193 " fill="#000000"/>
<polygon  points="369,202 363,193 373,193 " fill="none" stroke="#000000" stroke-width="1"/>
<rect  x="174" y="203" width="100" height="50" rx="5" ry="5" fill="#c1daf1"/>
<rect  x="174" y="203" width="100" height="50" rx="5" ry="5" fill="none" stroke="#000000" stroke-width="1"/>
<text  x="200" y="218" style="font-size:12; font-family:Dialog; font-weight=bold; fill=#000000">STATE2</text>
<line  x1="174" y1="220" x2="274" y2="220" stroke="#000000" stroke-width="1" fill="none"/>
<rect  x="319" y="202" width="100" height="50" rx="5" ry="5" fill="#c1daf1"/>
<rect  x="319" y="202" width="100" height="50" rx="5" ry="5" fill="none" stroke="#000000" stroke-width="1"/>
<text  x="345" y="217" style="font-size:12; font-family:Dialog; font-weight=bold; fill=#000000">STATE3</text>
<line  x1="319" y1="219" x2="419" y2="219" stroke="#000000" stroke-width="1" fill="none"/>
<rect  x="26" y="205" width="100" height="50" rx="5" ry="5" fill="#c1daf1"/>
<rect  x="26" y="205" width="100" height="50" rx="5" ry="5" fill="none" stroke="#000000" stroke-width="1"/>
<text  x="52" y="220" style="font-size:12; font-family:Dialog; font-weight=bold; fill=#000000">STATE1</text>
<line  x1="26" y1="222" x2="126" y2="222" stroke="#000000" stroke-width="1" fill="none"/>
<ellipse  cx="187" cy="22" rx="7" ry="7" fill="#000000"/>
<line  x1="187" y1="30" x2="187" y2="35" stroke="#000000" stroke-width="1" fill="none"/>
<rect  x="30" y="64" width="389" height="51" rx="5" ry="5" fill="#c1daf1"/>
<rect  x="30" y="64" width="389" height="51" rx="5" ry="5" fill="none" stroke="#000000" stroke-width="1"/>
<text  x="208" y="79" style="font-size:12; font-family:Dialog; font-weight=bold; fill=#000000">WAIT</text>
<line  x1="30" y1="81" x2="419" y2="81" stroke="#000000" stroke-width="1" fill="none"/>
<line  x1="76" y1="156" x2="76" y2="151" stroke="#000000" stroke-width="1" fill="none"/>
<line  x1="76" y1="176" x2="76" y2="181" stroke="#000000" stroke-width="1" fill="none"/>
<line  x1="21" y1="157" x2="133" y2="157" stroke="#80b4cd" stroke-width="1" fill="none"/>
<line  x1="133" y1="157" x2="133" y2="177" stroke="#80b4cd" stroke-width="1" fill="none"/>
<line  x1="21" y1="177" x2="133" y2="177" stroke="#80b4cd" stroke-width="1" fill="none"/>
<line  x1="21" y1="157" x2="31" y2="167" stroke="#80b4cd" stroke-width="1" fill="none"/>
<line  x1="21" y1="177" x2="31" y2="167" stroke="#80b4cd" stroke-width="1" fill="none"/>
<line  x1="20" y1="156" x2="132" y2="156" stroke="#000000" stroke-width="1" fill="none"/>
<line  x1="132" y1="156" x2="132" y2="176" stroke="#000000" stroke-width="1" fill="none"/>
<line  x1="20" y1="176" x2="132" y2="176" stroke="#000000" stroke-width="1" fill="none"/>
<line  x1="20" y1="156" x2="30" y2="166" stroke="#000000" stroke-width="1" fill="none"/>
<line  x1="20" y1="176" x2="30" y2="166" stroke="#000000" stroke-width="1" fill="none"/>
<text  x="32" y="171" style="font-size:12; font-family:Dialog; fill=#000000">signal1(number)</text>
<line  x1="224" y1="157" x2="224" y2="152" stroke="#000000" stroke-width="1" fill="none"/>
<line  x1="224" y1="177" x2="224" y2="182" stroke="#000000" stroke-width="1" fill="none"/>
<line  x1="192" y1="158" x2="259" y2="158" stroke="#80b4cd" stroke-width="1" fill="none"/>
<line  x1="259" y1="158" x2="259" y2="178" stroke="#80b4cd" stroke-width="1" fill="none"/>
<line  x1="192" y1="178" x2="259" y2="178" stroke="#80b4cd" stroke-width="1" fill="none"/>
<line  x1="192" y1="158" x2="202" y2="168" stroke="#80b4cd" stroke-width="1" fill="none"/>
<line  x1="192" y1="178" x2="202" y2="168" stroke="#80b4cd" stroke-width="1" fill="none"/>
<line  x1="191" y1="157" x2="258" y2="157" stroke="#000000" stroke-width="1" fill="none"/>
<line  x1="258" y1="157" x2="258" y2="177" stroke="#000000" stroke-width="1" fill="none"/>
<line  x1="191" y1="177" x2="258" y2="177" stroke="#000000" stroke-width="1" fill="none"/>
<line  x1="191" y1="157" x2="201" y2="167" stroke="#000000" stroke-width="1" fill="none"/>
<line  x1="191" y1="177" x2="201" y2="167" stroke="#000000" stroke-width="1" fill="none"/>
<text  x="203" y="172" style="font-size:12; font-family:Dialog; fill=#000000">signal2()</text>
<line  x1="368" y1="155" x2="368" y2="150" stroke="#000000" stroke-width="1" fill="none"/>
<line  x1="368" y1="175" x2="368" y2="180" stroke="#000000" stroke-width="1" fill="none"/>
<line  x1="299" y1="156" x2="440" y2="156" stroke="#80b4cd" stroke-width="1" fill="none"/>
<line  x1="440" y1="156" x2="440" y2="176" stroke="#80b4cd" stroke-width="1" fill="none"/>
<line  x1="299" y1="176" x2="440" y2="176" stroke="#80b4cd" stroke-width="1" fill="none"/>
<line  x1="299" y1="156" x2="309" y2="166" stroke="#80b4cd" stroke-width="1" fill="none"/>
<line  x1="299" y1="176" x2="309" y2="166" stroke="#80b4cd" stroke-width="1" fill="none"/>
<line  x1="298" y1="155" x2="439" y2="155" stroke="#000000" stroke-width="1" fill="none"/>
<line  x1="439" y1="155" x2="439" y2="175" stroke="#000000" stroke-width="1" fill="none"/>
<line  x1="298" y1="175" x2="439" y2="175" stroke="#000000" stroke-width="1" fill="none"/>
<line  x1="298" y1="155" x2="308" y2="165" stroke="#000000" stroke-width="1" fill="none"/>
<line  x1="298" y1="175" x2="308" y2="165" stroke="#000000" stroke-width="1" fill="none"/>
<text  x="310" y="170" style="font-size:12; font-family:Dialog; fill=#000000">signal3(number, flag)</text>
</svg>