<?xml version="1.0" standalone="no"?>
<!DOCTYPE svg PUBLIC "-//W3C//DTD SVG 1.1//EN" "http://www.w3.org/Graphics/SVG/1.1/DTD/svg11.dtd">
<svg xmlns="http://www.w3.org/2000/svg" version="1.1">
<line  x1="523" y1="284" x2="571" y2="335" stroke="#000000" stroke-width="1" fill="none"/>
<polygon  points="571,335 561,332 568,325 " fill="#000000"/>
<polygon  points="571,335 561,332 568,325 " fill="none" stroke="#000000" stroke-width="1"/>
<text  x="557" y="307" style="font-size:12; font-family:Dialog; fill=#00591a">[ lossy ]</text>
<line  x1="490" y1="166" x2="498" y2="234" stroke="#000000" stroke-width="1" fill="none"/>
<polygon  points="498,234 492,225 501,224 " fill="#000000"/>
<polygon  points="498,234 492,225 501,224 " fill="none" stroke="#000000" stroke-width="1"/>
<line  x1="407" y1="70" x2="440" y2="116" stroke="#000000" stroke-width="1" fill="none"/>
<polygon  points="440,116 430,111 439,106 " fill="#000000"/>
<polygon  points="440,116 430,111 439,106 " fill="none" stroke="#000000" stroke-width="1"/>
<text  x="435" y="88" style="font-size:12; font-family:Dialog; fill=#7710f3">lossy = false</text>
<ellipse  cx="407" cy="57" rx="7" ry="7" fill="#000000"/>
<line  x1="407" y1="65" x2="407" y2="70" stroke="#000000" stroke-width="1" fill="none"/>
<rect  x="403" y="116" width="100" height="50" rx="5" ry="5" fill="#c1daf1"/>
<rect  x="403" y="116" width="100" height="50" rx="5" ry="5" fill="none" stroke="#000000" stroke-width="1"/>
<text  x="429" y="131" style="font-size:12; font-family:Dialog; font-weight=bold; fill=#000000">STATE1</text>
<line  x1="403" y1="133" x2="503" y2="133" stroke="#000000" stroke-width="1" fill="none"/>
<rect  x="448" y="234" width="100" height="50" rx="5" ry="5" fill="#c1daf1"/>
<rect  x="448" y="234" width="100" height="50" rx="5" ry="5" fill="none" stroke="#000000" stroke-width="1"/>
<text  x="474" y="249" style="font-size:12; font-family:Dialog; font-weight=bold; fill=#000000">STATE2</text>
<line  x1="448" y1="251" x2="548" y2="251" stroke="#000000" stroke-width="1" fill="none"/>
<ellipse  cx="571" cy="350" rx="8" ry="8" fill="#000000"/>
<ellipse  cx="571" cy="350" rx="10" ry="10" fill="none" stroke="#000000" stroke-width="1"/>
<line  x1="571" y1="340" x2="571" y2="335" stroke="#000000" stroke-width="1" fill="none"/>
<line  x1="473" y1="284" x2="441" y2="336" stroke="#000000" stroke-width="1" fill="none"/>
<line  x1="441" y1="336" x2="353" y2="336" stroke="#000000" stroke-width="1" fill="none"/>
<line  x1="353" y1="336" x2="353" y2="141" stroke="#000000" stroke-width="1" fill="none"/>
<line  x1="353" y1="141" x2="403" y2="141" stroke="#000000" stroke-width="1" fill="none"/>
<polygon  points="403,141 394,145 394,136 " fill="#000000"/>
<polygon  points="403,141 394,145 394,136 " fill="none" stroke="#000000" stroke-width="1"/>
<text  x="400" y="305" style="font-size:12; font-family:Dialog; fill=#00591a">[ else ]</text>
</svg>