<?xml version="1.0" standalone="no"?>
<!DOCTYPE svg PUBLIC "-//W3C//DTD SVG 1.1//EN" "http://www.w3.org/Graphics/SVG/1.1/DTD/svg11.dtd">
<svg xmlns="http://www.w3.org/2000/svg" version="1.1">
<ellipse  cx="433" cy="106" rx="7" ry="7" fill="#000000"/>
<line  x1="433" y1="114" x2="433" y2="119" stroke="#000000" stroke-width="1" fill="none"/>
<line  x1="433" y1="145" x2="433" y2="140" stroke="#000000" stroke-width="1" fill="none"/>
<line  x1="433" y1="165" x2="433" y2="170" stroke="#000000" stroke-width="1" fill="none"/>
<line  x1="406" y1="146" x2="452" y2="146" stroke="#80b4cd" stroke-width="1" fill="none"/>
<line  x1="406" y1="166" x2="452" y2="166" stroke="#80b4cd" stroke-width="1" fill="none"/>
<line  x1="406" y1="146" x2="406" y2="166" stroke="#80b4cd" stroke-width="1" fill="none"/>
<line  x1="452" y1="146" x2="462" y2="156" stroke="#80b4cd" stroke-width="1" fill="none"/>
<line  x1="452" y1="166" x2="462" y2="156" stroke="#80b4cd" stroke-width="1" fill="none"/>
<line  x1="405" y1="145" x2="451" y2="145" stroke="#000000" stroke-width="1" fill="none"/>
<line  x1="405" y1="165" x2="451" y2="165" stroke="#000000" stroke-width="1" fill="none"/>
<line  x1="405" y1="145" x2="405" y2="165" stroke="#000000" stroke-width="1" fill="none"/>
<line  x1="451" y1="145" x2="461" y2="155" stroke="#000000" stroke-width="1" fill="none"/>
<line  x1="451" y1="165" x2="461" y2="155" stroke="#000000" stroke-width="1" fill="none"/>
<text  x="410" y="160" style="font-size:12; font-family:Dialog; fill=#000000">go_out()</text>
<rect  x="383" y="202" width="100" height="50" rx="5" ry="5" fill="#c1daf1"/>
<rect  x="383" y="202" width="100" height="50" rx="5" ry="5" fill="none" stroke="#000000" stroke-width="1"/>
<text  x="393" y="217" style="font-size:12; font-family:Dialog; font-weight=bold; fill=#000000">WaitForDone</text>
<line  x1="383" y1="219" x2="483" y2="219" stroke="#000000" stroke-width="1" fill="none"/>
<line  x1="433" y1="271" x2="433" y2="266" stroke="#000000" stroke-width="1" fill="none"/>
<line  x1="433" y1="291" x2="433" y2="296" stroke="#000000" stroke-width="1" fill="none"/>
<line  x1="395" y1="272" x2="473" y2="272" stroke="#80b4cd" stroke-width="1" fill="none"/>
<line  x1="473" y1="272" x2="473" y2="292" stroke="#80b4cd" stroke-width="1" fill="none"/>
<line  x1="395" y1="292" x2="473" y2="292" stroke="#80b4cd" stroke-width="1" fill="none"/>
<line  x1="395" y1="272" x2="405" y2="282" stroke="#80b4cd" stroke-width="1" fill="none"/>
<line  x1="395" y1="292" x2="405" y2="282" stroke="#80b4cd" stroke-width="1" fill="none"/>
<line  x1="394" y1="271" x2="472" y2="271" stroke="#000000" stroke-width="1" fill="none"/>
<line  x1="472" y1="271" x2="472" y2="291" stroke="#000000" stroke-width="1" fill="none"/>
<line  x1="394" y1="291" x2="472" y2="291" stroke="#000000" stroke-width="1" fill="none"/>
<line  x1="394" y1="271" x2="404" y2="281" stroke="#000000" stroke-width="1" fill="none"/>
<line  x1="394" y1="291" x2="404" y2="281" stroke="#000000" stroke-width="1" fill="none"/>
<text  x="406" y="286" style="font-size:12; font-family:Dialog; fill=#000000">done_in(x)</text>
<line  x1="433" y1="252" x2="433" y2="266" stroke="#000000" stroke-width="1" fill="none"/>
<line  x1="433" y1="170" x2="433" y2="202" stroke="#000000" stroke-width="1" fill="none"/>
<polygon  points="433,202 428,193 437,193 " fill="#000000"/>
<polygon  points="433,202 428,193 437,193 " fill="none" stroke="#000000" stroke-width="1"/>
<line  x1="433" y1="119" x2="433" y2="140" stroke="#000000" stroke-width="1" fill="none"/>
<polygon  points="433,140 428,131 437,131 " fill="#000000"/>
<polygon  points="433,140 428,131 437,131 " fill="none" stroke="#000000" stroke-width="1"/>
<line  x1="433" y1="296" x2="357" y2="296" stroke="#000000" stroke-width="1" fill="none"/>
<line  x1="357" y1="296" x2="357" y2="220" stroke="#000000" stroke-width="1" fill="none"/>
<line  x1="357" y1="220" x2="383" y2="220" stroke="#000000" stroke-width="1" fill="none"/>
<polygon  points="383,220 374,224 374,215 " fill="#000000"/>
<polygon  points="383,220 374,224 374,215 " fill="none" stroke="#000000" stroke-width="1"/>
</svg>