<?xml version="1.0" standalone="no"?>
<!DOCTYPE svg PUBLIC "-//W3C//DTD SVG 1.1//EN" "http://www.w3.org/Graphics/SVG/1.1/DTD/svg11.dtd">
<svg xmlns="http://www.w3.org/2000/svg" version="1.1">
<ellipse  cx="334" cy="101" rx="7" ry="7" fill="#000000"/>
<line  x1="334" y1="109" x2="334" y2="114" stroke="#000000" stroke-width="1" fill="none"/>
<line  x1="334" y1="131" x2="334" y2="126" stroke="#000000" stroke-width="1" fill="none"/>
<line  x1="334" y1="151" x2="334" y2="156" stroke="#000000" stroke-width="1" fill="none"/>
<line  x1="307" y1="132" x2="363" y2="132" stroke="#80b4cd" stroke-width="1" fill="none"/>
<line  x1="363" y1="132" x2="363" y2="152" stroke="#80b4cd" stroke-width="1" fill="none"/>
<line  x1="307" y1="152" x2="363" y2="152" stroke="#80b4cd" stroke-width="1" fill="none"/>
<line  x1="307" y1="132" x2="317" y2="142" stroke="#80b4cd" stroke-width="1" fill="none"/>
<line  x1="307" y1="152" x2="317" y2="142" stroke="#80b4cd" stroke-width="1" fill="none"/>
<line  x1="306" y1="131" x2="362" y2="131" stroke="#000000" stroke-width="1" fill="none"/>
<line  x1="362" y1="131" x2="362" y2="151" stroke="#000000" stroke-width="1" fill="none"/>
<line  x1="306" y1="151" x2="362" y2="151" stroke="#000000" stroke-width="1" fill="none"/>
<line  x1="306" y1="131" x2="316" y2="141" stroke="#000000" stroke-width="1" fill="none"/>
<line  x1="306" y1="151" x2="316" y2="141" stroke="#000000" stroke-width="1" fill="none"/>
<text  x="318" y="146" style="font-size:12; font-family:Dialog; fill=#000000">go_in()</text>
<line  x1="334" y1="191" x2="334" y2="186" stroke="#000000" stroke-width="1" fill="none"/>
<line  x1="334" y1="211" x2="334" y2="216" stroke="#000000" stroke-width="1" fill="none"/>
<line  x1="296" y1="192" x2="364" y2="192" stroke="#80b4cd" stroke-width="1" fill="none"/>
<line  x1="296" y1="212" x2="364" y2="212" stroke="#80b4cd" stroke-width="1" fill="none"/>
<line  x1="296" y1="192" x2="296" y2="212" stroke="#80b4cd" stroke-width="1" fill="none"/>
<line  x1="364" y1="192" x2="374" y2="202" stroke="#80b4cd" stroke-width="1" fill="none"/>
<line  x1="364" y1="212" x2="374" y2="202" stroke="#80b4cd" stroke-width="1" fill="none"/>
<line  x1="295" y1="191" x2="363" y2="191" stroke="#000000" stroke-width="1" fill="none"/>
<line  x1="295" y1="211" x2="363" y2="211" stroke="#000000" stroke-width="1" fill="none"/>
<line  x1="295" y1="191" x2="295" y2="211" stroke="#000000" stroke-width="1" fill="none"/>
<line  x1="363" y1="191" x2="373" y2="201" stroke="#000000" stroke-width="1" fill="none"/>
<line  x1="363" y1="211" x2="373" y2="201" stroke="#000000" stroke-width="1" fill="none"/>
<text  x="300" y="206" style="font-size:12; font-family:Dialog; fill=#000000">done_out(x)</text>
<ellipse  cx="334" cy="241" rx="8" ry="8" fill="#000000"/>
<ellipse  cx="334" cy="241" rx="10" ry="10" fill="none" stroke="#000000" stroke-width="1"/>
<line  x1="334" y1="231" x2="334" y2="226" stroke="#000000" stroke-width="1" fill="none"/>
<line  x1="334" y1="216" x2="334" y2="226" stroke="#000000" stroke-width="1" fill="none"/>
<line  x1="334" y1="156" x2="334" y2="186" stroke="#000000" stroke-width="1" fill="none"/>
<polygon  points="334,186 329,177 338,177 " fill="#000000"/>
<polygon  points="334,186 329,177 338,177 " fill="none" stroke="#000000" stroke-width="1"/>
<text  x="341" y="172" style="font-size:12; font-family:Dialog; fill=#7710f3">x = 1</text>
<line  x1="334" y1="114" x2="334" y2="126" stroke="#000000" stroke-width="1" fill="none"/>
</svg>