<?xml version="1.0" standalone="no"?>
<!DOCTYPE svg PUBLIC "-//W3C//DTD SVG 1.1//EN" "http://www.w3.org/Graphics/SVG/1.1/DTD/svg11.dtd">
<svg xmlns="http://www.w3.org/2000/svg" version="1.1">
<line  x1="408" y1="197" x2="408" y2="201" stroke="#000000" stroke-width="1" fill="none"/>
<line  x1="408" y1="118" x2="408" y2="125" stroke="#000000" stroke-width="1" fill="none"/>
<line  x1="408" y1="77" x2="408" y2="88" stroke="#000000" stroke-width="1" fill="none"/>
<ellipse  cx="408" cy="64" rx="7" ry="7" fill="#000000"/>
<line  x1="408" y1="72" x2="408" y2="77" stroke="#000000" stroke-width="1" fill="none"/>
<line  x1="408" y1="93" x2="408" y2="88" stroke="#000000" stroke-width="1" fill="none"/>
<line  x1="408" y1="113" x2="408" y2="118" stroke="#000000" stroke-width="1" fill="none"/>
<line  x1="381" y1="94" x2="438" y2="94" stroke="#80b4cd" stroke-width="1" fill="none"/>
<line  x1="438" y1="94" x2="438" y2="114" stroke="#80b4cd" stroke-width="1" fill="none"/>
<line  x1="381" y1="114" x2="438" y2="114" stroke="#80b4cd" stroke-width="1" fill="none"/>
<line  x1="381" y1="94" x2="391" y2="104" stroke="#80b4cd" stroke-width="1" fill="none"/>
<line  x1="381" y1="114" x2="391" y2="104" stroke="#80b4cd" stroke-width="1" fill="none"/>
<line  x1="380" y1="93" x2="437" y2="93" stroke="#000000" stroke-width="1" fill="none"/>
<line  x1="437" y1="93" x2="437" y2="113" stroke="#000000" stroke-width="1" fill="none"/>
<line  x1="380" y1="113" x2="437" y2="113" stroke="#000000" stroke-width="1" fill="none"/>
<line  x1="380" y1="93" x2="390" y2="103" stroke="#000000" stroke-width="1" fill="none"/>
<line  x1="380" y1="113" x2="390" y2="103" stroke="#000000" stroke-width="1" fill="none"/>
<text  x="392" y="108" style="font-size:12; font-family:Dialog; fill=#000000">sig2(x)</text>
<line  x1="408" y1="172" x2="408" y2="167" stroke="#000000" stroke-width="1" fill="none"/>
<line  x1="408" y1="192" x2="408" y2="197" stroke="#000000" stroke-width="1" fill="none"/>
<line  x1="381" y1="173" x2="438" y2="173" stroke="#80b4cd" stroke-width="1" fill="none"/>
<line  x1="438" y1="173" x2="438" y2="193" stroke="#80b4cd" stroke-width="1" fill="none"/>
<line  x1="381" y1="193" x2="438" y2="193" stroke="#80b4cd" stroke-width="1" fill="none"/>
<line  x1="381" y1="173" x2="391" y2="183" stroke="#80b4cd" stroke-width="1" fill="none"/>
<line  x1="381" y1="193" x2="391" y2="183" stroke="#80b4cd" stroke-width="1" fill="none"/>
<line  x1="380" y1="172" x2="437" y2="172" stroke="#000000" stroke-width="1" fill="none"/>
<line  x1="437" y1="172" x2="437" y2="192" stroke="#000000" stroke-width="1" fill="none"/>
<line  x1="380" y1="192" x2="437" y2="192" stroke="#000000" stroke-width="1" fill="none"/>
<line  x1="380" y1="172" x2="390" y2="182" stroke="#000000" stroke-width="1" fill="none"/>
<line  x1="380" y1="192" x2="390" y2="182" stroke="#000000" stroke-width="1" fill="none"/>
<text  x="392" y="187" style="font-size:12; font-family:Dialog; fill=#000000">sig1(x)</text>
<ellipse  cx="408" cy="265" rx="8" ry="8" fill="#000000"/>
<ellipse  cx="408" cy="265" rx="10" ry="10" fill="none" stroke="#000000" stroke-width="1"/>
<line  x1="408" y1="255" x2="408" y2="250" stroke="#000000" stroke-width="1" fill="none"/>
<rect  x="358" y="125" width="100" height="31" rx="5" ry="5" fill="#c1daf1"/>
<rect  x="358" y="125" width="100" height="31" rx="5" ry="5" fill="none" stroke="#000000" stroke-width="1"/>
<text  x="393" y="140" style="font-size:12; font-family:Dialog; font-weight=bold; fill=#000000">Got2</text>
<line  x1="358" y1="142" x2="458" y2="142" stroke="#000000" stroke-width="1" fill="none"/>
<line  x1="408" y1="156" x2="408" y2="167" stroke="#000000" stroke-width="1" fill="none"/>
<rect  x="358" y="201" width="100" height="32" rx="5" ry="5" fill="#c1daf1"/>
<rect  x="358" y="201" width="100" height="32" rx="5" ry="5" fill="none" stroke="#000000" stroke-width="1"/>
<text  x="393" y="216" style="font-size:12; font-family:Dialog; font-weight=bold; fill=#000000">Got1</text>
<line  x1="358" y1="218" x2="458" y2="218" stroke="#000000" stroke-width="1" fill="none"/>
<line  x1="408" y1="233" x2="408" y2="250" stroke="#000000" stroke-width="1" fill="none"/>
<polygon  points="408,250 403,241 412,241 " fill="#000000"/>
<polygon  points="408,250 403,241 412,241 " fill="none" stroke="#000000" stroke-width="1"/>
</svg>