<?xml version="1.0" standalone="no"?>
<!DOCTYPE svg PUBLIC "-//W3C//DTD SVG 1.1//EN" "http://www.w3.org/Graphics/SVG/1.1/DTD/svg11.dtd">
<svg xmlns="http://www.w3.org/2000/svg" version="1.1">
<ellipse  cx="481" cy="61" rx="7" ry="7" fill="#000000"/>
<line  x1="481" y1="69" x2="481" y2="74" stroke="#000000" stroke-width="1" fill="none"/>
<line  x1="504" y1="207" x2="504" y2="202" stroke="#000000" stroke-width="1" fill="none"/>
<line  x1="504" y1="227" x2="504" y2="232" stroke="#000000" stroke-width="1" fill="none"/>
<line  x1="435" y1="208" x2="566" y2="208" stroke="#80b4cd" stroke-width="1" fill="none"/>
<line  x1="435" y1="228" x2="566" y2="228" stroke="#80b4cd" stroke-width="1" fill="none"/>
<line  x1="435" y1="208" x2="435" y2="228" stroke="#80b4cd" stroke-width="1" fill="none"/>
<line  x1="566" y1="208" x2="576" y2="218" stroke="#80b4cd" stroke-width="1" fill="none"/>
<line  x1="566" y1="228" x2="576" y2="218" stroke="#80b4cd" stroke-width="1" fill="none"/>
<line  x1="434" y1="207" x2="565" y2="207" stroke="#000000" stroke-width="1" fill="none"/>
<line  x1="434" y1="227" x2="565" y2="227" stroke="#000000" stroke-width="1" fill="none"/>
<line  x1="434" y1="207" x2="434" y2="227" stroke="#000000" stroke-width="1" fill="none"/>
<line  x1="565" y1="207" x2="575" y2="217" stroke="#000000" stroke-width="1" fill="none"/>
<line  x1="565" y1="227" x2="575" y2="217" stroke="#000000" stroke-width="1" fill="none"/>
<text  x="434" y="222" style="font-size:12; font-family:Dialog.plain; fill=#000000">startButton(duration)</text>
<rect  x="454" y="98" width="100" height="50" rx="5" ry="5" fill="#c1daf1"/>
<rect  x="454" y="98" width="100" height="50" rx="5" ry="5" fill="none" stroke="#000000" stroke-width="1"/>
<text  x="483" y="113" style="font-size:12; font-family:Dialog.bold; font-weight=bold; fill=#000000">Active</text>
<line  x1="454" y1="115" x2="554" y2="115" stroke="#000000" stroke-width="1" fill="none"/>
<line  x1="481" y1="74" x2="504" y2="98" stroke="#000000" stroke-width="1" fill="none"/>
<polygon  points="504,98 494,95 501,88 " fill="#000000"/>
<polygon  points="504,98 494,95 501,88 " fill="none" stroke="#000000" stroke-width="1"/>
<line  x1="504" y1="148" x2="504" y2="175" stroke="#000000" stroke-width="1" fill="none"/>
<line  x1="504" y1="175" x2="504" y2="202" stroke="#000000" stroke-width="1" fill="none"/>
<polygon  points="504,202 499,193 508,193 " fill="#000000"/>
<polygon  points="504,202 499,193 508,193 " fill="none" stroke="#000000" stroke-width="1"/>
<line  x1="504" y1="232" x2="504" y2="254" stroke="#000000" stroke-width="1" fill="none"/>
<line  x1="504" y1="254" x2="426" y2="254" stroke="#000000" stroke-width="1" fill="none"/>
<line  x1="426" y1="254" x2="426" y2="123" stroke="#000000" stroke-width="1" fill="none"/>
<line  x1="426" y1="123" x2="454" y2="123" stroke="#000000" stroke-width="1" fill="none"/>
<polygon  points="454,123 445,127 445,118 " fill="#000000"/>
<polygon  points="454,123 445,127 445,118 " fill="none" stroke="#000000" stroke-width="1"/>
</svg>